<svg width="997" height="932" viewBox="0 0 997 932" fill="none" xmlns="http://www.w3.org/2000/svg">
<path d="M237.514 196.773C213.594 218.898 192.234 242.855 176.82 271.747C160.9 301.412 155.315 332.633 163.113 365.764C166.683 380.901 170.654 395.972 173.329 411.272C176.372 428.732 174.736 445.885 165.429 461.573C157.315 475.239 146.01 485.195 130.634 489.905C119.78 493.332 108.071 492.869 97.5211 488.596C86.9714 484.322 78.241 476.506 72.832 466.491C58.5482 440.25 60.3615 414.067 76.3973 389.486C87.1765 372.904 109.318 370.92 124.132 383.748C133.72 392.104 137.244 407.247 132.439 419.423C129.16 427.776 123.148 434.342 117.335 441.015C113.651 445.134 110.197 449.453 106.988 453.952C105.681 455.642 104.758 457.598 104.285 459.682C103.812 461.766 103.8 463.928 104.249 466.018C106.234 474.239 110.951 477.763 119.444 476.738C135.735 474.695 146.593 465.074 153.951 451.064C159.595 440.338 160.613 428.678 158.92 416.952C157.474 407.208 155.33 397.49 152.972 387.889C148.985 371.849 145.1 355.825 144.621 339.211C143.938 314.18 150.288 290.889 161.444 268.759C177.313 237.258 199.834 211.06 226.149 187.871C256.454 161.124 290 139.519 327.855 125.151C396.449 99.1243 464.61 98.5022 531.809 130.316C556.978 142.238 579.406 158.143 597.902 179.103C615.621 199.211 628.432 221.899 631.084 249.154C633.622 275.066 625.992 297.855 608.834 317.367C588.144 340.882 561.358 353.549 531.263 360.007C497.294 367.286 463.431 365.23 429.832 357.881C405.972 352.677 382.43 346.282 358.653 340.707C344.041 337.265 329.257 334.816 314.144 336.293C306.243 336.874 298.592 339.314 291.813 343.414C278.425 351.844 277.921 365.428 290.694 374.758C299.862 381.459 310.411 384.111 321.427 385.319C340.272 387.364 359.096 386.193 377.964 385.457C406.501 384.38 435.019 383.423 463.453 387.057C485.163 389.79 506.061 395.145 525.104 406.35C534.143 411.669 542.157 418.196 547.542 427.397C554.967 440.095 555.237 453.357 550.236 466.864C545.834 478.654 538.57 488.629 529.91 497.585C506.722 521.622 478.406 538.167 448.649 552.451C413.786 569.208 377.324 580.853 338.695 584.735C312.949 587.322 287.317 586.91 262.286 579.227C243.168 573.413 226.618 563.661 213.093 548.658C203.242 537.736 194.057 526.551 188.224 512.854C180.729 495.225 180.391 477.258 187.62 459.828C193.96 444.506 205.225 439.031 220.227 444.963C242.997 453.945 266.685 479.299 267.454 511.198C267.651 519.304 266.922 527.478 266.538 535.563C266.408 538.505 266.015 541.448 265.971 544.387C265.727 559.099 272.393 567.167 286.97 569.215C310.314 572.514 333.573 571.228 356.677 567.037C389.342 561.287 420.873 550.327 450.063 534.578C460.282 529.01 469.419 521.168 478.247 513.436C489.453 503.689 499.408 492.605 506.809 479.594C508.99 475.839 510.866 471.915 512.419 467.86C520.52 446.138 513.269 425.537 493.355 413.614C480.039 405.6 465.441 401.971 450.034 400.786C424.454 398.817 398.896 399.782 373.3 400.745C354.789 401.468 336.295 402.371 317.834 400.08C303.828 398.343 290.664 394.363 279.497 385.182C263.13 371.721 261.843 351.328 276.176 335.802C283.386 328.15 292.112 322.086 301.798 317.997C328.103 306.435 355.392 304.509 383.547 309.035C407.521 312.875 431.519 316.905 455.656 319.337C491.405 322.935 526.331 317.301 559.88 304.974C585.606 295.514 601.442 275.975 608.772 249.791C611.636 239.567 610.395 229.31 606.125 219.369C599.136 203.306 588.55 189.063 575.185 177.738C511.081 122.388 437.663 109.691 357.236 131.247C327.879 139.12 300.759 152.252 275.593 169.186C262.549 177.931 250.168 187.559 237.514 196.773Z" fill="#F522ED"/>
<path d="M732.736 486.662C731.807 487.498 730.864 488.32 729.934 489.169C716.653 501.463 703.172 513.438 687.434 522.576C676.171 529.1 664.404 534.034 651.03 533.769C636.062 533.477 624.467 526.872 617.242 514.022C606.617 495.137 609.088 476.199 619.793 458.322C630.497 440.445 647.404 431.877 667.605 429.145C679.941 427.377 692.525 428.816 704.142 433.323C715.595 437.714 725.322 445.682 731.873 456.041C732.896 457.619 733.879 459.21 735.127 461.186C736.548 459.86 737.783 458.693 739.018 457.46C763.775 431.559 791.865 410.075 824.019 394.054C843.058 384.572 863.466 378.119 884.502 374.931C898.195 372.809 911.781 374.599 925.262 377.45C936.963 379.93 947.946 384.081 957.376 391.495C974.854 405.327 980.977 424.066 979.263 445.471C976.833 475.973 962.33 501.078 942.66 523.491C910.613 559.961 869.998 582.745 823.647 595.728C811.083 599.243 798.067 601.166 785.251 603.818C784.148 604.057 783.046 604.322 781.266 604.733C782.727 605.423 783.537 605.847 784.374 606.192C796.208 611.152 801.706 620.289 801.64 632.849C801.64 643.458 798.426 653.484 794.999 663.444C791.387 674.053 786.738 684.424 784.733 695.272C781.412 713.256 780.403 731.637 784.852 749.646C786.403 755.18 789.025 760.357 792.569 764.884C797.297 771.17 803.539 771.674 810.113 767.285C817.537 762.338 822.89 755.349 827.485 747.922C838.659 730.019 849.523 711.934 860.077 693.668C874.395 668.788 889.641 644.599 908.195 622.571C917.492 611.576 928.024 602.068 940.721 595.079C945.635 592.227 951.145 590.554 956.817 590.191C962.489 589.827 968.167 590.783 973.406 592.983C994.949 601.444 999.969 621.43 995.506 638.578C991.363 654.585 983.553 668.908 973.566 681.825C955.915 704.874 937.268 727.141 919.405 749.965C908.288 764.168 897.889 778.915 887.131 793.411C879.255 804.02 870.822 814.258 863.544 825.239C853.291 840.716 846.663 857.665 847.327 876.642C847.46 880.276 848.841 883.923 849.983 887.451C850.422 888.962 851.419 890.25 852.773 891.055C854.126 891.86 855.735 892.122 857.275 891.788C862.654 890.833 868.205 889.878 873.212 887.729C883.585 883.247 893.52 877.743 903.839 873.141C918.448 866.603 932.62 867.478 945.662 877.12C957.23 885.714 959.102 898.724 950.709 910.381C942.009 922.462 929.95 929.067 915.38 931.056C898.58 933.415 881.453 931.334 865.709 925.022C856.357 921.213 848.214 914.943 842.148 906.88C835.148 897.915 833.807 887.385 834.245 876.457C835.268 851.485 845.348 829.828 858.523 809.139C876.254 781.289 896.68 755.548 917.784 730.284C933.974 710.908 950.589 691.824 964.149 670.473C970.856 659.863 977.006 648.975 979.476 636.509C980.352 632.725 980.626 628.827 980.286 624.958C978.613 611.563 968.399 604.68 955.184 607.585C946.419 609.508 939.021 614.03 932.288 619.759C917.931 632 906.894 647.026 897.172 662.98C880.916 689.649 865.111 716.611 849.027 743.387C842.267 754.646 834.816 765.441 825.187 774.446C821.615 777.871 817.626 780.834 813.314 783.265C804.641 787.986 795.344 786.475 788.079 779.724C779.579 771.767 775.98 761.317 773.749 750.336C771.19 737.594 770.849 724.508 772.74 711.651C774.572 698.866 777.003 686.108 777.879 673.191C779.208 653.431 770.907 640.832 752.778 632.769C749.976 631.522 747.067 630.488 744.358 629.082C741.816 627.846 739.415 626.339 737.199 624.586C734.413 622.262 732.41 619.139 731.459 615.641C730.509 612.142 730.658 608.436 731.886 605.025C733.64 600.41 736.827 596.922 741.741 596.299C762.022 593.646 780.257 585.689 797.788 575.716C831.456 556.5 861.538 533.026 885.444 502.338C902.484 480.482 915.088 456.438 919.976 428.867C921.836 419.725 921.786 410.298 919.83 401.176C916.762 388.086 910.533 383.073 895.206 384.731C864.885 387.98 838.097 400.208 813.008 416.944C790.125 432.235 770.269 451.094 750.268 469.806C746.283 473.56 745.261 476.437 746.894 482.047C752.196 500.014 752.604 519.067 748.076 537.243C742.286 560.783 735.14 583.925 721.155 604.057C709.268 621.152 694.725 636.031 679 649.757C664.869 662.091 650.738 674.451 637.138 687.368C630.172 694.246 623.718 701.621 617.827 709.436C607.985 721.982 608.53 736.026 612.939 750.442C616.829 762.369 623.258 773.313 631.785 782.523C640.272 792.018 649.21 801.089 657.591 810.717C667.709 821.898 674.309 835.803 676.57 850.702C679.89 873.327 667.605 891.509 644.934 895.793C625.092 899.586 608.304 892.875 594.784 878.34C581.752 864.326 572.998 846.889 569.549 828.077C562.524 791.342 565.366 755.574 583.149 721.916C590.055 708.703 599.168 696.763 610.097 686.612C624.826 673.006 639.993 659.876 655.253 646.946C674.246 630.926 692.6 614.348 707.05 593.898C726.547 566.38 737.597 536.09 736.681 502.059C736.535 496.927 734.928 491.821 734.025 486.702L732.736 486.662ZM722.284 472.485C721.033 471.452 719.701 470.52 718.3 469.7C695.376 457.91 672.041 455.523 648.347 467.287C637.39 472.79 628.731 480.747 623.657 492.073C622.703 493.834 622.188 495.8 622.157 497.802C623.485 512.39 634.721 524.538 651.561 522.231C659.296 521.154 666.724 518.495 673.382 514.42C685.994 506.739 697.752 497.741 708.458 487.577C713.279 483.002 717.503 477.724 722.284 472.485Z" fill="#F522ED"/>
</svg>
