<svg width="85" height="20" viewBox="0 0 85 20" fill="none" xmlns="http://www.w3.org/2000/svg">
<g clip-path="url(#clip0_8_436)">
<path d="M3.37002 0.480055C4.75118 0.43521 6.10159 0.893651 7.17001 1.77006C7.69847 2.23786 8.09791 2.83356 8.33001 3.50006C8.49241 3.9598 8.5802 4.44257 8.59002 4.93005V5.11006C8.56641 5.8757 8.32344 6.61847 7.89001 7.25006C8.21292 7.52332 8.50773 7.82818 8.77002 8.16006C9.2682 8.90075 9.54566 9.76776 9.57003 10.6601V10.9701C9.54706 11.8214 9.24882 12.6424 8.72003 13.3101C8.35884 13.7707 7.91865 14.1635 7.42001 14.4701C6.99051 14.7388 6.53485 14.9633 6.06003 15.1401C5.12532 15.4726 4.14205 15.6483 3.15002 15.6601C2.66005 15.7285 2.16076 15.6512 1.71441 15.4378C1.26807 15.2244 0.8944 14.8844 0.640012 14.4601C0.472661 14.0765 0.371249 13.6674 0.340024 13.2501C0.065835 10.8301 -0.0577315 8.39537 -0.0299711 5.96005C-0.131625 4.56406 0.00361016 3.16093 0.370023 1.81006C0.563154 1.40616 0.882608 1.07618 1.28003 0.870055C1.94381 0.602324 2.65435 0.469736 3.37002 0.480055V0.480055ZM3.37002 3.81006C3.37002 4.47006 3.31003 5.29005 3.31003 6.26005V6.33006C4.67003 5.99006 5.31003 5.56006 5.31003 5.05006C5.31003 4.54006 4.88003 4.05006 4.03003 3.86006C3.81222 3.82165 3.59113 3.8049 3.37002 3.81006ZM3.37002 9.65005C3.37002 10.0767 3.43002 10.9967 3.55002 12.4101C4.17348 12.3705 4.78404 12.2145 5.35003 11.9501C5.99003 11.6301 6.35003 11.2901 6.35003 10.9501V10.8101C6.3703 10.5175 6.27804 10.2283 6.09216 10.0016C5.90628 9.7748 5.64083 9.6276 5.35003 9.59006C5.05015 9.53187 4.7455 9.50174 4.44003 9.50006C4.08144 9.50794 3.72386 9.54134 3.37002 9.60005V9.65005Z" fill="white"/>
<path d="M15.7 4.17993H16.08C16.9548 4.21356 17.7944 4.53324 18.4701 5.08994C18.7455 5.26523 18.9782 5.49988 19.1512 5.77672C19.3242 6.05355 19.4332 6.36558 19.4701 6.68994V6.80994C19.458 7.12284 19.3578 7.42595 19.1808 7.6843C19.0039 7.94264 18.7575 8.14568 18.4701 8.26994C18.2746 8.34282 18.0685 8.38334 17.86 8.38994H17.7601C17.4902 8.37367 17.2271 8.29909 16.9889 8.17134C16.7506 8.04359 16.5429 7.8657 16.3801 7.64993C16.2281 7.53319 16.0417 7.46992 15.8501 7.46994C15.7124 7.47405 15.5787 7.51647 15.4639 7.59244C15.349 7.6684 15.2577 7.77489 15.2 7.89993C14.9502 8.27453 14.7612 8.68629 14.64 9.11993C14.2515 10.6015 14.0631 12.1284 14.08 13.6599C14.08 13.9099 14.08 14.0799 14.08 14.1699C14.0477 14.5124 13.9117 14.8368 13.6901 15.0999C13.5435 15.2772 13.3604 15.4207 13.1533 15.5208C12.9462 15.6209 12.72 15.6752 12.4901 15.6799H12.3801C12.0677 15.6709 11.7645 15.5717 11.5073 15.3942C11.25 15.2168 11.0495 14.9687 10.9301 14.6799C10.764 14.1022 10.7064 13.4987 10.7601 12.8999C10.6201 8.45993 10.55 6.06993 10.55 5.72993C10.5657 5.48134 10.6378 5.23958 10.7608 5.02299C10.8838 4.80641 11.0546 4.62069 11.2601 4.47993C11.5203 4.2937 11.8302 4.18926 12.1501 4.17993H12.2201C12.4776 4.18764 12.7299 4.25484 12.9572 4.37628C13.1844 4.49772 13.3805 4.67011 13.5301 4.87994C14.1626 4.42583 14.9214 4.18104 15.7 4.17993V4.17993Z" fill="white"/>
<path d="M25.6701 3.55992C26.9352 3.57719 28.1862 3.82807 29.3601 4.29993C29.6473 4.4358 29.8895 4.65124 30.0579 4.92067C30.2263 5.1901 30.3138 5.50221 30.3101 5.81992V5.97992C30.6208 6.39239 30.7669 6.90567 30.7201 7.41992C30.7464 7.64583 30.7464 7.87401 30.7201 8.09992C30.7201 8.54992 30.7201 8.99992 30.7201 9.45992C30.7801 12.0799 30.8101 13.5699 30.8101 13.9199C30.8024 14.1711 30.7371 14.4172 30.6192 14.6391C30.5013 14.8611 30.334 15.0529 30.1301 15.1999C29.838 15.4065 29.4879 15.515 29.1301 15.5099C28.8949 15.5082 28.6626 15.4565 28.4488 15.3582C28.235 15.26 28.0446 15.1174 27.8901 14.9399V14.9399C27.0101 15.4037 26.0346 15.657 25.0401 15.6799H24.7601C23.6783 15.6799 22.6256 15.329 21.7601 14.6799C21.1274 14.1226 20.6293 13.4289 20.3037 12.6512C19.978 11.8734 19.8332 11.0318 19.8801 10.1899C19.8228 9.24537 19.9601 8.2991 20.2835 7.40978C20.6068 6.52045 21.1095 5.70703 21.7601 5.01993C22.8304 4.05382 24.2285 3.53175 25.6701 3.55992V3.55992ZM23.1401 10.0999C23.1401 11.2099 23.4401 11.9199 24.0201 12.2099C24.2922 12.3368 24.5901 12.3984 24.8901 12.3899V12.3899C25.5518 12.4014 26.1976 12.1861 26.7201 11.7799C26.8674 11.5901 26.9823 11.3772 27.0601 11.1499C27.283 10.5059 27.4044 9.8312 27.4201 9.14992C27.4201 8.86992 27.4201 8.20325 27.4201 7.14992C26.8482 6.98262 26.256 6.89513 25.6601 6.88992C25.226 6.8363 24.7859 6.92161 24.4033 7.13361C24.0206 7.34561 23.7149 7.67339 23.5301 8.06992C23.2732 8.71592 23.1409 9.4047 23.1401 10.0999V10.0999Z" fill="white"/>
<path d="M37.6801 4.10001H38.14C38.8552 4.12932 39.5479 4.35792 40.14 4.76001C40.4795 4.98261 40.7858 5.25193 41.05 5.56002C41.5299 6.11306 41.9089 6.74598 42.17 7.43001C42.9009 9.47506 43.2401 11.6394 43.17 13.81C43.2028 14.1364 43.1399 14.4652 42.989 14.7564C42.838 15.0476 42.6056 15.2886 42.3201 15.45C42.0944 15.5976 41.8297 15.6742 41.5601 15.67H41.4701C41.158 15.6597 40.8554 15.56 40.5984 15.3827C40.3413 15.2055 40.1406 14.9581 40.0201 14.67C39.9394 14.4795 39.8921 14.2765 39.8801 14.07C39.8801 13.94 39.8801 13.81 39.8801 13.7C39.9047 12.0784 39.6787 10.4627 39.2101 8.91002C38.8301 7.91002 38.3801 7.35001 37.8701 7.35001C37.716 7.35634 37.5674 7.40817 37.4428 7.49894C37.3182 7.58971 37.2233 7.71536 37.17 7.86002C36.9328 8.23278 36.7572 8.64135 36.6501 9.07001C36.2582 10.5575 36.0731 12.092 36.1001 13.63V13.98C36.091 14.2924 35.9918 14.5955 35.8143 14.8528C35.6369 15.1101 35.3889 15.3105 35.1001 15.43C34.9064 15.5102 34.6996 15.5542 34.4901 15.56H34.3801C34.0806 15.5509 33.7893 15.4605 33.5374 15.2984C33.2855 15.1363 33.0824 14.9087 32.95 14.64C32.7953 14.2426 32.7337 13.815 32.7701 13.39C32.6301 8.69002 32.55 6.12002 32.55 5.66002C32.5631 5.39708 32.6401 5.14127 32.7742 4.91475C32.9084 4.68824 33.0957 4.49783 33.3201 4.36002C33.5665 4.19642 33.8543 4.10624 34.1501 4.10001H34.2401C34.4925 4.10842 34.7398 4.17398 34.9632 4.29177C35.1866 4.40955 35.3805 4.5765 35.5301 4.78002C36.1544 4.32702 36.9087 4.08844 37.6801 4.10001V4.10001Z" fill="white"/>
<path d="M52.6999 0.389893H52.7999C53.112 0.40018 53.4145 0.499892 53.6716 0.67717C53.9287 0.854448 54.1294 1.10183 54.2499 1.38989C54.3307 1.58091 54.3813 1.78332 54.3999 1.98988C54.3999 4.21655 54.3999 8.24989 54.3999 14.0899C54.3614 14.3897 54.2554 14.6769 54.0899 14.9299C53.855 15.2362 53.5239 15.4546 53.1499 15.5499C52.5236 15.6663 51.8867 15.7165 51.2499 15.6999C49.2658 15.8379 47.3014 15.2318 45.7399 13.9999C45.3325 13.664 44.993 13.2533 44.7399 12.7899C44.3559 12.1014 44.1497 11.3281 44.1399 10.5399V10.0499C44.1486 8.94621 44.4788 7.86898 45.0899 6.94989C45.3775 6.52299 45.713 6.13043 46.0899 5.77989C47.0724 4.97985 48.2309 4.42462 49.4699 4.1599C49.969 4.0334 50.4772 3.94645 50.9899 3.89989V2.00989C50.999 1.69749 51.0982 1.39439 51.2756 1.13712C51.453 0.879838 51.7011 0.679369 51.9899 0.559891C52.2116 0.452774 52.4537 0.394788 52.6999 0.389893V0.389893ZM47.5099 10.2799C47.4994 10.7202 47.6534 11.1487 47.9418 11.4816C48.2303 11.8144 48.6325 12.0278 49.0699 12.0799C49.7183 12.2762 50.3925 12.374 51.0699 12.3699V12.0699C51.0699 10.9199 51.0699 9.28989 51.0699 7.16989C50.126 7.27605 49.2245 7.62013 48.4499 8.16989C48.1363 8.42118 47.8874 8.74379 47.7239 9.11084C47.5604 9.47789 47.487 9.87872 47.5099 10.2799V10.2799Z" fill="white"/>
<path d="M57.9 0H58.03C58.3192 0.00780919 58.6021 0.0855716 58.8546 0.226639C59.1072 0.367706 59.3218 0.567873 59.48 0.809998C59.6821 1.10492 59.7933 1.45256 59.8 1.81V2.02C59.781 2.44429 59.6189 2.84963 59.34 3.17C59.1605 3.37471 58.9411 3.54062 58.6952 3.65755C58.4493 3.77447 58.1821 3.83995 57.91 3.84999H57.77C57.3403 3.83369 56.9299 3.66741 56.61 3.38C56.4381 3.22097 56.2993 3.02957 56.2015 2.81679C56.1037 2.60401 56.0488 2.37402 56.04 2.14V1.94C56.0582 1.46859 56.2423 1.01875 56.56 0.669998C56.7243 0.471052 56.9284 0.308669 57.1592 0.193283C57.39 0.0778971 57.6423 0.0120622 57.9 0V0ZM58.07 4.23H58.19C58.4887 4.23706 58.7797 4.32556 59.0317 4.48593C59.2837 4.6463 59.4871 4.87247 59.62 5.14C59.75 5.45645 59.8048 5.79877 59.78 6.14C59.9 10.67 59.96 13.35 59.97 14.14C59.9534 14.3872 59.8819 14.6277 59.7609 14.8439C59.6398 15.0601 59.4721 15.2466 59.27 15.39C59.0056 15.5666 58.6977 15.6669 58.38 15.68H58.29C58.0176 15.674 57.751 15.5994 57.515 15.4631C57.279 15.3267 57.0813 15.1331 56.94 14.9C56.7229 14.5142 56.632 14.0701 56.68 13.63C56.56 8.67 56.5 6.04666 56.5 5.75999C56.5124 5.52285 56.5771 5.29139 56.6895 5.0822C56.8019 4.87301 56.9592 4.69127 57.15 4.55C57.4186 4.35536 57.7386 4.24406 58.07 4.23V4.23Z" fill="white"/>
<path d="M66.93 4.10011H67.37C68.0852 4.12942 68.7779 4.35802 69.37 4.76012C69.7094 4.98271 70.0158 5.25203 70.28 5.56012C70.7598 6.11316 71.1389 6.74608 71.4 7.43012C72.1309 9.47516 72.4701 11.6395 72.4 13.8101C72.4328 14.1365 72.3698 14.4653 72.2189 14.7565C72.068 15.0477 71.8356 15.2887 71.55 15.4501C71.3274 15.5964 71.0663 15.6729 70.8 15.6701H70.7C70.3879 15.6598 70.0854 15.5601 69.8283 15.3828C69.5713 15.2056 69.3705 14.9582 69.25 14.6701C69.1694 14.4796 69.122 14.2766 69.11 14.0701C69.11 13.9401 69.11 13.8101 69.11 13.7001C69.1346 12.0785 68.9087 10.4628 68.44 8.91013C68.06 7.91013 67.61 7.35011 67.1 7.35011C66.946 7.35644 66.7973 7.40827 66.6727 7.49904C66.5481 7.58981 66.4533 7.71546 66.4 7.86012C66.167 8.23508 65.9917 8.64298 65.88 9.07011C65.4931 10.5586 65.3081 12.0923 65.33 13.6301V13.9801C65.321 14.2925 65.2217 14.5956 65.0443 14.8529C64.8669 15.1102 64.6188 15.3106 64.33 15.4301C64.1363 15.5103 63.9296 15.5543 63.72 15.5601H63.61C63.3106 15.551 63.0193 15.4606 62.7674 15.2985C62.5155 15.1364 62.3124 14.9088 62.18 14.6401C62.0253 14.2427 61.9637 13.8151 62 13.3901C61.86 8.69012 61.79 6.12013 61.79 5.66013C61.8012 5.3979 61.8762 5.14237 62.0087 4.91579C62.1411 4.68921 62.327 4.49845 62.55 4.36012C62.7964 4.19652 63.0843 4.10634 63.38 4.10011H63.47C63.7225 4.10852 63.9697 4.17409 64.1932 4.29187C64.4166 4.40966 64.6104 4.5766 64.76 4.78012C65.3899 4.32298 66.1519 4.08418 66.93 4.10011V4.10011Z" fill="white"/>
<path d="M78.9601 3.73988C80.343 3.76463 81.7054 4.07801 82.9601 4.65989C83.19 4.7903 83.3893 4.96844 83.5445 5.18234C83.6998 5.39623 83.8074 5.6409 83.8601 5.89988C84.0723 6.09955 84.2217 6.3567 84.2901 6.63989C84.3608 7.12327 84.3942 7.61137 84.3901 8.09988C84.3901 8.47988 84.3901 8.92988 84.3901 9.44988C84.3901 12.0699 84.4701 13.6699 84.4701 14.2699C84.5213 15.702 84.0918 17.1101 83.2501 18.2699C82.963 18.6262 82.6262 18.9393 82.2501 19.1999C81.487 19.6905 80.5973 19.9477 79.6901 19.9399H79.5301C78.8466 19.9488 78.1677 19.8266 77.5301 19.5799C77.2587 19.4433 77.0305 19.234 76.8711 18.9753C76.7117 18.7166 76.6273 18.4187 76.6273 18.1149C76.6273 17.811 76.7117 17.5131 76.8711 17.2544C77.0305 16.9958 77.2587 16.7865 77.5301 16.6499C77.7661 16.5445 78.0217 16.4899 78.2801 16.4899C78.6161 16.5247 78.95 16.5781 79.2801 16.6499H79.6301C79.9688 16.673 80.3035 16.5657 80.5656 16.3501C80.8278 16.1344 80.9975 15.8266 81.0401 15.4899C81.0855 15.3752 81.1092 15.2532 81.1101 15.1299V15.1299C80.3674 15.4401 79.5745 15.6129 78.7701 15.6399H78.3501C77.4703 15.6199 76.6114 15.3681 75.8601 14.9099C75.0884 14.3751 74.4695 13.6483 74.0644 12.8013C73.6593 11.9543 73.482 11.0163 73.5501 10.0799C73.4758 8.45306 73.9553 6.8491 74.9101 5.52989C75.4024 4.94056 76.0238 4.47254 76.7262 4.16212C77.4285 3.8517 78.1929 3.70721 78.9601 3.73988V3.73988ZM76.7601 10.1399C76.7601 11.6299 77.3201 12.3799 78.4401 12.3799H78.5701C79.2165 12.393 79.8491 12.1926 80.3701 11.8099C80.5747 11.5039 80.7268 11.1659 80.8201 10.8099C80.9692 10.2583 81.0531 9.69105 81.0701 9.11988C81.0701 8.68988 81.0701 8.11989 81.0701 7.41989C80.3971 7.15639 79.6827 7.0142 78.9601 6.99989C78.584 6.95395 78.2032 7.03278 77.8762 7.22428C77.5492 7.41578 77.2941 7.70935 77.1501 8.05989C76.891 8.72266 76.7587 9.42824 76.7601 10.1399Z" fill="white"/>
</g>
<defs>
<clipPath id="clip0_8_436">
<rect width="84.42" height="19.96" fill="white"/>
</clipPath>
</defs>
</svg>
