<svg width="200" height="19" viewBox="0 0 200 19" fill="none" xmlns="http://www.w3.org/2000/svg">
<g clip-path="url(#clip0_16_565)">
<path d="M8.33991 0.0273438H8.60226C9.59419 0.0326184 10.5765 0.219461 11.4994 0.578389C11.8465 0.755023 12.138 1.02186 12.3427 1.3501C12.5473 1.67834 12.6572 2.05552 12.6605 2.44092C12.6518 2.81441 12.5402 3.1785 12.3376 3.49404C12.135 3.80958 11.8491 4.06465 11.5106 4.23181C11.2139 4.37138 10.8903 4.44654 10.5616 4.45223C10.1526 4.40761 9.7489 4.32458 9.35588 4.20426C9.05309 4.15533 8.74715 4.12771 8.44039 4.1216C7.32199 4.11774 6.23904 4.50862 5.38693 5.22369C4.7721 6.00208 4.38587 6.93234 4.27048 7.91279C4.17042 8.51761 4.12 9.12942 4.11975 9.74225V9.80287C4.11975 11.7205 4.50306 13.2083 5.26969 14.2663C5.55438 14.5749 5.7944 14.7237 5.98419 14.7237C6.41004 14.8476 6.85209 14.9089 7.29604 14.9055H7.34626C8.68599 14.9055 9.5066 14.1929 9.80804 12.7675C9.85126 12.4827 9.87737 12.1957 9.8862 11.9079C9.8793 11.8198 9.8793 11.7314 9.8862 11.6434C9.84191 11.6354 9.79649 11.6354 9.7522 11.6434H9.60709C9.11978 11.6672 8.63669 11.7449 8.16686 11.8748C8.07774 11.8829 7.98805 11.8829 7.89893 11.8748C7.55265 11.8718 7.21267 11.783 6.91028 11.6164C6.60789 11.4498 6.35278 11.2108 6.16842 10.9215C5.95829 10.5909 5.84437 10.2096 5.83908 9.8194C5.85056 9.46867 5.95114 9.12641 6.13159 8.82407C6.31204 8.52173 6.56656 8.26901 6.87178 8.08912C7.24708 7.90314 7.64752 7.77138 8.0608 7.69788C8.50179 7.60693 8.95016 7.55529 9.40051 7.54359H9.81918C10.8656 7.54099 11.8789 7.90629 12.6773 8.57404C13.1383 8.99926 13.5006 9.51783 13.7396 10.0942C13.9785 10.6706 14.0884 11.2911 14.0617 11.9134C14.1174 13.8114 13.4319 15.658 12.147 17.0711C11.6715 17.579 11.1034 17.994 10.4723 18.2945C9.5594 18.768 8.54502 19.0193 7.51375 19.0273H7.10064C6.06582 18.998 5.04479 18.7852 4.08626 18.3992C2.66093 17.7563 1.57611 16.4999 0.83181 14.63C0.284445 13.1484 0.00298463 11.5838 6.37957e-05 10.0068V9.54939C-0.0130194 7.67285 0.390944 5.8163 1.18349 4.11058C1.96562 2.55778 3.31061 1.35203 4.9515 0.732681C6.02229 0.277726 7.17419 0.0379457 8.33991 0.0273438Z" fill="white"/>
<path d="M22.1278 0.0273438H22.3679C23.7059 0.0576544 24.9858 0.573602 25.9628 1.47659C26.4839 1.9631 26.9331 2.51961 27.297 3.12972C28.5399 5.24274 29.1712 7.65202 29.1224 10.0949C29.1224 12.9603 28.3911 15.2655 26.9285 17.0105C26.3863 17.6413 25.7115 18.148 24.9509 18.4953C24.1903 18.8426 23.3622 19.0223 22.5242 19.0218H22.3958C20.851 19.0109 19.357 18.4759 18.1644 17.5065C17.7017 17.1266 17.2924 16.6874 16.9475 16.2005C16.5152 15.6316 16.1605 15.0091 15.8925 14.349C15.327 12.91 15.0393 11.3793 15.044 9.83593C14.9793 7.25143 15.7625 4.71549 17.2769 2.60623C17.6875 2.09594 18.1578 1.63537 18.678 1.23413C19.6674 0.477647 20.8767 0.0546357 22.1278 0.0273438ZM19.2083 9.81389C19.1429 11.2489 19.546 12.6667 20.3582 13.8585C20.606 14.1865 20.9289 14.4518 21.3005 14.6329C21.6721 14.8139 22.0819 14.9054 22.4963 14.9C23.6871 14.9 24.4724 13.809 24.852 11.6268C24.927 11.1121 24.9662 10.5929 24.9692 10.0729C25.0094 8.36772 24.5894 6.6827 23.7523 5.19063C23.2778 4.47978 22.7642 4.1216 22.206 4.1216C21.1342 4.1216 20.2578 5.10246 19.5879 7.05867C19.3341 7.95556 19.2063 8.88265 19.2083 9.81389Z" fill="white"/>
<path d="M38.8467 0.0273438C47.2796 0.155921 51.4979 0.238578 51.5016 0.275314C52.0142 0.381674 52.4727 0.662551 52.7967 1.06882C53.0455 1.43241 53.1831 1.85898 53.193 2.29765C53.1913 2.66231 53.0898 3.01974 52.8992 3.3321C52.7085 3.64445 52.4359 3.90011 52.1101 4.07201C51.8255 4.22751 51.5084 4.31614 51.1834 4.331L47.0582 4.26487V16.9058C47.0659 17.3226 46.9451 17.7318 46.7118 18.0792C46.4785 18.4266 46.1438 18.6958 45.7519 18.851C45.5008 18.9394 45.237 18.9878 44.9704 18.9943C44.5838 18.9906 44.2057 18.8809 43.8785 18.6776C43.5513 18.4742 43.2877 18.1852 43.1171 17.8426C42.9789 17.5491 42.9065 17.2295 42.905 16.9058V4.18773C39.8943 4.15466 38.389 4.11242 38.389 4.06099C37.8803 3.92379 37.4409 3.60586 37.1553 3.1683C36.9438 2.83831 36.8298 2.45666 36.8259 2.06621C36.8306 1.69667 36.937 1.33535 37.1337 1.02087C37.3303 0.706396 37.6098 0.450596 37.9424 0.280826C38.2222 0.133941 38.5304 0.0475313 38.8467 0.0273438Z" fill="white"/>
<path d="M59.5346 0.0273438H59.7746C61.1129 0.0566217 62.3931 0.572714 63.3695 1.47659C63.8924 1.96152 64.3417 2.51829 64.7037 3.12972C65.9465 5.24274 66.578 7.65202 66.5291 10.0949C66.5291 12.9603 65.7978 15.2656 64.3353 17.0105C63.7935 17.6419 63.1188 18.1489 62.3581 18.4963C61.5974 18.8437 60.769 19.023 59.9309 19.0218H59.7969C58.2523 19.01 56.7586 18.4751 55.5656 17.5065C55.1028 17.1266 54.6935 16.6874 54.3486 16.2005C53.9205 15.6289 53.5661 15.007 53.2936 14.349C52.7282 12.91 52.4404 11.3793 52.4451 9.83593C52.3804 7.25143 53.1636 4.7155 54.678 2.60623C55.09 2.09712 55.5601 1.6367 56.0792 1.23413C57.0701 0.476536 58.2815 0.0534614 59.5346 0.0273438ZM56.615 9.81389C56.5524 11.2486 56.9552 12.6655 57.765 13.8586C58.0139 14.1866 58.3378 14.4519 58.7103 14.6329C59.0828 14.8139 59.4934 14.9054 59.9086 14.9C61.0957 14.9 61.8791 13.809 62.2586 11.6268C62.3337 11.1121 62.3729 10.5929 62.3759 10.0729C62.4178 8.36823 61.9997 6.68324 61.1646 5.19063C60.6845 4.47978 60.1709 4.1216 59.6183 4.1216C58.5428 4.1216 57.6701 5.10062 57.0002 7.05867C56.7446 7.95532 56.6149 8.8824 56.615 9.81389Z" fill="white"/>
<path d="M76.3257 0.236821C76.7113 0.245138 77.0872 0.357339 77.4129 0.561295C77.7385 0.76525 78.0015 1.0532 78.1734 1.39401C78.3084 1.70025 78.3805 2.0299 78.3855 2.36385V16.9059C78.3937 17.307 78.2814 17.7016 78.0629 18.0399C77.8443 18.3782 77.5293 18.6451 77.1574 18.807C76.8857 18.9363 76.5882 19.0041 76.2866 19.0054C75.925 19.003 75.5705 18.9065 75.2588 18.7256C74.9471 18.5447 74.6893 18.2857 74.5115 17.9749C74.3267 17.6485 74.2323 17.2798 74.2379 16.9059V2.32528C74.2275 1.90729 74.3471 1.49618 74.5806 1.14737C74.8142 0.798573 75.1505 0.528853 75.5442 0.374582C75.7943 0.282949 76.0589 0.236292 76.3257 0.236821Z" fill="white"/>
<path d="M92.1068 0C92.4582 0.00138718 92.8032 0.0924339 93.1084 0.264299C93.4135 0.436164 93.6685 0.683008 93.8485 0.980859C94.0774 1.2123 94.1946 1.89008 94.1946 3.01421C94.2727 5.80984 94.3118 8.35015 94.3118 10.6352V10.9327C94.3118 14.8084 94.1443 16.9924 93.8094 17.4846C93.6598 17.8296 93.4235 18.1312 93.1228 18.3608C92.7451 18.6624 92.2744 18.8276 91.7886 18.8292C90.8694 18.8292 90.0284 18.2065 89.2655 16.9611C88.1118 15.1831 86.8093 12.9955 85.3579 10.3982C85.3579 10.3982 85.0453 9.90226 84.4759 8.89936H84.448C84.448 9.63409 84.5634 12.3305 84.7941 16.9887C84.7881 17.3256 84.6978 17.6559 84.5313 17.9501C84.3648 18.2443 84.1271 18.4933 83.8396 18.6749C83.504 18.8808 83.1182 18.9931 82.7231 19C82.3463 18.9965 81.9775 18.8922 81.656 18.6981C81.3346 18.504 81.0725 18.2275 80.8977 17.8979C80.6513 17.2896 80.552 16.6331 80.6075 15.9803C80.3618 11.5719 80.239 8.01034 80.239 5.29553C80.239 2.96462 80.4065 1.60905 80.7526 1.23434C80.9401 0.894321 81.2231 0.614968 81.5676 0.429815C81.9079 0.239417 82.2929 0.140606 82.684 0.143273C83.5995 0.143273 84.4145 0.738399 85.129 1.92865C85.6314 2.66338 86.5879 4.24304 87.9983 6.66763C89.1148 8.66241 89.846 9.90777 90.1642 10.4147C90.1642 8.21056 90.1158 5.40207 90.0191 1.98927C90.0418 1.51667 90.2269 1.06579 90.5438 0.710847C90.7396 0.491137 90.9798 0.314363 91.249 0.191927C91.5182 0.0694911 91.8104 0.00411033 92.1068 0Z" fill="white"/>
<path d="M101.373 0.065918H101.931H102.194C103.923 0.147046 105.625 0.531424 107.218 1.20107C107.646 1.32559 108.024 1.57783 108.301 1.92317C108.578 2.2685 108.74 2.68999 108.764 3.12972V3.20687C108.757 3.53288 108.672 3.85261 108.516 4.13993C108.36 4.42724 108.137 4.67399 107.865 4.86C107.538 5.08869 107.15 5.21537 106.749 5.22369H106.693C106.126 5.16451 105.575 5.00195 105.069 4.74428C104.112 4.38747 103.104 4.18467 102.082 4.14365H101.898H101.753C100.934 4.16936 100.454 4.4559 100.313 5.00327C100.261 5.1831 100.229 5.36783 100.218 5.55432V5.72514C100.24 6.2321 101.58 6.96683 104.237 7.92932C105.153 8.30538 106.03 8.76861 106.855 9.31244C107.485 9.72861 108.01 10.2818 108.389 10.9295C108.768 11.5772 108.992 12.3021 109.043 13.0485V13.3902C109.01 14.3784 108.736 15.3442 108.245 16.206C107.942 16.7301 107.549 17.1982 107.084 17.5891C106.302 18.2274 105.372 18.663 104.376 18.8565C104.008 18.9313 103.635 18.9792 103.26 18.9998L102.702 19.0273H102.384C100.783 18.9648 99.1995 18.6734 97.6834 18.1622C97.2753 18.0533 96.9024 17.8427 96.6005 17.5505C96.2544 17.1802 96.0561 16.6986 96.0422 16.195V16.0903C96.0453 15.7647 96.1275 15.4446 96.282 15.157C96.4364 14.8693 96.6586 14.6224 96.9298 14.4371C97.2611 14.2171 97.6474 14.0913 98.0463 14.0735C98.6048 14.132 99.1529 14.2636 99.6763 14.4647C100.604 14.7288 101.563 14.8733 102.529 14.8945H102.73H102.858C103.802 14.8615 104.404 14.608 104.672 14.1396C104.808 13.8702 104.885 13.5752 104.896 13.2744V13.2359C104.896 12.7565 103.662 12.0732 101.245 11.175C100.226 10.7784 99.2519 10.2798 98.3365 9.68715C97.7901 9.31733 97.3202 8.84788 96.9521 8.30403C96.4305 7.59804 96.1279 6.75758 96.0813 5.88494V5.65351C96.0798 4.41002 96.4699 3.19683 97.1978 2.18193C97.5189 1.75619 97.9071 1.38409 98.3477 1.07984C99.2381 0.464841 100.288 0.113124 101.373 0.065918Z" fill="white"/>
<path d="M111.605 0.0273438C120.038 0.155921 124.255 0.238578 124.255 0.275314C124.767 0.381674 125.226 0.662551 125.55 1.06882C125.801 1.43129 125.939 1.85857 125.946 2.29765C125.945 2.66231 125.843 3.01974 125.652 3.3321C125.462 3.64445 125.189 3.90011 124.863 4.07201C124.579 4.22751 124.262 4.31614 123.937 4.331L119.811 4.26487V16.9058C119.819 17.3226 119.698 17.7318 119.465 18.0792C119.232 18.4266 118.897 18.6958 118.505 18.851C118.254 18.94 117.99 18.9883 117.724 18.9943C117.338 18.9908 116.96 18.8812 116.634 18.6778C116.307 18.4743 116.045 18.1851 115.876 17.8426C115.738 17.5491 115.665 17.2295 115.664 16.9058V4.18773C112.649 4.15466 111.142 4.11242 111.142 4.06099C110.634 3.92546 110.196 3.60697 109.914 3.1683C109.7 2.83944 109.586 2.45705 109.585 2.06621C109.589 1.69654 109.695 1.33497 109.892 1.02039C110.088 0.705806 110.368 0.450119 110.701 0.280826C110.981 0.133941 111.289 0.0475313 111.605 0.0273438Z" fill="white"/>
<path d="M130.273 0.0771484C131.534 0.0771484 132.505 1.04148 133.231 2.96462C134.247 5.51044 135.432 9.70756 136.787 15.556C136.929 16.0135 137.023 16.4845 137.066 16.9611C137.061 17.3438 136.948 17.7175 136.74 18.0406C136.532 18.3636 136.237 18.6233 135.888 18.7906C135.602 18.9204 135.293 18.9916 134.978 19C134.611 18.9943 134.252 18.8936 133.936 18.7079C133.621 18.5223 133.361 18.2582 133.181 17.942C132.901 17.2037 132.697 16.4394 132.572 15.6607C132.502 15.3063 132.408 14.9566 132.293 14.6137H132.265C131.96 14.6137 130.455 14.6835 127.749 14.8231C127.71 14.8561 127.476 15.6937 127.035 17.3303C126.867 17.8169 126.523 18.2251 126.069 18.4765C125.762 18.6341 125.422 18.719 125.075 18.7245C124.729 18.7236 124.388 18.6356 124.085 18.4688C123.783 18.302 123.528 18.062 123.345 17.7712C123.132 17.4419 123.018 17.0598 123.016 16.6691C123.016 16.1842 123.892 13.0616 125.645 7.30134C126.65 4.17875 127.517 2.12152 128.246 1.12964C128.48 0.81264 128.784 0.552854 129.135 0.370359C129.486 0.187865 129.876 0.0875444 130.273 0.0771484ZM128.95 10.6076C128.951 10.626 128.951 10.6444 128.95 10.6627C130.211 10.58 130.976 10.5415 131.249 10.5415C131.253 10.5289 131.253 10.5155 131.249 10.5029C130.847 9.03345 130.494 7.80646 130.189 6.82193C130.15 6.82193 129.826 7.79177 129.206 9.72042C129.139 10.0211 129.054 10.3174 128.95 10.6076Z" fill="white"/>
<path d="M145.897 0.0273438H146.16C147.15 0.0331715 148.13 0.220006 149.051 0.578389C149.397 0.75107 149.689 1.01276 149.896 1.33577C150.103 1.65878 150.218 2.03111 150.229 2.41337C150.223 2.79245 150.112 3.16262 149.907 3.48335C149.702 3.80408 149.412 4.06302 149.068 4.23181C148.769 4.3715 148.444 4.44665 148.113 4.45223C147.706 4.4074 147.304 4.32437 146.913 4.20426C146.61 4.16112 146.304 4.13903 145.998 4.13813C144.879 4.13525 143.797 4.526 142.944 5.24022C142.332 6.01989 141.946 6.94951 141.828 7.92932C141.732 8.5346 141.684 9.1462 141.683 9.75878V9.8194C141.683 11.737 142.066 13.2249 142.833 14.2829C143.112 14.5914 143.352 14.7402 143.547 14.7402C143.971 14.8643 144.411 14.9256 144.853 14.9221H144.909C146.249 14.9221 147.064 14.2112 147.365 12.784C147.409 12.4992 147.435 12.2122 147.443 11.9244C147.443 11.8638 147.443 11.7756 147.443 11.6599C147.399 11.6519 147.354 11.6519 147.309 11.6599H147.164C146.677 11.6846 146.194 11.7622 145.724 11.8913C145.637 11.8995 145.549 11.8995 145.462 11.8913C145.115 11.8894 144.775 11.801 144.472 11.6343C144.17 11.4676 143.915 11.2281 143.731 10.938C143.517 10.6089 143.401 10.227 143.396 9.83593C143.404 9.48214 143.503 9.13612 143.683 8.83049C143.864 8.52486 144.121 8.26972 144.429 8.08912C144.804 7.90314 145.205 7.77138 145.618 7.69788C146.057 7.6067 146.504 7.55506 146.952 7.54359H147.376C148.418 7.53363 149.429 7.88906 150.229 8.54649C150.691 8.97143 151.054 9.48981 151.294 10.0662C151.534 10.6425 151.645 11.2632 151.619 11.8858C151.672 13.7834 150.987 15.629 149.704 17.0436C149.227 17.5499 148.66 17.9647 148.03 18.2669C147.114 18.7399 146.098 18.9911 145.065 18.9998H144.658C143.623 18.9792 142.6 18.7757 141.638 18.3992C140.22 17.771 139.137 16.5146 138.389 14.63C137.837 13.1494 137.554 11.5844 137.552 10.0068V9.54939C137.54 7.67243 137.946 5.81587 138.741 4.11058C139.523 2.55778 140.868 1.35203 142.509 0.732681C143.58 0.277867 144.731 0.0380928 145.897 0.0273438Z" fill="white"/>
<path d="M158.256 0.0273438H158.557C161.661 0.0273438 163.918 0.945752 165.329 2.78257C166.03 3.80074 166.398 5.00655 166.384 6.23761C166.384 8.4124 165.34 10.161 163.252 11.4836C162.821 11.7402 162.376 11.972 161.918 12.1779C162.305 12.4974 162.716 12.7884 163.146 13.0485C164.583 14.033 165.375 14.5841 165.524 14.7016C165.738 14.8928 165.91 15.1257 166.028 15.3856C166.146 15.6454 166.208 15.9267 166.211 16.2115C166.212 16.5572 166.124 16.8974 165.955 17.2002C165.786 17.503 165.542 17.7582 165.245 17.9418C164.91 18.1497 164.524 18.2623 164.129 18.2669C163.492 18.2156 162.892 17.9534 162.426 17.523L157.173 13.8696H157.134C157.134 14.7843 157.162 15.5227 157.162 16.0737V16.6634C157.207 17.1405 157.091 17.619 156.83 18.0232C156.569 18.4274 156.179 18.7342 155.722 18.8951C155.507 18.9555 155.286 18.9906 155.063 18.9998C154.71 18.9984 154.364 18.9061 154.059 18.7321C153.753 18.5582 153.499 18.3085 153.321 18.0079C153.144 17.723 153.041 17.3994 153.02 17.0656C153.02 16.9407 153.02 16.8195 153.02 16.7019C152.979 8.91752 152.96 4.14181 152.964 2.37479C152.974 2.02444 153.074 1.68232 153.255 1.3806C153.435 1.07887 153.691 0.827469 153.997 0.650024C154.442 0.441203 154.919 0.308888 155.409 0.258783C156.351 0.115821 157.303 0.0384832 158.256 0.0273438ZM157.106 4.18773C157.106 6.25965 157.106 7.8485 157.106 8.95426V9.09753C158.057 9.03795 158.996 8.85261 159.897 8.54649C160.465 8.35463 161 8.07771 161.483 7.72543C161.719 7.55184 161.91 7.3256 162.041 7.06514C162.172 6.80468 162.239 6.51736 162.236 6.22659C162.257 5.86882 162.159 5.51415 161.958 5.21599C161.756 4.91783 161.462 4.69233 161.12 4.57346C160.246 4.26845 159.322 4.12644 158.396 4.15466C157.965 4.14201 157.535 4.15305 157.106 4.18773Z" fill="white"/>
<path d="M174.634 0.0771484C175.896 0.0771484 176.867 1.04148 177.593 2.96462C178.609 5.51044 179.794 9.70756 181.149 15.556C181.291 16.0135 181.385 16.4845 181.428 16.9611C181.422 17.3438 181.309 17.7175 181.101 18.0406C180.894 18.3636 180.599 18.6233 180.25 18.7906C179.964 18.9204 179.655 18.9916 179.34 19C178.98 18.9877 178.628 18.8838 178.32 18.6985C178.012 18.5132 177.758 18.2526 177.582 17.942C177.302 17.2037 177.098 16.4394 176.973 15.6607C176.903 15.3063 176.809 14.9566 176.694 14.6137H176.666C176.361 14.6137 174.856 14.6835 172.15 14.8231C172.111 14.8561 171.877 15.6937 171.436 17.3303C171.258 17.8234 170.9 18.2326 170.431 18.4765C170.124 18.6341 169.783 18.719 169.437 18.7245C169.091 18.7236 168.75 18.6356 168.447 18.4688C168.144 18.302 167.89 18.062 167.707 17.7712C167.494 17.4419 167.379 17.0598 167.377 16.6691C167.377 16.1842 168.254 13.0616 170.007 7.30134C171.011 4.17875 171.879 2.12152 172.608 1.12964C172.841 0.81264 173.146 0.552854 173.497 0.370359C173.848 0.187865 174.237 0.0875444 174.634 0.0771484ZM173.311 10.6076C173.312 10.626 173.312 10.6444 173.311 10.6627C174.573 10.58 175.338 10.5415 175.611 10.5415C175.615 10.5289 175.615 10.5155 175.611 10.5029C175.209 9.03345 174.856 7.80646 174.551 6.82193C174.512 6.82193 174.188 7.79177 173.568 9.72042C173.501 10.0211 173.415 10.3174 173.311 10.6076Z" fill="white"/>
<path d="M195.317 0.0273438C195.666 0.0317352 196.009 0.122241 196.314 0.290644C196.619 0.459048 196.877 0.700017 197.064 0.991672C197.35 1.3223 197.682 2.57868 198.057 4.76081C198.698 8.30954 199.345 12.2679 200 16.6358V16.713C200.01 17.1308 199.889 17.5415 199.654 17.8895C199.42 18.2374 199.083 18.5057 198.688 18.6581C198.44 18.7496 198.177 18.798 197.912 18.8014C197.551 18.7991 197.196 18.7026 196.885 18.5216C196.573 18.3407 196.315 18.0818 196.137 17.771C195.97 17.5616 195.813 16.8452 195.663 15.6219C195.175 12.5765 194.814 10.3392 194.58 8.91018H194.552C194.479 9.07549 193.994 10.2657 193.1 12.4754C192.922 12.8075 192.655 13.0855 192.328 13.2796C192.002 13.4737 191.628 13.5767 191.247 13.5775C190.347 13.5775 189.641 13.0265 189.131 11.9244C188.037 9.99206 187.479 9.02222 187.457 9.01487C187.021 14.3673 186.778 17.1813 186.726 17.4569C186.581 17.989 186.235 18.4463 185.76 18.7353C185.436 18.9096 185.074 19.0041 184.705 19.0108C184.318 19.0065 183.941 18.8966 183.613 18.6933C183.286 18.49 183.023 18.2013 182.851 17.8591C182.711 17.5606 182.641 17.2348 182.645 16.9058C182.667 16.454 183.086 11.4138 183.901 1.78517C184.005 1.26324 184.301 0.797912 184.733 0.479201C185.087 0.218025 185.518 0.0769351 185.961 0.0769378C186.871 0.0769378 187.563 0.594919 188.049 1.6419L190.946 6.71702C192.062 3.98384 192.864 2.14703 193.352 1.20658C193.54 0.852562 193.822 0.555796 194.169 0.348067C194.515 0.140337 194.912 0.0294703 195.317 0.0273438Z" fill="white"/>
</g>
<defs>
<clipPath id="clip0_16_565">
<rect width="200" height="19" fill="white"/>
</clipPath>
</defs>
</svg>
