<svg className="z-10" width="505" height="35" viewBox="0 0 505 35" fill="none" xmlns="http://www.w3.org/2000/svg">
<path d="M21.918 0.9464C22.5659 1.03283 23.1538 1.37114 23.5544 1.88817C23.9084 2.39642 24.1131 2.99378 24.1453 3.61252C24.1828 4.352 24.0999 5.09264 23.8998 5.80546C23.6878 6.616 23.397 7.40384 23.0316 8.15768L15.6181 26.4839C15.5693 26.6023 15.4938 26.7078 15.3977 26.7922C15.3015 26.8767 15.1871 26.9377 15.0635 26.9707L14.9226 27.0026V27.039L12.8681 27.6668C12.5681 27.8079 12.3363 27.6668 12.1726 27.3165L3.36818 5.16399C3.15262 4.59325 2.86056 4.05448 2.50001 3.56248C2.27445 3.28173 1.97072 3.07427 1.62729 2.96645C1.46644 2.91296 1.31354 2.83798 1.17275 2.74351C1.11707 2.70818 1.07147 2.65904 1.04041 2.60084C1.00934 2.54263 0.993863 2.47736 0.995476 2.41139C0.995476 2.13386 1.2182 2.00648 1.65911 2.02923C1.98183 2.02923 2.45456 2.07469 3.06819 2.09743C3.68182 2.12018 4.43181 2.13387 5.24089 2.13387C6.04998 2.13387 6.82724 2.13383 7.41815 2.09743C8.00905 2.06104 8.46814 2.05198 8.78177 2.02923C9.23631 2.00648 9.4454 2.13386 9.4454 2.41139C9.45285 2.47613 9.44186 2.54168 9.41372 2.60045C9.38557 2.65921 9.3414 2.70878 9.28631 2.74351L8.83177 3.00288C8.72057 3.07733 8.63426 3.18345 8.58402 3.30756C8.53377 3.43167 8.52191 3.56801 8.54995 3.69894C8.65226 4.19713 8.79205 4.6869 8.96813 5.16399L15.409 22.6849L20.5226 9.55442C20.7829 8.9759 20.8682 8.33377 20.768 7.70727C20.6565 7.23564 20.4626 6.78743 20.1953 6.38328C19.9271 5.98746 19.6499 5.58257 19.3589 5.16399C19.0529 4.70644 18.8669 4.17911 18.818 3.63069C18.7705 3.25109 18.7999 2.8658 18.9044 2.49781C19.0061 2.14476 19.1917 1.82165 19.4453 1.55605C19.7196 1.28114 20.0613 1.08342 20.4362 0.982777C20.9213 0.860506 21.4275 0.848091 21.918 0.9464Z" fill="#F522ED"/>
<path d="M33.5042 26.3427C33.6906 26.4336 33.8406 26.5156 33.9588 26.5884C34.0138 26.6195 34.0591 26.6653 34.0896 26.7208C34.1201 26.7762 34.1346 26.839 34.1315 26.9023C34.1315 27.1798 33.9133 27.3072 33.4724 27.2845L32.1815 27.2117C31.6497 27.2117 30.9633 27.1798 30.1315 27.1798C29.2997 27.1798 28.6361 27.1798 28.077 27.2117C27.5179 27.2435 27.0906 27.2617 26.7906 27.2845C26.3361 27.2845 26.127 27.1798 26.127 26.9023C26.1238 26.8385 26.1387 26.7751 26.1701 26.7195C26.2015 26.664 26.248 26.6185 26.3043 26.5884C26.4511 26.498 26.6028 26.416 26.7588 26.3427C26.9181 26.2889 27.0593 26.1919 27.1668 26.0626C27.2744 25.9333 27.344 25.7767 27.3679 25.6102C27.4597 25.129 27.5008 24.6395 27.4906 24.1497V12.5843C27.5016 12.0991 27.4605 11.614 27.3679 11.1375C27.3372 10.9714 27.2654 10.8156 27.159 10.6845C27.0526 10.5533 26.915 10.451 26.7588 10.3868C26.5988 10.3314 26.4461 10.2566 26.3043 10.1639C26.2457 10.1228 26.1987 10.0673 26.1676 10.0028C26.1366 9.93827 26.1226 9.86683 26.127 9.79535C26.127 9.54057 26.3361 9.34036 26.7543 9.20387C26.9861 9.15837 27.2997 9.08559 27.6952 8.9946C28.0906 8.90361 28.5315 8.78531 29.0179 8.64882C29.5043 8.51233 30.0133 8.33488 30.5497 8.12559C31.0861 7.9163 31.6042 7.67066 32.1133 7.42953C32.1806 7.38747 32.2571 7.36222 32.3362 7.35588C32.4153 7.34955 32.4947 7.36228 32.5679 7.39309C32.6325 7.43225 32.6847 7.48896 32.7185 7.5566C32.7523 7.62423 32.7663 7.70006 32.7588 7.77531V24.1543C32.7497 24.6438 32.7893 25.133 32.877 25.6147C32.9056 25.7816 32.9792 25.9375 33.0897 26.0658C33.2002 26.194 33.3435 26.2898 33.5042 26.3427ZM29.8679 5.86895C28.9784 5.89728 28.108 5.6069 27.4134 5.05003C27.1051 4.81552 26.8552 4.51272 26.6833 4.16542C26.5114 3.81812 26.4221 3.43574 26.4225 3.04815C26.4189 2.65484 26.5066 2.26606 26.6785 1.91239C26.8504 1.55872 27.102 1.24981 27.4134 1.00989C28.1181 0.478394 28.9764 0.190918 29.8588 0.190918C30.7412 0.190918 31.5995 0.478394 32.3042 1.00989C32.6203 1.24668 32.8763 1.55449 33.0516 1.90856C33.2268 2.26262 33.3165 2.65301 33.3133 3.04815C33.313 3.43752 33.2215 3.8214 33.0463 4.16903C32.8711 4.51666 32.6169 4.8184 32.3042 5.05003C31.6174 5.59443 30.7619 5.88091 29.8861 5.85984L29.8679 5.86895Z" fill="#F522ED"/>
<path d="M45.1315 6.95668C46.3559 6.9311 47.5783 7.0657 48.7679 7.35706C49.5991 7.56112 50.3882 7.90911 51.0997 8.3853C51.6034 8.71991 52.0158 9.17497 52.2997 9.70928C52.5073 10.1179 52.597 10.5764 52.5587 11.0332C52.5274 11.4318 52.3434 11.8029 52.0453 12.0691C51.7472 12.3353 51.358 12.476 50.9587 12.4618C50.4813 12.4893 50.0066 12.3737 49.5951 12.1297C49.2859 11.9135 49.0257 11.6344 48.8315 11.3107C48.6291 10.9731 48.4601 10.6166 48.327 10.2461C48.188 9.86482 48.0017 9.50255 47.7724 9.16783C47.5181 8.81323 47.1911 8.51697 46.8133 8.29882C46.294 8.02504 45.7139 7.8873 45.127 7.89845C44.4118 7.82787 43.6906 7.94713 43.0361 8.24423C42.5439 8.48736 42.1286 8.86215 41.8361 9.32706C41.573 9.74937 41.4402 10.24 41.4543 10.7375C41.4525 11.2167 41.578 11.6878 41.8179 12.1024C42.2784 12.7948 42.9031 13.3621 43.6361 13.7539C44.4507 14.2022 45.2933 14.5973 46.1588 14.9369C47.0679 15.3009 47.977 15.6512 48.9088 16.0015C49.7879 16.325 50.628 16.7462 51.4133 17.2572C52.1325 17.7193 52.7347 18.3423 53.1724 19.0771C53.6229 19.8938 53.8117 20.8293 53.7133 21.7569C53.6809 22.4473 53.527 23.1265 53.2587 23.7633C52.9395 24.5127 52.4528 25.1789 51.836 25.7106C51.0492 26.3739 50.1372 26.8721 49.1542 27.1756C47.7606 27.5951 46.309 27.7886 44.8543 27.7488C43.545 27.7773 42.2387 27.6133 40.977 27.262C40.0604 27.0057 39.1947 26.5932 38.418 26.0427C37.8373 25.6309 37.3685 25.0804 37.0543 24.4412C36.8068 23.9449 36.688 23.3941 36.7089 22.8397C36.7308 22.3816 36.9089 21.9448 37.2134 21.6022C37.3623 21.4351 37.5442 21.3007 37.7476 21.2075C37.951 21.1143 38.1715 21.0644 38.3952 21.0608C38.6272 21.0323 38.8626 21.0516 39.0869 21.1173C39.3112 21.183 39.5197 21.2938 39.6998 21.4429C40.008 21.7489 40.2563 22.1101 40.4316 22.5076C40.639 22.9648 40.8136 23.4361 40.9543 23.918C41.101 24.419 41.3233 24.8946 41.6134 25.3284C41.9199 25.7751 42.3261 26.1442 42.7997 26.4067C43.4373 26.7374 44.1506 26.8943 44.8679 26.8617C45.502 26.8741 46.1313 26.7499 46.7133 26.4977C47.2177 26.2766 47.6641 25.9419 48.0179 25.5195C48.3487 25.1267 48.5768 24.6576 48.6815 24.1546C48.7835 23.6217 48.7538 23.0719 48.5951 22.5531C48.3775 21.8469 47.9148 21.2417 47.2906 20.847C46.5742 20.3767 45.8129 19.9789 45.0179 19.6595C44.1588 19.3137 43.2588 18.9679 42.3225 18.6313C41.4227 18.3172 40.5588 17.9084 39.7452 17.4119C38.9916 16.9602 38.335 16.3632 37.8134 15.6557C37.2837 14.8906 37.0158 13.9744 37.0498 13.0442C37.0349 12.1687 37.2446 11.304 37.6589 10.5327C38.0722 9.7821 38.6485 9.13377 39.3452 8.6355C40.12 8.08585 40.9866 7.67914 41.9043 7.43442C42.9532 7.12865 44.0391 6.9679 45.1315 6.95668Z" fill="#F522ED"/>
<path d="M63.5677 26.3427C63.7541 26.4336 63.9041 26.5156 64.0222 26.5884C64.0776 26.6191 64.1232 26.6648 64.1538 26.7204C64.1844 26.7759 64.1986 26.839 64.195 26.9023C64.195 27.1798 63.9768 27.3072 63.5359 27.2845L62.2495 27.2117C61.7132 27.2117 61.0314 27.1798 60.195 27.1798C59.3586 27.1798 58.6996 27.1798 58.1405 27.2117C57.5814 27.2435 57.1541 27.2617 56.8541 27.2845C56.3996 27.2845 56.1905 27.1798 56.1905 26.9023C56.1873 26.8385 56.2022 26.7751 56.2336 26.7195C56.265 26.664 56.3115 26.6185 56.3678 26.5884C56.5146 26.498 56.6663 26.416 56.8223 26.3427C56.9816 26.2889 57.1228 26.1919 57.2303 26.0626C57.3378 25.9333 57.4074 25.7767 57.4314 25.6102C57.5232 25.129 57.5643 24.6395 57.5541 24.1497V12.5843C57.5651 12.0991 57.5239 11.614 57.4314 11.1375C57.4007 10.9714 57.3289 10.8156 57.2224 10.6845C57.116 10.5533 56.9785 10.451 56.8223 10.3868C56.6622 10.3314 56.5096 10.2566 56.3678 10.1639C56.3092 10.1228 56.2621 10.0673 56.2311 10.0028C56.2001 9.93827 56.1861 9.86683 56.1905 9.79535C56.1905 9.54057 56.3996 9.34036 56.8178 9.20387C57.0496 9.15837 57.3632 9.08559 57.7587 8.9946C58.1541 8.90361 58.595 8.78531 59.0814 8.64882C59.5677 8.51233 60.0768 8.33488 60.6132 8.12559C61.1495 7.9163 61.6677 7.67066 62.1768 7.42953C62.2441 7.38747 62.3205 7.36222 62.3996 7.35588C62.4787 7.34955 62.5582 7.36228 62.6313 7.39309C62.6964 7.43184 62.7489 7.48847 62.7827 7.55621C62.8166 7.62395 62.8303 7.7 62.8223 7.77531V24.1543C62.8132 24.6438 62.8528 25.133 62.9404 25.6147C62.9691 25.7816 63.0426 25.9375 63.1531 26.0658C63.2637 26.194 63.407 26.2898 63.5677 26.3427ZM59.9314 5.86895C59.0419 5.89728 58.1715 5.6069 57.4768 5.05003C57.1686 4.81552 56.9187 4.51272 56.7468 4.16542C56.5749 3.81812 56.4856 3.43574 56.4859 3.04815C56.4824 2.65484 56.57 2.26606 56.742 1.91239C56.9139 1.55872 57.1655 1.24981 57.4768 1.00989C58.1815 0.478394 59.0399 0.190918 59.9223 0.190918C60.8046 0.190918 61.663 0.478394 62.3677 1.00989C62.6838 1.24668 62.9398 1.55449 63.115 1.90856C63.2903 2.26262 63.38 2.65301 63.3768 3.04815C63.3764 3.43752 63.285 3.8214 63.1098 4.16903C62.9345 4.51666 62.6804 4.8184 62.3677 5.05003C61.6821 5.59342 60.8284 5.87984 59.9541 5.85984L59.9314 5.86895Z" fill="#F522ED"/>
<path d="M76.9719 25.1233C77.1583 25.2871 77.1446 25.5419 76.9355 25.8877C76.543 26.3976 76.0532 26.8244 75.4946 27.1434C74.7138 27.5354 73.8441 27.7158 72.9719 27.6666C71.4386 27.6666 70.3008 27.295 69.5583 26.5519C68.8174 25.8103 68.4447 24.6456 68.4447 23.0669V8.85356H67.2265C66.9947 8.85356 66.8447 8.79896 66.772 8.68067C66.6885 8.50824 66.6524 8.3166 66.6675 8.12556C66.651 7.93885 66.6872 7.75129 66.772 7.58418C66.8402 7.47953 66.9902 7.4295 67.2265 7.4295H67.6811C68.2135 7.42952 68.7405 7.32274 69.2311 7.11554C70.2547 6.68273 71.131 5.9621 71.7538 5.0409C72.0671 4.58624 72.3121 4.08806 72.481 3.56225C72.5203 3.42748 72.6033 3.30961 72.7168 3.22724C72.8304 3.14486 72.9681 3.10267 73.1083 3.10727C73.2546 3.10343 73.3992 3.1396 73.5265 3.21191C73.6447 3.28015 73.6992 3.43484 73.6992 3.66688V7.41128H76.4855C76.8355 7.41128 77.0083 7.64333 77.0083 8.1074C77.0083 8.57147 76.8355 8.83535 76.4855 8.83535H73.6992V23.3353C73.6992 24.682 74.0598 25.4251 74.781 25.5646C75.0624 25.6155 75.3523 25.5855 75.6174 25.4782C75.8085 25.388 76.006 25.3119 76.2083 25.2507C76.5765 25.0187 76.8355 24.9823 76.9719 25.1233Z" fill="#F522ED"/>
<path d="M122.735 26.3428C122.893 26.4131 123.045 26.4952 123.19 26.5885C123.241 26.6224 123.283 26.6693 123.31 26.7245C123.337 26.7797 123.349 26.8411 123.345 26.9024C123.345 27.18 123.126 27.3074 122.685 27.2847C122.385 27.2847 121.958 27.2391 121.413 27.2118C120.867 27.1845 120.19 27.18 119.381 27.18C118.572 27.18 117.849 27.18 117.29 27.2118C116.731 27.2437 116.317 27.2619 116.04 27.2847C115.585 27.2847 115.376 27.18 115.376 26.9024C115.373 26.8412 115.385 26.7801 115.412 26.7251C115.439 26.6701 115.48 26.623 115.531 26.5885C115.676 26.4952 115.828 26.4131 115.985 26.3428C116.145 26.287 116.288 26.1899 116.398 26.0612C116.508 25.9325 116.582 25.777 116.613 25.6103C116.716 25.1307 116.764 24.6405 116.754 24.1499V15.3007C116.757 14.5382 116.693 13.777 116.563 13.0258C116.453 12.3894 116.241 11.7749 115.935 11.2059C115.66 10.6975 115.25 10.2754 114.749 9.98664C114.147 9.68797 113.481 9.53829 112.809 9.55016C112.137 9.56204 111.477 9.73513 110.886 10.0549C110.352 10.3817 109.896 10.8211 109.549 11.3424C109.191 11.8838 108.937 12.487 108.799 13.1214C108.649 13.7781 108.573 14.4495 108.572 15.1232V24.1817C108.562 24.6715 108.603 25.161 108.695 25.6422C108.721 25.8078 108.791 25.9633 108.899 26.0922C109.006 26.2211 109.146 26.3187 109.304 26.3747C109.49 26.4657 109.64 26.5476 109.758 26.6204C109.813 26.6515 109.859 26.6974 109.889 26.7528C109.92 26.8083 109.934 26.8711 109.931 26.9343C109.931 27.2119 109.708 27.3392 109.272 27.3165C108.967 27.3165 108.54 27.271 107.981 27.2437C107.422 27.2164 106.74 27.2118 105.926 27.2118C105.113 27.2118 104.431 27.2118 103.876 27.2437C103.322 27.2755 102.89 27.2937 102.586 27.3165C102.131 27.3165 101.927 27.2119 101.927 26.9343C101.923 26.8711 101.938 26.8083 101.968 26.7528C101.999 26.6974 102.044 26.6515 102.099 26.6204C102.217 26.5476 102.367 26.4657 102.554 26.3747C102.707 26.3089 102.839 26.2033 102.937 26.0689C103.036 25.9344 103.096 25.7761 103.113 25.6103C103.205 25.1291 103.246 24.6397 103.236 24.1499V15.2643C103.241 14.5024 103.181 13.7414 103.058 12.9894C102.963 12.3492 102.751 11.7321 102.431 11.1696C102.148 10.6622 101.734 10.2409 101.231 9.95021C100.663 9.63511 100.021 9.47802 99.372 9.49524C98.6815 9.47497 97.9994 9.65 97.4038 10.0002C96.8606 10.3243 96.3951 10.7639 96.0402 11.2879C95.6852 11.8324 95.4269 12.4342 95.2766 13.0668C95.1136 13.7216 95.0312 14.3938 95.0311 15.0686V24.1271C95.0188 24.6179 95.0661 25.1083 95.172 25.5876C95.2027 25.7542 95.2769 25.9098 95.387 26.0384C95.4972 26.1671 95.6395 26.2643 95.7993 26.3201C95.9492 26.391 96.0935 26.4731 96.2311 26.5658C96.2829 26.5994 96.325 26.6461 96.3529 26.7013C96.3808 26.7564 96.3937 26.818 96.3902 26.8797C96.3902 27.1573 96.1675 27.2846 95.7266 27.2619C95.4493 27.2619 95.0311 27.2164 94.4766 27.1891C93.922 27.1618 93.2357 27.1572 92.4221 27.1572C91.6084 27.1572 90.8948 27.1572 90.3539 27.1891C89.813 27.2209 89.3812 27.2391 89.0812 27.2619C88.6266 27.2619 88.4221 27.1573 88.4221 26.8797C88.4176 26.8184 88.4296 26.7569 88.4567 26.7017C88.4839 26.6465 88.5253 26.5996 88.5766 26.5658C88.7217 26.4725 88.8736 26.3904 89.0312 26.3201C89.1901 26.2627 89.3314 26.165 89.4413 26.0366C89.5512 25.9083 89.626 25.7535 89.6584 25.5876C89.7602 25.1077 89.806 24.6176 89.7948 24.1271V12.5254C89.8069 12.0394 89.7611 11.5537 89.6584 11.0786C89.6215 10.9129 89.5452 10.7585 89.436 10.6286C89.3268 10.4987 89.188 10.3971 89.0312 10.3324C88.8715 10.2742 88.719 10.1979 88.5766 10.1049C88.5199 10.0634 88.4744 10.0084 88.4442 9.94482C88.414 9.88127 88.4002 9.8112 88.4039 9.74094C88.4039 9.48161 88.5675 9.32239 88.8903 9.24959C89.3993 9.13585 90.1221 8.93564 91.0493 8.65811C92.0935 8.33186 93.1066 7.91315 94.0766 7.40693C94.472 7.19765 94.6902 7.31139 94.7357 7.75272L94.9811 10.5735L95.0175 10.9239C95.2608 10.4153 95.5514 9.93094 95.8857 9.47708C96.2465 8.99013 96.6804 8.56193 97.172 8.20769C97.7209 7.81496 98.3263 7.50813 98.9674 7.29775C99.737 7.0517 100.542 6.93335 101.349 6.94741C103.167 6.94741 104.611 7.29624 105.681 7.99387C106.815 8.76167 107.636 9.91108 107.995 11.2333C108.227 10.7061 108.513 10.2044 108.849 9.73638C109.227 9.21079 109.688 8.74987 110.213 8.37147C110.809 7.93903 111.466 7.59857 112.163 7.36145C113.02 7.07739 113.919 6.94199 114.822 6.96107C117.325 6.96107 119.143 7.6526 120.276 9.03571C121.41 10.4188 121.973 12.5026 121.967 15.2871V24.1362C121.956 24.6267 122.002 25.1168 122.104 25.5967C122.134 25.7656 122.209 25.9235 122.32 26.0545C122.431 26.1855 122.574 26.2849 122.735 26.3428Z" fill="#F522ED"/>
<path d="M143.444 7.41156C143.862 7.38426 144.071 7.50256 144.071 7.75734C144.071 8.01213 143.894 8.21231 143.549 8.31695C143.289 8.37528 143.043 8.48606 142.828 8.64252C142.612 8.79897 142.431 8.99781 142.294 9.22689C141.897 9.83677 141.571 10.4901 141.321 11.1742C141.203 11.4563 140.994 11.9704 140.694 12.7256L139.649 15.3553L138.381 18.5766C137.926 19.7261 137.485 20.8362 137.058 21.9069C136.626 22.9716 136.24 23.9589 135.89 24.8643C135.54 25.7696 135.262 26.4703 135.058 26.9571C134.709 27.8398 134.338 28.6876 133.944 29.5004C133.571 30.2733 133.114 31.0026 132.581 31.6752C132.091 32.2974 131.495 32.8288 130.822 33.2448C130.108 33.6662 129.304 33.911 128.476 33.9591C127.646 34.0781 126.799 33.9565 126.035 33.6088C125.49 33.3573 125.034 32.9444 124.731 32.4259C124.494 31.9894 124.426 31.4808 124.54 30.9973C124.602 30.7521 124.719 30.5244 124.882 30.3313C125.045 30.1382 125.25 29.9847 125.481 29.8826C125.834 29.6901 126.228 29.5826 126.631 29.5686C126.881 29.5674 127.13 29.6154 127.362 29.7097C127.59 29.8007 127.817 29.9008 128.022 30.0054C128.226 30.1101 128.444 30.2056 128.667 30.3012C128.895 30.3954 129.135 30.4537 129.381 30.474C129.804 30.5252 130.233 30.4721 130.631 30.3193C130.999 30.1688 131.335 29.9496 131.622 29.6733C131.928 29.3769 132.197 29.0437 132.422 28.6815C132.667 28.2981 132.883 27.8966 133.067 27.4803L125.549 10.5509C125.334 10.0152 125.092 9.49117 124.822 8.98119C124.652 8.69854 124.395 8.47834 124.09 8.35333C123.932 8.27834 123.78 8.19168 123.635 8.09402C123.581 8.05783 123.536 8.00838 123.506 7.95028C123.476 7.89219 123.461 7.82737 123.463 7.7619C123.463 7.50711 123.681 7.38882 124.122 7.41612C124.449 7.43735 124.903 7.46011 125.485 7.48437C126.076 7.48437 126.799 7.52075 127.658 7.52075C128.517 7.52075 129.272 7.52077 129.853 7.48437C130.435 7.44797 130.885 7.43886 131.217 7.41612C131.672 7.38882 131.881 7.50711 131.881 7.7619C131.886 7.83044 131.873 7.89918 131.842 7.96084C131.812 8.02249 131.766 8.07479 131.708 8.11223C131.59 8.18048 131.44 8.26233 131.253 8.35333C131.109 8.39167 130.981 8.47854 130.893 8.59942C130.804 8.7203 130.76 8.86792 130.767 9.01762C130.819 9.54875 130.96 10.0672 131.185 10.5509L135.394 21.5566C135.812 20.4874 136.249 19.4046 136.699 18.299C137.149 17.1935 137.571 16.1652 137.953 15.2007C138.335 14.2361 138.671 13.3808 138.962 12.6756C139.253 11.9703 139.444 11.4563 139.535 11.1742C139.794 10.5788 139.948 9.94306 139.99 9.29515C139.99 8.78558 139.703 8.47162 139.081 8.35333C138.662 8.23958 138.458 8.05306 138.458 7.79828C138.458 7.54349 138.676 7.41612 139.117 7.41612L140.231 7.48437C140.685 7.48437 141.053 7.52075 141.381 7.52075C141.708 7.52075 142.14 7.52077 142.476 7.48437L143.444 7.41156Z" fill="#F522ED"/>
<path d="M161.576 26.3429C161.725 26.4149 161.869 26.497 162.008 26.5886C162.059 26.6222 162.101 26.669 162.129 26.7241C162.157 26.7793 162.17 26.8408 162.167 26.9025C162.167 27.1816 161.958 27.309 161.539 27.2847C161.212 27.2847 160.758 27.2392 160.176 27.2119C159.594 27.1846 158.858 27.18 157.999 27.18C157.139 27.18 156.421 27.1801 155.839 27.2119C155.258 27.2438 154.808 27.262 154.476 27.2847C154.058 27.309 153.849 27.1816 153.849 26.9025C153.844 26.8412 153.856 26.7798 153.883 26.7246C153.91 26.6694 153.952 26.6225 154.003 26.5886C154.148 26.4953 154.3 26.4132 154.458 26.3429C154.617 26.2863 154.759 26.1889 154.869 26.0603C154.979 25.9318 155.053 25.7767 155.085 25.6104C155.189 25.1308 155.236 24.6406 155.226 24.15V5.16404C155.236 4.67188 155.189 4.1802 155.085 3.69899C155.053 3.53304 154.978 3.37834 154.868 3.24996C154.758 3.12158 154.617 3.02391 154.458 2.96649C154.301 2.89559 154.15 2.81504 154.003 2.72534C153.952 2.69151 153.91 2.64462 153.883 2.58944C153.856 2.53426 153.844 2.4728 153.849 2.41144C153.849 2.13542 154.058 2.00805 154.476 2.02928C154.799 2.02928 155.253 2.07473 155.839 2.09748C156.426 2.12023 157.139 2.13391 157.999 2.13391C158.858 2.13391 159.58 2.13388 160.176 2.09748C160.771 2.06108 161.221 2.05203 161.539 2.02928C161.958 2.00501 162.167 2.13239 162.167 2.41144C162.17 2.47316 162.157 2.53469 162.129 2.58983C162.101 2.64497 162.059 2.69172 162.008 2.72534C161.868 2.81355 161.724 2.89406 161.576 2.96649C161.416 3.02312 161.275 3.12056 161.165 3.24907C161.055 3.37759 160.98 3.53269 160.949 3.69899C160.843 4.17984 160.795 4.6718 160.808 5.16404V24.15C160.795 24.6407 160.843 25.1311 160.949 25.6104C160.979 25.7771 161.053 25.9326 161.164 26.0613C161.274 26.1899 161.416 26.2871 161.576 26.3429Z" fill="#F522ED"/>
<path d="M185.726 26.3428C185.912 26.4338 186.062 26.5157 186.18 26.5885C186.235 26.6197 186.28 26.6655 186.311 26.7209C186.341 26.7764 186.356 26.8392 186.353 26.9024C186.353 27.18 186.135 27.3074 185.694 27.2847C185.389 27.2847 184.962 27.2391 184.403 27.2118C183.844 27.1845 183.162 27.18 182.353 27.18C181.544 27.18 180.853 27.18 180.298 27.2118C179.744 27.2437 179.312 27.2619 179.012 27.2847C178.557 27.2847 178.348 27.18 178.348 26.9024C178.345 26.8392 178.36 26.7764 178.39 26.7209C178.421 26.6655 178.466 26.6197 178.521 26.5885C178.639 26.5157 178.789 26.4338 178.976 26.3428C179.134 26.2868 179.273 26.1892 179.381 26.0603C179.488 25.9314 179.558 25.776 179.585 25.6103C179.676 25.1291 179.718 24.6397 179.707 24.1499V15.2643C179.712 14.5024 179.653 13.7414 179.53 12.9894C179.435 12.35 179.224 11.7333 178.907 11.1696C178.622 10.663 178.206 10.242 177.703 9.95021C177.135 9.63511 176.493 9.47802 175.844 9.49524C175.153 9.47497 174.471 9.65 173.876 10.0002C173.341 10.327 172.883 10.7663 172.535 11.2879C172.18 11.8324 171.921 12.4342 171.771 13.0668C171.608 13.7216 171.526 14.3938 171.526 15.0686V24.1271C171.516 24.6178 171.563 25.1079 171.667 25.5876C171.697 25.7542 171.771 25.9098 171.882 26.0384C171.992 26.1671 172.134 26.2643 172.294 26.3201C172.451 26.3904 172.603 26.4725 172.748 26.5658C172.8 26.5996 172.841 26.6465 172.868 26.7017C172.895 26.7569 172.907 26.8184 172.903 26.8797C172.903 27.1573 172.68 27.2846 172.244 27.2619C171.962 27.2619 171.544 27.2164 170.989 27.1891C170.435 27.1618 169.748 27.1572 168.935 27.1572C168.121 27.1572 167.407 27.1572 166.867 27.1891C166.326 27.2209 165.894 27.2391 165.594 27.2619C165.139 27.2619 164.935 27.1573 164.935 26.8797C164.93 26.8184 164.942 26.7569 164.969 26.7017C164.997 26.6465 165.038 26.5996 165.089 26.5658C165.234 26.4725 165.386 26.3904 165.544 26.3201C165.703 26.2627 165.844 26.165 165.954 26.0366C166.064 25.9083 166.139 25.7535 166.171 25.5876C166.273 25.1077 166.319 24.6176 166.308 24.1271V12.5254C166.32 12.0394 166.274 11.5537 166.171 11.0786C166.134 10.9129 166.058 10.7585 165.949 10.6286C165.84 10.4987 165.701 10.3971 165.544 10.3324C165.384 10.2742 165.232 10.1979 165.089 10.1049C165.033 10.0634 164.987 10.0084 164.957 9.94482C164.927 9.88127 164.913 9.8112 164.917 9.74094C164.917 9.48161 165.08 9.32239 165.403 9.24959C165.912 9.13585 166.635 8.93564 167.562 8.65811C168.606 8.33186 169.619 7.91315 170.589 7.40693C170.985 7.19765 171.203 7.31139 171.248 7.75272L171.494 10.5735L171.53 10.9239C171.775 10.4163 172.066 9.93202 172.398 9.47708C172.759 8.99013 173.193 8.56193 173.685 8.20769C174.234 7.81496 174.839 7.50813 175.48 7.29775C176.25 7.0517 177.054 6.93335 177.862 6.94741C180.394 6.94741 182.216 7.62531 183.344 8.98567C184.471 10.346 185.035 12.4298 185.035 15.237V24.1226C185.023 24.6122 185.063 25.1016 185.153 25.583C185.171 25.7495 185.234 25.9079 185.335 26.0416C185.436 26.1753 185.571 26.2793 185.726 26.3428Z" fill="#F522ED"/>
<path d="M196.898 6.95631C198.123 6.9302 199.345 7.06481 200.535 7.35668C201.366 7.56075 202.155 7.90874 202.866 8.38492C203.37 8.71954 203.783 9.1746 204.066 9.70891C204.276 10.1168 204.366 10.5759 204.325 11.0328C204.294 11.4314 204.11 11.8026 203.812 12.0687C203.514 12.3349 203.125 12.4756 202.725 12.4614C202.248 12.4898 201.773 12.3741 201.362 12.1293C201.051 11.9133 200.789 11.6343 200.594 11.3104C200.391 10.9728 200.222 10.6162 200.089 10.2457C199.952 9.86364 199.766 9.50114 199.535 9.16746C199.277 8.81808 198.947 8.52925 198.566 8.32122C198.047 8.04744 197.467 7.9097 196.88 7.92084C196.166 7.84868 195.446 7.96803 194.794 8.26663C194.299 8.50827 193.882 8.8833 193.589 9.34946C193.33 9.77345 193.197 10.2629 193.207 10.7599C193.209 11.2392 193.336 11.7096 193.576 12.1248C194.034 12.8191 194.659 13.3871 195.394 13.7763C196.208 14.2246 197.051 14.6197 197.916 14.9592C198.826 15.3232 199.735 15.6736 200.666 16.0239C201.545 16.3483 202.385 16.7694 203.171 17.2796C203.888 17.7431 204.488 18.3659 204.925 19.0995C205.376 19.9161 205.565 20.8516 205.466 21.7792C205.434 22.4697 205.28 23.1489 205.012 23.7857C204.689 24.5344 204.201 25.2002 203.585 25.733C202.798 26.3973 201.886 26.8956 200.903 27.198C199.511 27.6182 198.061 27.8118 196.607 27.7712C195.297 27.7997 193.989 27.6357 192.726 27.2844C191.809 27.0272 190.944 26.6148 190.167 26.0651C189.584 25.655 189.115 25.1041 188.803 24.4636C188.554 23.9675 188.434 23.4168 188.453 22.8621C188.477 22.4045 188.655 21.9684 188.957 21.6246C189.107 21.4576 189.29 21.3233 189.494 21.2301C189.698 21.137 189.919 21.087 190.144 21.0832C190.376 21.055 190.611 21.0743 190.835 21.14C191.06 21.2057 191.268 21.3164 191.448 21.4653C191.754 21.7737 192.002 22.1342 192.18 22.53C192.386 22.9872 192.559 23.4586 192.698 23.9404C192.847 24.4415 193.07 24.9171 193.362 25.3508C193.667 25.7973 194.071 26.1664 194.544 26.4291C195.183 26.7586 195.898 26.9154 196.616 26.8841C197.241 26.8928 197.861 26.7688 198.435 26.5201C198.94 26.299 199.388 25.9643 199.744 25.5419C200.073 25.1488 200.3 24.6797 200.403 24.177C200.507 23.6442 200.477 23.0939 200.316 22.5754C200.099 21.8692 199.636 21.2641 199.012 20.8693C198.296 20.399 197.534 20.0013 196.739 19.6818C195.88 19.3361 194.985 18.9903 194.044 18.6536C193.144 18.3395 192.28 17.9308 191.466 17.4343C190.714 16.9813 190.057 16.3846 189.535 15.6781C189.005 14.913 188.737 13.9968 188.771 13.0666C188.758 12.1913 188.968 11.3272 189.38 10.5551C189.794 9.8045 190.37 9.15617 191.066 8.65789C191.841 8.10824 192.708 7.70148 193.626 7.45676C194.688 7.13951 195.79 6.97109 196.898 6.95631Z" fill="#F522ED"/>
<path d="M217.362 25.1233C217.548 25.2871 217.534 25.5419 217.325 25.8876C216.931 26.3976 216.44 26.8244 215.88 27.1434C215.099 27.5354 214.229 27.7158 213.357 27.6666C211.824 27.6666 210.687 27.295 209.948 26.5519C209.203 25.8103 208.834 24.6456 208.834 23.0668V8.85355H207.616C207.384 8.85355 207.234 8.79895 207.162 8.68066C207.08 8.5075 207.044 8.31646 207.057 8.12556C207.043 7.93897 207.079 7.75204 207.162 7.58417C207.234 7.47952 207.384 7.42949 207.616 7.42949H208.071C208.603 7.43 209.13 7.32321 209.621 7.11553C210.122 6.9041 210.59 6.62222 211.012 6.2784C211.88 5.56429 212.526 4.61734 212.875 3.54857C212.915 3.41381 212.998 3.29594 213.111 3.21357C213.225 3.13119 213.362 3.089 213.503 3.0936C213.649 3.09022 213.793 3.12636 213.921 3.19824C214.034 3.26648 214.093 3.42117 214.093 3.65321V7.41127H216.88C217.225 7.41127 217.398 7.64332 217.398 8.10739C217.398 8.59421 217.225 8.83534 216.88 8.83534H214.093V23.3353C214.093 24.682 214.453 25.4251 215.171 25.5646C215.452 25.616 215.742 25.5859 216.007 25.4782C216.199 25.3887 216.396 25.3127 216.598 25.2507C216.966 25.0186 217.203 24.9823 217.362 25.1233Z" fill="#F522ED"/>
<path d="M237.302 26.2017C237.423 26.329 237.565 26.4351 237.721 26.5156C237.782 26.542 237.835 26.5858 237.872 26.6415C237.909 26.6972 237.929 26.7626 237.93 26.8295C237.93 27.1344 237.698 27.2845 237.234 27.2845H236.848C236.434 27.2845 235.939 27.2845 235.421 27.2481C234.898 27.2272 234.382 27.1212 233.893 26.9342C233.386 26.7409 232.933 26.4289 232.571 26.0242C232.128 25.4918 231.839 24.8483 231.734 24.1634C231.177 25.3218 230.254 26.2639 229.107 26.8431C227.952 27.445 226.668 27.7573 225.366 27.7531C224.477 27.7679 223.591 27.6451 222.739 27.3891C222.048 27.1792 221.407 26.8292 220.857 26.3609C220.37 25.9378 219.98 25.4149 219.712 24.8276C219.434 24.2386 219.28 23.5993 219.257 22.9486C219.196 21.8994 219.43 20.854 219.934 19.9322C220.409 19.1357 221.051 18.4525 221.816 17.9303C222.621 17.3843 223.499 16.9568 224.425 16.6609C225.389 16.3576 226.334 16.0846 227.262 15.842C228.189 15.5993 229.042 15.3718 229.821 15.1595C230.464 15.0034 231.072 14.7254 231.612 14.3405V13.7809C231.612 12.871 231.575 12.0202 231.507 11.2923C231.456 10.656 231.303 10.0322 231.053 9.44505C230.866 8.98228 230.55 8.5828 230.143 8.29395C229.685 8.00872 229.151 7.86919 228.612 7.89363C228.004 7.85647 227.4 8.01597 226.889 8.3486C226.518 8.62513 226.231 8.99808 226.057 9.42688C225.88 9.86529 225.756 10.3236 225.689 10.7918C225.627 11.2569 225.518 11.7143 225.362 12.1567C225.218 12.561 224.965 12.9171 224.63 13.1849C224.171 13.4821 223.62 13.6004 223.08 13.5171C222.603 13.5074 222.149 13.3133 221.812 12.9756C221.479 12.6462 221.259 12.2191 221.184 11.7563C221.109 11.2298 221.181 10.6924 221.394 10.2049C221.653 9.59398 222.067 9.06096 222.594 8.65795C223.295 8.11703 224.092 7.71409 224.944 7.47049C226.136 7.13434 227.373 6.98095 228.612 7.01551C231.278 7.01551 233.309 7.58423 234.703 8.72166C236.096 9.85908 236.793 11.7169 236.793 14.2951C236.793 14.5726 236.793 15.1322 236.793 15.9694C236.793 16.8065 236.793 17.7119 236.793 18.6992C236.793 19.6865 236.793 20.6282 236.793 21.5564C236.793 22.4845 236.793 23.2034 236.793 23.7129C236.793 24.2225 236.793 24.6912 236.848 25.178C236.883 25.5598 237.043 25.9194 237.302 26.2017ZM227.698 24.7412C228.264 24.7532 228.826 24.6463 229.348 24.4273C229.806 24.2319 230.22 23.9473 230.566 23.5901C230.899 23.2514 231.16 22.8491 231.334 22.4072C231.503 21.9861 231.591 21.5369 231.593 21.0832L231.63 15.9966C231.036 16.3744 230.4 16.6798 229.734 16.9066C228.903 17.2099 228.099 17.5827 227.33 18.0212C226.573 18.4469 225.897 19.0012 225.33 19.6592C225.047 20.0071 224.837 20.4081 224.711 20.8386C224.585 21.2691 224.547 21.7205 224.598 22.1661C224.598 22.5451 224.686 22.9189 224.856 23.2578C225.025 23.5967 225.272 23.8912 225.575 24.1179C226.191 24.5619 226.94 24.7818 227.698 24.7412Z" fill="#F522ED"/>
<path d="M261.384 6.69715C261.205 6.76343 261.019 6.80919 260.83 6.83361C260.632 6.85777 260.433 6.86996 260.234 6.87004C259.911 6.87004 259.575 6.87001 259.225 6.83361C258.894 6.81104 258.562 6.82327 258.234 6.87004C257.936 6.9095 257.652 7.01688 257.402 7.18394C257.133 7.37876 256.942 7.66234 256.861 7.9847C258.027 8.49477 259.022 9.32841 259.73 10.387C260.411 11.5063 260.729 12.8099 260.639 14.1177C260.611 15.2161 260.288 16.2866 259.702 17.2161C259.102 18.1373 258.306 18.9142 257.37 19.4909C256.325 20.138 255.186 20.6198 253.993 20.9195C252.657 21.2647 251.282 21.4345 249.902 21.4246C248.204 21.5118 246.505 21.2644 244.902 20.6966C244.316 21.0134 243.816 21.4677 243.443 22.0205C243.31 22.2042 243.226 22.4196 243.201 22.6455C243.177 22.8714 243.212 23.0999 243.302 23.3081C243.404 23.5204 243.555 23.7054 243.742 23.8478C243.93 23.9902 244.148 24.0859 244.38 24.1271C245.052 24.2913 245.742 24.3678 246.434 24.3546C247.152 24.3546 247.93 24.3136 248.766 24.2317C249.602 24.1498 250.461 24.0512 251.343 23.936C252.831 23.739 254.329 23.6342 255.83 23.6221C257.802 23.6221 259.305 23.8996 260.339 24.4546C261.37 25.0142 261.898 25.9879 261.92 27.3847C261.969 28.4436 261.629 29.4838 260.966 30.3101C260.237 31.1709 259.327 31.8605 258.302 32.3302C257.096 32.8928 255.819 33.2906 254.507 33.5131C251.932 33.9622 249.303 34.0159 246.711 33.6724C245.755 33.5451 244.816 33.3116 243.912 32.9762C243.198 32.7151 242.542 32.318 241.98 31.807C241.762 31.5915 241.59 31.335 241.472 31.0523C241.354 30.7696 241.293 30.4663 241.293 30.16C241.259 29.8318 241.303 29.5001 241.42 29.1918C241.538 28.8836 241.727 28.6074 241.971 28.3856C242.471 27.919 243.056 27.5516 243.693 27.3028C242.943 27.1778 242.231 26.8871 241.607 26.452C241.323 26.2364 241.089 25.9623 240.921 25.6483C240.752 25.3343 240.653 24.9878 240.63 24.6321C240.55 24.042 240.648 23.4416 240.912 22.9078C241.153 22.4263 241.476 21.9906 241.866 21.6202C242.221 21.2791 242.618 20.9855 243.048 20.7467C243.359 20.5784 243.68 20.4265 244.007 20.2917C242.95 19.763 242.067 18.9398 241.466 17.9213C240.863 16.8256 240.585 15.58 240.666 14.3315C240.691 13.2423 241.005 12.1792 241.575 11.2514C242.151 10.3396 242.917 9.56345 243.821 8.97651C244.836 8.31829 245.952 7.83112 247.125 7.53428C248.437 7.19033 249.787 7.00848 251.143 6.99284C252.842 6.90977 254.54 7.15856 256.143 7.72533C256.226 7.27927 256.38 6.84929 256.598 6.45145C256.821 6.01747 257.108 5.61889 257.448 5.26853C257.812 4.89739 258.236 4.58984 258.702 4.35859C259.223 4.10568 259.792 3.96906 260.37 3.95821C260.876 3.88703 261.39 3.98457 261.834 4.23574C262.149 4.42117 262.38 4.72103 262.48 5.07287C262.558 5.39761 262.507 5.74002 262.339 6.0283C262.231 6.19721 262.092 6.34328 261.928 6.45806C261.764 6.57283 261.579 6.65408 261.384 6.69715ZM251.116 27.1072C250.261 27.2042 249.386 27.2922 248.489 27.371C247.592 27.4499 246.728 27.4908 245.898 27.4939C245.52 27.6957 245.189 27.9746 244.925 28.3128C244.572 28.7657 244.376 29.3216 244.366 29.8961C244.333 30.3815 244.468 30.8636 244.748 31.261C245.062 31.6713 245.475 31.9953 245.948 32.2028C246.541 32.4676 247.169 32.6498 247.812 32.7443C248.595 32.8618 249.388 32.9075 250.18 32.8807C252.522 32.8352 254.29 32.4348 255.484 31.6796C256.678 30.9243 257.277 30.0023 257.28 28.9134C257.3 28.6089 257.236 28.3047 257.095 28.0343C256.954 27.7638 256.741 27.5375 256.48 27.3801C255.943 27.0525 255.084 26.8933 253.902 26.8933C252.97 26.9081 252.04 26.9795 251.116 27.1072ZM251.639 20.3872C252.224 20.3483 252.788 20.1552 253.275 19.8276C253.782 19.4791 254.194 19.0101 254.475 18.4627C254.807 17.8209 255.019 17.1241 255.102 16.4062C255.205 15.5253 255.188 14.6346 255.052 13.7583C254.749 11.7382 254.111 10.2353 253.139 9.24953C252.7 8.77779 252.155 8.41651 251.55 8.19513C250.945 7.97376 250.297 7.89854 249.657 7.97559C248.218 8.11512 247.208 8.73087 246.63 9.8228C246.051 10.9147 245.912 12.4465 246.212 14.418C246.515 16.4654 247.146 17.9986 248.107 19.0178C248.545 19.5096 249.094 19.8902 249.708 20.1282C250.322 20.3663 250.984 20.4551 251.639 20.3872Z" fill="#F522ED"/>
<path d="M275.27 6.9564C276.084 6.92808 276.893 7.08358 277.639 7.41138C278.207 7.6673 278.702 8.06144 279.079 8.55791C279.406 8.99509 279.61 9.51196 279.67 10.0548C279.733 10.5605 279.681 11.0739 279.516 11.5562C279.36 12.0096 279.076 12.4079 278.698 12.7027C278.284 13.0158 277.769 13.1648 277.252 13.1213C276.893 13.1431 276.535 13.0525 276.229 12.8619C275.99 12.6935 275.793 12.4726 275.652 12.2159C275.508 11.9436 275.392 11.657 275.307 11.3606C275.217 11.0636 275.094 10.7781 274.939 10.5098C274.782 10.2489 274.567 10.0278 274.311 9.86368C273.968 9.6712 273.577 9.58117 273.184 9.60431C272.921 9.58922 272.659 9.63284 272.415 9.732C272.171 9.83115 271.953 9.98336 271.775 10.1776C271.43 10.5703 271.179 11.0373 271.043 11.5425C270.886 12.0989 270.792 12.6712 270.761 13.2486C270.73 13.8537 270.711 14.3633 270.711 14.7819V24.1179C270.685 24.6391 270.768 25.16 270.957 25.6466C271.047 25.8285 271.179 25.9866 271.342 26.1082C271.504 26.2299 271.693 26.3118 271.893 26.3473C272.064 26.3982 272.229 26.4684 272.384 26.5565C272.439 26.5877 272.484 26.6336 272.515 26.689C272.545 26.7444 272.56 26.8073 272.557 26.8705C272.557 27.1496 272.325 27.2769 271.861 27.2527C271.534 27.2527 271.07 27.2072 270.466 27.1799C269.861 27.1526 269.102 27.148 268.239 27.148C267.375 27.148 266.661 27.148 266.084 27.1799C265.507 27.2117 265.052 27.2299 264.72 27.2527C264.266 27.2527 264.061 27.148 264.061 26.8705C264.058 26.8072 264.072 26.7442 264.103 26.6886C264.133 26.6331 264.179 26.5873 264.234 26.5565C264.381 26.4662 264.533 26.3842 264.689 26.3109C264.846 26.2566 264.987 26.1622 265.097 26.0369C265.207 25.9117 265.282 25.7599 265.316 25.5966C265.423 25.1114 265.471 24.6147 265.457 24.1179V12.5161C265.47 12.0299 265.423 11.5439 265.316 11.0694C265.28 10.9031 265.205 10.748 265.095 10.6179C264.986 10.4878 264.846 10.3866 264.689 10.3232C264.528 10.2664 264.376 10.19 264.234 10.0957C264.177 10.0548 264.131 9.99985 264.101 9.93615C264.07 9.87246 264.057 9.80209 264.061 9.73172C264.061 9.47238 264.22 9.31316 264.548 9.24037C265.057 9.12663 265.775 8.92642 266.702 8.64888C267.748 8.32351 268.763 7.90477 269.734 7.39771C270.125 7.18843 270.348 7.30217 270.393 7.7435L270.639 10.5644V10.669C270.819 10.171 271.039 9.68863 271.298 9.22671C271.544 8.7819 271.862 8.38072 272.239 8.03924C272.62 7.69394 273.063 7.42243 273.543 7.23848C274.096 7.03704 274.682 6.94136 275.27 6.9564Z" fill="#F522ED"/>
<path d="M298.588 26.2018C298.708 26.3301 298.85 26.4363 299.006 26.5157C299.068 26.5421 299.12 26.5858 299.158 26.6416C299.195 26.6973 299.215 26.7626 299.216 26.8296C299.216 27.1345 298.984 27.2846 298.516 27.2846H298.134C297.716 27.2846 297.225 27.2846 296.706 27.2482C296.182 27.2268 295.665 27.1208 295.175 26.9343C294.669 26.7386 294.216 26.427 293.852 26.0243C293.411 25.4914 293.123 24.8479 293.02 24.1634C292.462 25.3209 291.539 26.2626 290.393 26.8432C289.238 27.4451 287.954 27.7573 286.652 27.7532C285.763 27.768 284.877 27.6452 284.025 27.3892C283.334 27.1793 282.693 26.8293 282.143 26.361C281.656 25.9367 281.264 25.4142 280.993 24.8277C280.718 24.238 280.563 23.5991 280.538 22.9487C280.477 21.8995 280.711 20.8541 281.216 19.9322C281.689 19.1363 282.329 18.4531 283.093 17.9304C283.899 17.3844 284.779 16.9569 285.707 16.661C286.67 16.3577 287.616 16.0847 288.543 15.8421C289.452 15.61 290.32 15.3871 291.102 15.1596C291.745 15.0025 292.353 14.7246 292.893 14.3406V13.781C292.893 12.8711 292.857 12.0203 292.788 11.2923C292.736 10.6564 292.582 10.0329 292.334 9.44513C292.147 8.98236 291.831 8.58289 291.425 8.29404C290.98 8.00625 290.459 7.85742 289.929 7.8664C289.321 7.82923 288.717 7.98873 288.207 8.32137C287.836 8.59789 287.548 8.97084 287.375 9.39965C287.197 9.83805 287.074 10.2964 287.007 10.7646C286.946 11.2302 286.834 11.6878 286.675 12.1295C286.534 12.5339 286.282 12.8903 285.948 13.1577C285.489 13.4549 284.937 13.5731 284.398 13.4898C283.919 13.4804 283.463 13.2864 283.125 12.9484C282.791 12.6197 282.573 12.1921 282.502 11.7291C282.426 11.2025 282.499 10.6652 282.711 10.1776C282.971 9.56674 283.384 9.03377 283.911 8.63077C284.612 8.08984 285.41 7.68686 286.261 7.44325C287.454 7.10669 288.691 6.95329 289.929 6.98828C292.599 6.98828 294.629 7.55699 296.02 8.69442C297.411 9.83185 298.108 11.6791 298.111 14.236C298.111 14.5135 298.111 15.0732 298.111 15.9103C298.111 16.7475 298.111 17.6529 298.111 18.6401C298.111 19.6274 298.111 20.5692 298.111 21.4973C298.111 22.4255 298.111 23.1443 298.111 23.6539C298.111 24.1634 298.111 24.6321 298.161 25.1189C298.178 25.5176 298.329 25.899 298.588 26.2018ZM288.984 24.7413C289.55 24.7528 290.112 24.6459 290.634 24.4274C291.091 24.2319 291.505 23.9474 291.852 23.5902C292.504 22.9181 292.872 22.0202 292.879 21.0833L292.916 15.9967C292.321 16.3752 291.683 16.6808 291.016 16.9067C290.186 17.2109 289.383 17.5837 288.616 18.0213C287.858 18.4457 287.181 19.0002 286.616 19.6593C286.332 20.0066 286.121 20.4076 285.995 20.8382C285.869 21.2689 285.832 21.7205 285.884 22.1662C285.884 22.5452 285.972 22.919 286.142 23.2579C286.311 23.5967 286.558 23.8912 286.861 24.118C287.477 24.562 288.226 24.7819 288.984 24.7413Z" fill="#F522ED"/>
<path d="M336.002 26.3426C336.151 26.4145 336.295 26.4966 336.433 26.5883C336.485 26.6219 336.527 26.6687 336.555 26.7238C336.583 26.7789 336.596 26.8405 336.593 26.9022C336.593 27.1797 336.37 27.3071 335.929 27.2844C335.629 27.2844 335.206 27.2389 334.661 27.2116C334.115 27.1843 333.434 27.1797 332.624 27.1797C331.815 27.1797 331.093 27.1797 330.534 27.2116C329.974 27.2434 329.561 27.2617 329.284 27.2844C328.829 27.2844 328.62 27.1797 328.62 26.9022C328.616 26.8405 328.629 26.7789 328.657 26.7238C328.685 26.6687 328.727 26.6219 328.779 26.5883C328.917 26.4966 329.061 26.4145 329.211 26.3426C329.371 26.2868 329.513 26.1896 329.623 26.0609C329.733 25.9323 329.807 25.7767 329.838 25.6101C329.944 25.1308 329.991 24.6404 329.979 24.1496V15.3004C329.983 14.538 329.919 13.7767 329.788 13.0256C329.68 12.3887 329.468 11.7739 329.161 11.2057C328.886 10.6984 328.477 10.2766 327.979 9.98638C327.397 9.66854 326.742 9.5115 326.079 9.53141C325.39 9.51176 324.71 9.68678 324.115 10.0364C323.572 10.3605 323.107 10.8 322.752 11.324C322.398 11.8673 322.143 12.4698 322.002 13.1029C321.853 13.7598 321.778 14.4313 321.779 15.1048V24.1632C321.77 24.6528 321.81 25.142 321.897 25.6237C321.924 25.7894 321.994 25.9448 322.101 26.0737C322.208 26.2026 322.348 26.3002 322.506 26.3562C322.693 26.4472 322.843 26.5291 322.961 26.6019C323.016 26.6331 323.061 26.6789 323.092 26.7343C323.122 26.7898 323.137 26.8526 323.134 26.9158C323.134 27.1934 322.915 27.3208 322.475 27.298C322.17 27.298 321.743 27.2525 321.188 27.2253C320.634 27.198 319.943 27.1934 319.134 27.1934C318.325 27.1934 317.638 27.1934 317.079 27.2253C316.52 27.2571 316.093 27.2753 315.793 27.298C315.338 27.298 315.129 27.1934 315.129 26.9158C315.126 26.8521 315.141 26.7887 315.172 26.7331C315.204 26.6775 315.25 26.6321 315.306 26.6019C315.453 26.5116 315.605 26.4295 315.761 26.3562C315.919 26.3002 316.059 26.2026 316.166 26.0737C316.273 25.9448 316.344 25.7894 316.37 25.6237C316.462 25.1426 316.503 24.653 316.493 24.1632V15.2777C316.497 14.516 316.439 13.7552 316.32 13.0028C316.221 12.3636 316.009 11.7473 315.693 11.183C315.407 10.6777 314.993 10.2569 314.493 9.96361C313.896 9.66512 313.236 9.51548 312.569 9.52736C311.901 9.53924 311.247 9.71231 310.661 10.0319C310.126 10.3575 309.67 10.7971 309.325 11.3194C308.966 11.8627 308.706 12.4649 308.556 13.0984C308.395 13.7533 308.314 14.4256 308.316 15.1003V24.1587C308.304 24.6492 308.35 25.1393 308.452 25.6192C308.484 25.7851 308.559 25.9398 308.669 26.0682C308.779 26.1966 308.92 26.2943 309.079 26.3517C309.237 26.4219 309.389 26.5041 309.534 26.5974C309.585 26.6312 309.626 26.6781 309.654 26.7333C309.681 26.7885 309.693 26.8499 309.688 26.9113C309.688 27.1888 309.47 27.3162 309.029 27.2935C308.752 27.2935 308.334 27.248 307.775 27.2207C307.216 27.1934 306.534 27.1888 305.72 27.1888C304.907 27.1888 304.197 27.1888 303.652 27.2207C303.107 27.2525 302.684 27.2707 302.379 27.2935C301.925 27.2935 301.72 27.1888 301.72 26.9113C301.716 26.8499 301.728 26.7885 301.755 26.7333C301.782 26.6781 301.823 26.6312 301.875 26.5974C302.02 26.5041 302.172 26.4219 302.329 26.3517C302.488 26.2943 302.629 26.1966 302.739 26.0682C302.849 25.9398 302.924 25.7851 302.957 25.6192C303.058 25.1393 303.104 24.6492 303.093 24.1587V12.557C303.105 12.071 303.059 11.5853 302.957 11.1101C302.92 10.9445 302.843 10.7901 302.734 10.6602C302.625 10.5303 302.486 10.4287 302.329 10.364C302.169 10.3072 302.016 10.2308 301.875 10.1365C301.817 10.0961 301.77 10.0415 301.739 9.97772C301.708 9.91399 301.693 9.84329 301.697 9.77251C301.697 9.51317 301.861 9.35395 302.184 9.28116C302.697 9.16741 303.416 8.96726 304.343 8.68973C305.387 8.36348 306.4 7.94477 307.37 7.43856C307.766 7.22927 307.984 7.34296 308.034 7.78428L308.275 10.6051L308.311 10.9555C308.556 10.4479 308.847 9.96359 309.179 9.50864C309.54 9.02052 309.976 8.59217 310.47 8.23925C311.017 7.84565 311.621 7.53873 312.261 7.32931C313.031 7.08327 313.835 6.96497 314.643 6.97903C316.461 6.97903 317.897 7.32933 318.979 8.02543C320.111 8.7947 320.932 9.94352 321.293 11.2648C321.523 10.7377 321.808 10.2361 322.143 9.76801C322.521 9.24242 322.981 8.78149 323.506 8.40309C324.103 7.97158 324.76 7.63114 325.456 7.39301C326.31 7.09746 327.208 6.94977 328.111 6.95626C330.62 6.95626 332.438 7.64784 333.565 9.03096C334.693 10.4141 335.255 12.4978 335.252 15.2823V24.1314C335.235 24.6279 335.279 25.1245 335.384 25.6101C335.413 25.7757 335.486 25.9305 335.595 26.0591C335.703 26.1877 335.844 26.2854 336.002 26.3426Z" fill="#F522ED"/>
<path d="M355.592 0.00901162C357.213 -0.0364855 358.454 0.195563 359.315 0.705131C360.047 1.07651 360.626 1.6931 360.951 2.44765C361.064 2.73432 361.112 3.04236 361.093 3.34982C361.073 3.65728 360.986 3.95664 360.838 4.2266C360.698 4.48961 360.486 4.70676 360.226 4.85202C359.967 4.99729 359.671 5.06452 359.374 5.04557C358.946 5.07446 358.521 4.96433 358.16 4.73162C357.891 4.53824 357.68 4.27365 357.551 3.96729C357.417 3.648 357.322 3.31332 357.27 2.97088C357.217 2.63534 357.141 2.30394 357.042 1.97907C356.961 1.68854 356.804 1.42477 356.588 1.2147C356.312 0.98322 355.956 0.870341 355.597 0.900737C355.219 0.889421 354.845 0.985703 354.52 1.17832C354.214 1.36584 353.957 1.62304 353.77 1.92898C353.569 2.24825 353.427 2.60122 353.351 2.97088C353.269 3.36587 353.228 3.76845 353.229 4.17201C353.231 4.47727 353.26 4.78175 353.315 5.08195C353.374 5.3966 353.474 5.70238 353.61 5.99189C353.755 6.28707 353.937 6.56235 354.151 6.81086C354.374 7.05483 354.637 7.25805 354.929 7.4114H357.96C358.306 7.4114 358.479 7.64345 358.479 8.10752C358.479 8.59434 358.306 8.83546 357.96 8.83546H355.174V24.1316C355.164 24.6214 355.205 25.1108 355.297 25.592C355.321 25.7586 355.39 25.9152 355.498 26.0445C355.605 26.1738 355.747 26.2707 355.906 26.3245C356.062 26.3978 356.214 26.4799 356.36 26.5702C356.417 26.6003 356.463 26.6459 356.495 26.7015C356.526 26.7571 356.541 26.8204 356.538 26.8842C356.538 27.1845 356.315 27.3118 355.874 27.2664C355.574 27.2664 355.142 27.2208 354.588 27.1935C354.033 27.1662 353.347 27.1617 352.533 27.1617C351.72 27.1617 351.006 27.1617 350.465 27.1935C349.924 27.2254 349.492 27.2436 349.192 27.2664C348.738 27.2664 348.533 27.1617 348.533 26.8842C348.53 26.8209 348.544 26.7578 348.574 26.7023C348.605 26.6468 348.651 26.601 348.706 26.5702C348.82 26.4974 348.974 26.4155 349.16 26.3245C349.32 26.2707 349.461 26.1738 349.569 26.0445C349.676 25.9152 349.746 25.7586 349.77 25.592C349.861 25.1108 349.902 24.6214 349.892 24.1316V8.83546H348.642C348.564 8.8457 348.484 8.83514 348.41 8.80481C348.337 8.77447 348.273 8.72543 348.224 8.66257C348.141 8.49014 348.105 8.29855 348.12 8.10752C348.103 7.92081 348.139 7.73319 348.224 7.56608C348.275 7.50651 348.34 7.46099 348.413 7.4339C348.486 7.4068 348.565 7.39906 348.642 7.4114H349.892V6.78354C349.889 5.94264 349.953 5.10282 350.083 4.27209C350.199 3.513 350.478 2.78815 350.901 2.14741C351.348 1.49939 351.954 0.977528 352.66 0.63232C353.582 0.21863 354.582 0.00615216 355.592 0.00901162Z" fill="#F522ED"/>
<path d="M370.106 6.95638C371.55 6.93455 372.984 7.21345 374.315 7.77535C375.524 8.29079 376.615 9.04957 377.519 10.0047C378.406 10.9572 379.096 12.075 379.551 13.2942C380.503 15.905 380.503 18.7681 379.551 21.3789C379.097 22.5987 378.407 23.7167 377.519 24.6684C376.615 25.6235 375.524 26.3823 374.315 26.8977C371.62 27.9898 368.606 27.9898 365.91 26.8977C364.708 26.3807 363.625 25.622 362.729 24.6684C361.837 23.7192 361.145 22.6006 360.692 21.3789C359.741 18.7681 359.741 15.905 360.692 13.2942C361.146 12.073 361.838 10.9546 362.729 10.0047C363.625 9.05114 364.708 8.29236 365.91 7.77535C367.237 7.21249 368.666 6.93351 370.106 6.95638ZM368.365 8.13929C367.598 8.27511 366.905 8.68392 366.415 9.29038C365.897 9.96035 365.535 10.7375 365.356 11.5652C365.127 12.5704 365.032 13.6016 365.074 14.6317C365.115 15.8066 365.238 16.9772 365.442 18.135C365.642 19.3035 365.946 20.4516 366.351 21.5655C366.701 22.5589 367.181 23.5013 367.779 24.3681C368.264 25.0936 368.906 25.7014 369.656 26.1471C370.343 26.5433 371.15 26.679 371.929 26.5292C372.691 26.3936 373.378 25.9844 373.86 25.3782C374.367 24.7053 374.718 23.9283 374.888 23.1033C375.104 22.0962 375.197 21.0665 375.165 20.0368C375.137 18.8634 375.02 17.6938 374.815 16.5381C374.62 15.3626 374.316 14.2079 373.906 13.0894C373.554 12.1047 373.08 11.1678 372.497 10.3004C372.019 9.57493 371.383 8.96683 370.638 8.52145C369.946 8.13639 369.142 8.00755 368.365 8.15751V8.13929Z" fill="#F522ED"/>
<path d="M393.665 6.9564C394.478 6.92808 395.288 7.08358 396.033 7.41138C396.603 7.66732 397.099 8.06139 397.479 8.55791C397.802 8.99719 398.005 9.51302 398.069 10.0548C398.129 10.5609 398.074 11.0738 397.91 11.5562C397.756 12.0105 397.471 12.4092 397.092 12.7027C396.678 13.0158 396.164 13.1648 395.647 13.1213C395.287 13.1425 394.93 13.0519 394.624 12.8619C394.385 12.6935 394.187 12.4726 394.047 12.2159C393.902 11.9436 393.786 11.657 393.701 11.3606C393.614 11.0629 393.49 10.7772 393.333 10.5098C393.177 10.2501 392.964 10.0292 392.71 9.86368C392.365 9.67178 391.973 9.58182 391.579 9.60431C391.316 9.58954 391.053 9.63331 390.81 9.73244C390.566 9.83157 390.347 9.98361 390.17 10.1776C389.826 10.5715 389.576 11.0381 389.438 11.5425C389.282 12.0991 389.189 12.6714 389.16 13.2486C389.124 13.8537 389.106 14.3633 389.106 14.7819V24.1179C389.079 24.6391 389.163 25.16 389.351 25.6466C389.442 25.8285 389.574 25.9866 389.736 26.1082C389.899 26.2299 390.088 26.3118 390.288 26.3473C390.459 26.3982 390.623 26.4684 390.779 26.5565C390.834 26.5877 390.879 26.6336 390.909 26.689C390.94 26.7444 390.954 26.8073 390.951 26.8705C390.951 27.1496 390.719 27.2769 390.256 27.2527C389.929 27.2527 389.465 27.2072 388.865 27.1799C388.265 27.1526 387.501 27.148 386.633 27.148C385.765 27.148 385.056 27.148 384.479 27.1799C383.901 27.2117 383.447 27.2299 383.115 27.2527C382.66 27.2527 382.456 27.148 382.456 26.8705C382.452 26.8072 382.467 26.7442 382.497 26.6886C382.528 26.6331 382.573 26.5873 382.629 26.5565C382.747 26.4837 382.897 26.4019 383.083 26.3109C383.24 26.256 383.38 26.1612 383.489 26.036C383.598 25.9108 383.673 25.7594 383.706 25.5966C383.813 25.1114 383.861 24.6147 383.847 24.1179V12.5161C383.86 12.0299 383.813 11.5439 383.706 11.0694C383.671 10.9037 383.595 10.7491 383.487 10.6191C383.378 10.4891 383.24 10.3875 383.083 10.3232C382.924 10.265 382.771 10.1887 382.629 10.0957C382.571 10.0548 382.525 9.99985 382.495 9.93615C382.465 9.87246 382.451 9.80209 382.456 9.73172C382.456 9.47238 382.615 9.31316 382.942 9.24037C383.451 9.12663 384.17 8.92642 385.101 8.64888C386.146 8.32264 387.159 7.90392 388.129 7.39771C388.524 7.18843 388.742 7.30217 388.788 7.7435L389.033 10.5644V10.669C389.213 10.171 389.434 9.68863 389.692 9.22671C389.939 8.7819 390.257 8.38072 390.633 8.03924C391.016 7.69486 391.458 7.42346 391.938 7.23848C392.491 7.03704 393.077 6.94136 393.665 6.9564Z" fill="#F522ED"/>
<path d="M443.564 26.3429C443.722 26.4131 443.874 26.4953 444.019 26.5886C444.071 26.6222 444.113 26.6689 444.141 26.7241C444.169 26.7792 444.181 26.8407 444.178 26.9025C444.178 27.18 443.955 27.3074 443.514 27.2847C443.214 27.2847 442.787 27.2392 442.246 27.2119C441.705 27.1846 441.019 27.18 440.21 27.18C439.401 27.18 438.678 27.18 438.119 27.2119C437.56 27.2437 437.146 27.2619 436.869 27.2847C436.414 27.2847 436.205 27.18 436.205 26.9025C436.202 26.8407 436.215 26.7792 436.243 26.7241C436.271 26.6689 436.313 26.6222 436.364 26.5886C436.502 26.4959 436.646 26.4138 436.796 26.3429C436.956 26.287 437.098 26.1899 437.208 26.0612C437.319 25.9326 437.393 25.777 437.423 25.6104C437.529 25.1311 437.577 24.6407 437.564 24.1499V15.3007C437.568 14.5383 437.504 13.777 437.373 13.0259C437.265 12.389 437.053 11.7742 436.746 11.206C436.472 10.6987 436.063 10.2769 435.564 9.98668C434.983 9.66883 434.327 9.5118 433.664 9.5317C432.975 9.51205 432.295 9.68707 431.701 10.0367C431.157 10.3595 430.691 10.7992 430.337 11.3243C429.979 11.8656 429.725 12.4688 429.587 13.1032C429.438 13.7601 429.364 14.4316 429.364 15.1051V24.1635C429.353 24.6531 429.393 25.1426 429.483 25.624C429.509 25.7897 429.579 25.9451 429.687 26.074C429.794 26.2029 429.934 26.3005 430.092 26.3565C430.278 26.4475 430.428 26.5294 430.546 26.6022C430.601 26.6334 430.647 26.6792 430.677 26.7346C430.708 26.7901 430.722 26.8529 430.719 26.9161C430.719 27.1937 430.501 27.321 430.06 27.2983C429.755 27.2983 429.328 27.2528 428.769 27.2255C428.21 27.1982 427.528 27.1937 426.719 27.1937C425.91 27.1937 425.219 27.1937 424.664 27.2255C424.11 27.2574 423.678 27.2755 423.378 27.2983C422.924 27.2983 422.715 27.1937 422.715 26.9161C422.711 26.8529 422.726 26.7901 422.756 26.7346C422.787 26.6792 422.832 26.6334 422.887 26.6022C423.005 26.5294 423.155 26.4475 423.342 26.3565C423.5 26.3005 423.64 26.2029 423.747 26.074C423.854 25.9451 423.925 25.7897 423.951 25.624C424.043 25.1428 424.084 24.6533 424.074 24.1635V15.278C424.079 14.5161 424.019 13.7551 423.896 13.0031C423.801 12.3637 423.59 11.747 423.274 11.1833C422.988 10.6767 422.572 10.2557 422.069 9.9639C421.501 9.64881 420.859 9.49171 420.21 9.50893C419.52 9.48867 418.837 9.6637 418.242 10.0139C417.707 10.3406 417.249 10.78 416.901 11.3015C416.546 11.8461 416.288 12.4479 416.137 13.0804C415.974 13.7352 415.892 14.4075 415.892 15.0823V24.1408C415.882 24.6315 415.929 25.1216 416.033 25.6013C416.063 25.7679 416.138 25.9235 416.248 26.0521C416.358 26.1808 416.5 26.2779 416.66 26.3338C416.818 26.404 416.969 26.4861 417.115 26.5795C417.166 26.6133 417.207 26.6602 417.234 26.7154C417.262 26.7706 417.274 26.832 417.269 26.8934C417.269 27.1709 417.046 27.2983 416.61 27.2756C416.328 27.2756 415.91 27.2301 415.355 27.2028C414.801 27.1755 414.115 27.1709 413.301 27.1709C412.487 27.1709 411.774 27.1709 411.233 27.2028C410.692 27.2346 410.26 27.2528 409.96 27.2756C409.506 27.2756 409.301 27.1709 409.301 26.8934C409.297 26.832 409.309 26.7706 409.336 26.7154C409.363 26.6602 409.404 26.6133 409.456 26.5795C409.601 26.4861 409.753 26.404 409.91 26.3338C410.069 26.2763 410.21 26.1787 410.32 26.0503C410.43 25.9219 410.505 25.7672 410.537 25.6013C410.639 25.1214 410.685 24.6313 410.674 24.1408V12.5391C410.686 12.0531 410.64 11.5674 410.537 11.0922C410.5 10.9265 410.424 10.7722 410.315 10.6423C410.206 10.5124 410.067 10.4108 409.91 10.3461C409.75 10.2879 409.598 10.2116 409.456 10.1186C409.399 10.0771 409.353 10.0221 409.323 9.95852C409.293 9.89496 409.279 9.8249 409.283 9.75464C409.283 9.4953 409.446 9.33603 409.769 9.26323C410.278 9.14949 411.001 8.94933 411.928 8.6718C412.963 8.34111 413.967 7.91937 414.928 7.41152C415.324 7.20224 415.542 7.31598 415.592 7.7573L415.833 10.5781L415.869 10.9284C416.114 10.4208 416.405 9.93661 416.737 9.48166C417.098 8.99472 417.532 8.56652 418.024 8.21228C418.58 7.81749 419.193 7.51059 419.842 7.30233C420.604 7.06028 421.401 6.9435 422.201 6.95655C424.019 6.95655 425.464 7.30538 426.537 8.00301C427.668 8.77373 428.488 9.92197 428.851 11.2424C429.082 10.7153 429.366 10.2136 429.701 9.74553C430.079 9.21994 430.539 8.75901 431.064 8.38061C431.661 7.9491 432.318 7.60871 433.014 7.37059C433.872 7.08654 434.771 6.95113 435.673 6.97021C438.183 6.97021 440.001 7.66174 441.128 9.04485C442.255 10.428 442.817 12.5117 442.814 15.2962V24.1454C442.803 24.6358 442.849 25.1259 442.951 25.6058C442.981 25.7711 443.054 25.9257 443.161 26.0548C443.269 26.1839 443.407 26.2831 443.564 26.3429Z" fill="#F522ED"/>
<path d="M456.291 6.95638C457.736 6.93534 459.169 7.21421 460.5 7.77535C461.702 8.29236 462.785 9.05114 463.682 10.0047C464.571 10.9558 465.263 12.0738 465.718 13.2942C466.67 15.905 466.67 18.7681 465.718 21.3789C465.264 22.5998 464.572 23.718 463.682 24.6684C462.785 25.622 461.702 26.3807 460.5 26.8977C459.169 27.4589 457.736 27.7378 456.291 27.7167C454.851 27.7396 453.422 27.4606 452.096 26.8977C450.895 26.3793 449.812 25.6207 448.914 24.6684C448.025 23.7178 447.335 22.5996 446.882 21.3789C445.925 18.7692 445.925 15.9039 446.882 13.2942C447.336 12.0741 448.026 10.956 448.914 10.0047C449.812 9.05241 450.895 8.29383 452.096 7.77535C453.422 7.21249 454.851 6.93351 456.291 6.95638ZM454.55 8.13929C453.783 8.27511 453.09 8.68392 452.6 9.29038C452.083 9.96104 451.72 10.7378 451.537 11.5652C451.311 12.571 451.218 13.6018 451.26 14.6317C451.301 15.8066 451.424 16.9772 451.628 18.135C451.827 19.3035 452.131 20.4516 452.537 21.5655C452.885 22.5597 453.365 23.5024 453.964 24.3681C454.45 25.0936 455.091 25.7014 455.841 26.1471C456.528 26.5433 457.335 26.679 458.114 26.5292C458.876 26.3936 459.563 25.9844 460.046 25.3782C460.552 24.7053 460.903 23.9283 461.073 23.1033C461.288 22.0959 461.381 21.0664 461.35 20.0368C461.322 18.8634 461.205 17.6938 461 16.5381C460.806 15.3626 460.502 14.2079 460.091 13.0894C459.739 12.1047 459.266 11.1678 458.682 10.3004C458.204 9.57371 457.566 8.96539 456.819 8.52145C456.134 8.14063 455.338 8.01188 454.569 8.15751L454.55 8.13929Z" fill="#F522ED"/>
<path d="M479.868 6.9564C480.682 6.92808 481.491 7.08358 482.236 7.41138C482.805 7.6673 483.3 8.06144 483.677 8.55791C484.004 8.99509 484.208 9.51196 484.268 10.0548C484.331 10.5605 484.278 11.0739 484.114 11.5562C483.958 12.0096 483.673 12.4079 483.296 12.7027C482.882 13.0158 482.367 13.1648 481.85 13.1213C481.491 13.1431 481.133 13.0525 480.827 12.8619C480.588 12.6935 480.391 12.4726 480.25 12.2159C480.105 11.9436 479.99 11.657 479.905 11.3606C479.815 11.0636 479.692 10.7781 479.536 10.5098C479.38 10.2489 479.165 10.0278 478.909 9.86368C478.566 9.6712 478.175 9.58117 477.782 9.60431C477.519 9.5895 477.255 9.63327 477.011 9.73238C476.766 9.8315 476.547 9.98351 476.368 10.1776C476.026 10.5717 475.777 11.0384 475.641 11.5425C475.484 12.0989 475.389 12.6712 475.359 13.2486C475.327 13.8537 475.309 14.3633 475.309 14.7819V24.1179C475.282 24.6391 475.366 25.16 475.555 25.6466C475.645 25.8285 475.777 25.9866 475.94 26.1082C476.102 26.2299 476.291 26.3118 476.491 26.3473C476.661 26.3972 476.824 26.4675 476.977 26.5565C477.034 26.5867 477.08 26.6322 477.112 26.6878C477.143 26.7434 477.158 26.8067 477.155 26.8705C477.155 27.1496 476.923 27.2769 476.459 27.2527C476.132 27.2527 475.668 27.2072 475.064 27.1799C474.459 27.1526 473.7 27.148 472.837 27.148C471.973 27.148 471.259 27.148 470.682 27.1799C470.105 27.2117 469.646 27.2299 469.318 27.2527C468.864 27.2527 468.659 27.148 468.659 26.8705C468.656 26.8072 468.67 26.7442 468.7 26.6886C468.731 26.6331 468.777 26.5873 468.832 26.5565C468.979 26.4662 469.131 26.3842 469.287 26.3109C469.445 26.2598 469.587 26.1683 469.7 26.0455C469.812 25.9226 469.891 25.7726 469.927 25.6102C470.035 25.125 470.082 24.6284 470.068 24.1316V12.5298C470.082 12.0435 470.034 11.5575 469.927 11.083C469.892 10.9167 469.816 10.7617 469.707 10.6316C469.598 10.5014 469.458 10.4002 469.3 10.3369C469.14 10.2801 468.987 10.2037 468.846 10.1094C468.788 10.0685 468.742 10.0135 468.712 9.94982C468.682 9.88612 468.668 9.81575 468.673 9.74538C468.673 9.48605 468.832 9.32683 469.159 9.25403C469.668 9.14029 470.387 8.94008 471.314 8.66255C472.36 8.33717 473.374 7.91843 474.346 7.41138C474.736 7.20209 474.959 7.31584 475.005 7.75716L475.25 10.578V10.6826C475.428 10.1838 475.649 9.70135 475.909 9.24037C476.156 8.79556 476.474 8.39438 476.85 8.0529C477.232 7.7076 477.674 7.4361 478.155 7.25215C478.702 7.04774 479.284 6.94743 479.868 6.9564Z" fill="#F522ED"/>
<path d="M495.25 6.95641C496.344 6.91613 497.438 7.05758 498.486 7.37501C499.34 7.63914 500.145 8.03851 500.873 8.55792C501.504 9.01675 502.055 9.57624 502.504 10.214C502.915 10.7901 503.25 11.4171 503.5 12.0794C503.724 12.6655 503.877 13.2766 503.954 13.8993C504.028 14.4016 504.028 14.912 503.954 15.4143C503.952 15.5018 503.931 15.5878 503.894 15.6672C503.858 15.7466 503.805 15.8177 503.74 15.8763C503.675 15.935 503.599 15.9799 503.516 16.0084C503.434 16.0369 503.346 16.0483 503.259 16.0422H490.764C490.786 16.3015 490.814 16.5426 490.836 16.7747C490.859 17.0067 490.891 17.2296 490.941 17.5072C491.097 18.5754 491.425 19.6111 491.914 20.5737C492.339 21.4057 492.91 22.1546 493.6 22.7849C494.249 23.3768 495.005 23.84 495.827 24.1498C496.659 24.4526 497.538 24.6066 498.423 24.6048C499.912 24.5911 501.374 24.1965 502.668 23.4582C503.018 23.2717 503.282 23.2489 503.468 23.3854C503.654 23.5219 503.632 23.8404 503.4 24.1862C503.168 24.5319 502.845 24.8095 502.441 25.2144C501.979 25.6649 501.465 26.0575 500.909 26.3837C500.225 26.7862 499.495 27.1069 498.736 27.3391C497.799 27.6213 496.824 27.7563 495.845 27.7395C494.503 27.7525 493.17 27.5165 491.914 27.0434C490.734 26.6014 489.653 25.9321 488.732 25.0733C487.817 24.2133 487.085 23.1783 486.577 22.0296C486.03 20.7941 485.7 19.4737 485.6 18.126C485.478 16.6874 485.632 15.2388 486.055 13.8583C486.447 12.5719 487.092 11.3763 487.95 10.3414C488.809 9.31976 489.877 8.49442 491.082 7.92095C492.382 7.29323 493.806 6.96372 495.25 6.95641ZM497.132 14.6181C497.504 14.6239 497.877 14.6011 498.245 14.5499C498.481 14.5212 498.704 14.4248 498.886 14.2723C499.047 14.1129 499.151 13.9051 499.182 13.6809C499.231 13.3573 499.243 13.0291 499.218 12.7027C499.19 12.1419 499.09 11.587 498.923 11.0512C498.757 10.4971 498.504 9.97323 498.173 9.49969C497.848 9.03265 497.434 8.63515 496.954 8.33043C496.424 8.00895 495.813 7.84661 495.193 7.86275C494.574 7.87888 493.972 8.07278 493.459 8.42141C492.896 8.81009 492.422 9.31411 492.068 9.90006C491.661 10.5657 491.355 11.2878 491.159 12.043C490.937 12.8852 490.803 13.7482 490.759 14.6181H497.132Z" fill="#F522ED"/>
</svg>
