<svg width="29" height="29" viewBox="0 0 29 29" fill="none" xmlns="http://www.w3.org/2000/svg">
<path d="M14.4099 0C10.5047 0 10.0012 1.00045e-05 8.46361 0.0956302C7.26888 0.12105 6.08683 0.347285 4.96659 0.764958C4.00255 1.12561 3.12925 1.69458 2.40845 2.43153C1.67875 3.15871 1.11269 4.03431 0.748385 4.99954C0.329561 6.12336 0.104103 7.31049 0.0816393 8.51017C0.0816393 10.0538 0 10.5455 0 14.4796C0 18.4137 -3.32022e-06 18.9054 0.0816393 20.449C0.104103 21.6487 0.329561 22.8358 0.748385 23.9597C1.11269 24.9249 1.67875 25.8006 2.40845 26.5278C3.12925 27.2647 4.00255 27.8337 4.96659 28.1943C6.08683 28.612 7.26888 28.8382 8.46361 28.8637C10.0012 28.9456 10.5047 28.9593 14.4099 28.9593C18.3152 28.9593 18.8186 28.9593 20.3562 28.8637C21.5555 28.8395 22.7423 28.6132 23.8669 28.1943C24.8233 27.8222 25.6916 27.2532 26.4157 26.5238C27.1399 25.7945 27.7039 24.921 28.0715 23.9597C28.5021 22.8387 28.7324 21.6503 28.7518 20.449C28.8198 18.9054 28.8335 18.4137 28.8335 14.4796C28.8335 10.5455 28.8335 10.0538 28.7518 8.51017C28.7324 7.30891 28.5021 6.12049 28.0715 4.99954C27.7039 4.03817 27.1399 3.16477 26.4157 2.43544C25.6916 1.70612 24.8233 1.13708 23.8669 0.764958C22.7423 0.346034 21.5555 0.119784 20.3562 0.0956302C18.8458 1.00045e-05 18.356 0 14.4099 0ZM14.4099 2.60903C18.2607 2.60903 18.7234 2.60903 20.2474 2.69099C21.1773 2.6949 22.099 2.86615 22.9688 3.19648C23.5968 3.42449 24.1647 3.79357 24.6289 4.2756C25.1061 4.744 25.4733 5.31328 25.7038 5.94208C26.0309 6.81579 26.2014 7.74073 26.2073 8.67409C26.2073 10.204 26.2889 10.6548 26.2889 14.5206C26.2889 18.3864 26.2889 18.8508 26.2073 20.3671C26.2031 21.3006 26.0326 22.2258 25.7038 23.0991C25.4667 23.7208 25.1019 24.2854 24.633 24.7561C24.1641 25.2269 23.6017 25.5931 22.9824 25.8311C22.1126 26.1614 21.1909 26.3327 20.261 26.3366C18.737 26.3366 18.2743 26.4185 14.4235 26.4185C10.5727 26.4185 10.1237 26.4185 8.59969 26.3366C7.67011 26.3289 6.74906 26.1578 5.87827 25.8311C5.25351 25.5965 4.68706 25.2283 4.2182 24.752C3.73805 24.286 3.37036 23.716 3.14324 23.0855C2.82107 22.2109 2.65524 21.286 2.65338 20.3535C2.58535 18.8372 2.57174 18.3727 2.57174 14.5069C2.57174 10.6412 2.57174 10.1904 2.65338 8.6605C2.65693 7.72814 2.82271 6.80357 3.14324 5.92849C3.37373 5.29969 3.74096 4.73033 4.2182 4.26192C4.68706 3.78561 5.25351 3.41742 5.87827 3.18281C6.74906 2.8561 7.67011 2.68505 8.59969 2.6774C10.1237 2.6774 10.5727 2.59544 14.4235 2.59544" fill="#F522ED"/>
<path d="M14.4101 19.3295C13.4607 19.3268 12.5334 19.0417 11.7453 18.5102C10.9572 17.9787 10.3437 17.2246 9.98219 16.3433C9.62072 15.462 9.52754 14.4929 9.71441 13.5584C9.90128 12.624 10.3598 11.7661 11.0321 11.0931C11.7044 10.4201 12.5603 9.96212 13.4917 9.77717C14.423 9.59221 15.3881 9.68852 16.265 10.0539C17.1419 10.4192 17.8913 11.0372 18.4185 11.8299C18.9457 12.6226 19.2271 13.5544 19.2271 14.5075C19.2271 15.1419 19.1024 15.7701 18.8601 16.356C18.6179 16.9419 18.2629 17.4741 17.8154 17.922C17.3679 18.3699 16.8368 18.7248 16.2525 18.9663C15.6681 19.2079 15.0421 19.3313 14.4101 19.3295ZM14.4101 7.03549C12.9467 7.03819 11.5169 7.47626 10.3014 8.29444C9.08587 9.11261 8.13923 10.2742 7.58105 11.6322C7.02288 12.9903 6.87823 14.484 7.16538 15.9246C7.45254 17.3652 8.1586 18.688 9.19437 19.7259C10.2301 20.7638 11.5491 21.4702 12.9846 21.7558C14.4202 22.0414 15.9078 21.8934 17.2596 21.3306C18.6114 20.7677 19.7667 19.8153 20.5795 18.5936C21.3922 17.3718 21.826 15.9357 21.826 14.4665C21.8224 12.4945 21.0395 10.6043 19.6492 9.21114C18.2588 7.81794 16.3746 7.03548 14.4101 7.03549ZM23.9351 6.83055C23.9351 7.17367 23.8338 7.50907 23.6439 7.79436C23.454 8.07965 23.1841 8.30204 22.8683 8.43334C22.5526 8.56464 22.2051 8.59899 21.8699 8.53205C21.5347 8.46512 21.2267 8.29986 20.9851 8.05724C20.7434 7.81462 20.5788 7.50549 20.5121 7.16897C20.4455 6.83245 20.4797 6.48364 20.6105 6.16664C20.7413 5.84965 20.9628 5.57872 21.2469 5.3881C21.5311 5.19747 21.8652 5.0957 22.207 5.0957C22.6653 5.0957 23.1049 5.27853 23.429 5.60387C23.7531 5.92921 23.9351 6.37045 23.9351 6.83055Z" fill="#F522ED"/>
</svg>
