<svg className="z-10" width="238" height="69" viewBox="0 0 238 69" fill="none" xmlns="http://www.w3.org/2000/svg">
<path d="M6.90295 46.8748C7.21466 46.7206 7.54767 46.6138 7.89093 46.5581C8.79512 46.3967 9.72716 46.5681 10.5148 47.0406C11.3941 47.5518 12.1007 48.314 12.5442 49.2293C12.8602 49.8861 13.0796 50.5852 13.1954 51.3048L13.2617 51.6725C13.4344 52.4903 13.4221 53.3362 13.226 54.1487C12.8245 55.4621 12.0676 56.6389 11.039 57.5489C9.89918 58.5752 8.54627 59.3363 7.0774 59.7775L6.15238 60.0471L6.85544 63.5737L7.52198 67.0711L7.04151 67.6758C6.84832 67.9831 6.55982 68.2187 6.22011 68.3466C6.03625 68.3541 5.85271 68.3251 5.68017 68.2611C5.50762 68.1972 5.34951 68.0996 5.21501 67.974C4.88526 67.7737 4.64196 67.4577 4.53261 67.0877L4.37657 66.2226C3.96777 63.9561 3.35858 60.7684 2.54902 56.6595C1.73946 52.5507 1.29158 50.3894 1.20539 50.1757C1.15766 50.0581 1.12354 49.9354 1.10369 49.81C1.0972 49.4819 1.2133 49.1631 1.42929 48.9161C1.77113 48.4837 2.02896 48.2541 2.19765 48.2237C2.55883 48.2031 2.91453 48.3191 3.19417 48.5486C3.50778 48.7098 3.74555 48.9877 3.85629 49.3224C3.90544 49.5949 3.98585 49.7189 4.09831 49.6986C4.21078 49.6783 4.33997 49.5031 4.49178 49.181C4.74869 48.7146 5.08416 48.296 5.48342 47.9436C5.89872 47.5164 6.37755 47.1558 6.90295 46.8748ZM9.17382 49.5603C9.08511 49.4736 8.97982 49.4056 8.86425 49.3604C8.74867 49.3153 8.62517 49.2938 8.50114 49.2975C8.29651 49.3606 8.1026 49.4543 7.926 49.5754C7.3219 49.9405 6.83248 50.7597 6.45774 52.0332C6.23023 52.8491 6.08187 53.685 6.0147 54.5293C5.9074 55.2628 5.89156 56.0068 5.96755 56.7441C6.00032 56.9258 6.05364 57.0234 6.12909 57.0455C6.3247 57.054 6.51974 57.0188 6.70006 56.9425C7.87506 56.5431 8.91349 55.8202 9.6959 54.8569C10.0333 54.482 10.2872 54.0396 10.4408 53.5592C10.5944 53.0788 10.6441 52.5712 10.5867 52.0701C10.4788 51.5721 10.2916 51.0947 10.0324 50.656C9.8268 50.2313 9.52905 49.8578 9.16084 49.5627L9.17382 49.5603Z" fill="#F522ED"/>
<path d="M19.2915 44.2205C19.5297 44.1389 19.7728 44.0727 20.0195 44.0222C20.8966 43.8816 21.7923 43.9079 22.6596 44.0998C23.498 44.2363 24.2918 44.5709 24.975 45.0757C25.6093 45.542 26.1247 46.1514 26.4793 46.8543C26.8941 47.913 27.1859 49.0157 27.349 50.1409C27.5505 51.3819 27.6602 52.1884 27.6841 52.5682C27.6922 53.0628 27.6403 53.5566 27.5295 54.0387C27.3874 54.7342 27.1975 55.419 26.9613 56.0884C26.8305 56.3473 26.7627 56.6335 26.7635 56.9236C26.7877 57.0577 26.556 57.4076 26.0544 57.9447C25.6589 58.4013 25.2152 58.8137 24.731 59.1749C24.1749 59.5761 23.5343 59.8445 22.8582 59.9593C21.9654 60.1239 21.0441 60.0314 20.2018 59.6925C19.3305 59.3525 18.5736 58.7719 18.0196 58.0183C17.13 56.8045 16.5423 55.3965 16.305 53.9105C16.1795 53.1532 16.0998 52.389 16.0665 51.6221C16.0358 50.2725 16.2149 48.9264 16.5973 47.6318C16.7813 46.8327 17.1256 46.0793 17.6092 45.4172C18.0597 44.8823 18.6385 44.4706 19.2915 44.2205ZM22.2429 46.8904C21.7647 46.7213 21.2549 46.6607 20.7504 46.713C20.4778 46.7557 20.2223 46.8729 20.0121 47.0516C19.7608 47.2616 19.5581 47.5237 19.4181 47.8198C19.2704 48.0399 19.1853 48.296 19.1722 48.5608C19.1629 49.0187 19.1168 49.4751 19.0342 49.9256C18.9371 50.8952 18.9501 51.8728 19.073 52.8395C19.0931 53.1015 19.1282 53.3621 19.178 53.6201C19.4534 55.147 20.0184 56.2241 20.8745 56.8602C21.0901 57.001 21.3322 57.0964 21.5858 57.1404C21.8395 57.1845 22.0995 57.1765 22.35 57.1167C22.6471 57.0783 22.9333 56.9796 23.1909 56.8265C23.4728 56.5709 23.7205 56.2801 23.928 55.9611C24.107 55.71 24.2622 55.4428 24.3915 55.1629C24.4769 54.9863 24.5423 54.8008 24.5865 54.6097C24.6071 54.4764 24.6381 54.252 24.6743 53.9328C24.7105 53.6137 24.7471 53.3212 24.7935 53.0583C24.8805 52.4481 24.8623 51.8275 24.7395 51.2235C24.7239 51.1369 24.6973 50.9899 24.6614 50.7909C24.6255 50.5919 24.5943 50.4189 24.5702 50.2849C24.4337 49.4219 24.1609 48.5862 23.7618 47.809C23.3871 47.3248 22.8457 46.9974 22.2429 46.8904Z" fill="#F522ED"/>
<path d="M29.392 43.341C29.6097 43.0424 29.9303 42.8349 30.2919 42.7588C30.4685 42.727 30.6497 42.7316 30.8244 42.7723C30.9992 42.813 31.1638 42.8889 31.3082 42.9954C31.4398 43.0769 31.5536 43.1842 31.6425 43.311C31.7314 43.4378 31.7936 43.5813 31.8253 43.7328C31.8339 43.7804 31.8823 44.0486 31.902 44.5542L32.0155 45.753L32.955 44.4C33.3512 43.7885 33.8299 43.2348 34.3777 42.7544C34.848 42.4009 35.3986 42.1696 35.9802 42.0812C36.1937 42.0403 36.4097 42.0132 36.6267 42.0004C38.2033 41.8768 39.273 42.1618 39.8385 42.8458C39.9523 42.9783 40.0287 43.1387 40.0597 43.3106C40.0907 43.4825 40.0752 43.6595 40.0148 43.8234C39.9397 44.0876 39.7918 44.3253 39.5882 44.5097C39.3846 44.6941 39.1334 44.8176 38.8631 44.8663C38.5692 44.9157 38.2698 44.9231 37.9738 44.8882C37.5127 44.8132 37.0433 44.8031 36.5794 44.8583C35.8614 44.9879 35.2788 45.745 34.8303 47.1211C34.5696 48.1713 34.4206 49.2461 34.3859 50.3276C34.2816 51.3662 34.2892 52.4129 34.4086 53.4499C34.412 53.5012 34.4212 53.552 34.4359 53.6013C34.4461 53.6575 34.4531 53.6964 34.457 53.7181C34.4998 53.8249 34.5304 53.9363 34.5481 54.05C34.565 54.373 34.477 54.6929 34.2972 54.9617C34.2035 55.1528 34.0658 55.319 33.8956 55.4467C33.7254 55.5744 33.5273 55.6601 33.3177 55.6967C33.0194 55.737 32.7158 55.6889 32.4446 55.5584C32.1734 55.4279 31.9464 55.2207 31.7918 54.9625C31.1006 54.0689 30.3748 51.8357 29.6142 48.2629C29.356 47.1036 29.2049 46.3894 29.155 46.1126C29.0252 45.5171 28.9679 44.9081 28.9841 44.2989C29.0229 43.9464 29.1648 43.6132 29.392 43.341Z" fill="#F522ED"/>
<path d="M46.2799 35.3734C46.2946 35.23 46.3402 35.0915 46.4133 34.9673C46.4865 34.8432 46.5856 34.7362 46.7039 34.6538C46.9548 34.4505 47.2521 34.3125 47.5693 34.2521C47.8317 34.208 48.1009 34.2317 48.3516 34.3209C48.6022 34.4102 48.8258 34.562 49.0012 34.762C49.1477 34.8958 49.252 35.0695 49.3012 35.2617C49.3217 35.4477 49.3196 35.6356 49.2949 35.8211C49.256 36.3852 49.2774 36.9518 49.3586 37.5113L49.472 38.5359L50.4316 38.2601C50.6159 38.1995 50.8047 38.1535 50.9963 38.1225C51.3165 38.0791 51.6421 38.1429 51.9223 38.3039C52.1009 38.3989 52.2541 38.5354 52.3689 38.7021C52.4837 38.8687 52.5567 39.0605 52.5818 39.2613C52.6175 39.4674 52.6208 39.6778 52.5915 39.8848C52.4868 40.3444 51.864 40.7545 50.7232 41.1151L49.7741 41.4247L49.8521 42.4512C50.055 45.381 50.4185 48.2974 50.9409 51.1873C51.0953 51.9432 51.2106 52.7065 51.2864 53.4742C51.2924 53.7565 51.2077 54.0332 51.0447 54.2637C50.9625 54.4118 50.8499 54.5408 50.7142 54.6423C50.5785 54.7437 50.4229 54.8153 50.2576 54.8523C49.9106 54.8919 49.5609 54.8061 49.2716 54.6103C49.0425 54.4817 48.8609 54.2826 48.7539 54.0427C48.5644 53.4305 48.4061 52.8091 48.2796 52.1809L48.1525 51.4759C47.9332 50.2604 47.698 48.6593 47.441 46.6646C47.1839 44.6699 47.0505 43.3853 47.0399 42.8066L47.0302 42.1831L46.1114 42.4873C45.4098 42.7076 44.8442 42.89 44.4717 43.0287C44.3555 43.0759 44.2342 43.1098 44.1103 43.1296C43.9577 43.1439 43.8038 43.1277 43.6576 43.082C43.5113 43.0363 43.3756 42.962 43.2583 42.8634C43.073 42.7322 42.9163 42.5648 42.7977 42.3712C42.6791 42.1776 42.6011 41.962 42.5684 41.7373C42.5022 41.5435 42.4896 41.3354 42.5321 41.1351C42.5746 40.9347 42.6706 40.7497 42.8098 40.5995C43.0692 40.3785 43.7446 40.1362 44.8308 39.8688C45.4394 39.7419 46.0363 39.564 46.6151 39.337C46.6722 39.2821 46.6208 38.675 46.4624 37.5245C46.3468 36.8132 46.2858 36.0941 46.2799 35.3734Z" fill="#F522ED"/>
<path d="M59.5778 27.3607C59.7542 27.2429 59.9516 27.1603 60.1592 27.1174C60.7675 27.001 61.3973 27.0954 61.9448 27.3848C62.5403 27.7959 63.036 28.3353 63.3952 28.9633C63.8961 29.7125 64.274 30.537 64.5146 31.4055C64.559 31.652 64.6428 31.9183 64.6951 32.2081C64.7325 32.3552 64.7375 32.5087 64.7097 32.658C64.6818 32.8072 64.6218 32.9486 64.5339 33.0724C64.3469 33.3293 64.0682 33.5044 63.7556 33.5611C63.5643 33.5943 63.3683 33.5872 63.1799 33.5405C62.9915 33.4937 62.815 33.4082 62.6615 33.2895C62.3073 33.028 62.0642 32.6431 61.9801 32.211C61.8747 31.7456 61.7066 31.2966 61.4804 30.8764C61.2522 30.453 61.0674 30.2541 60.9261 30.2796C60.7228 30.3163 60.6296 30.6412 60.6543 31.2487C60.7339 32.4209 60.8744 33.5881 61.0751 34.7458L61.5611 38.0346L62.9568 37.6757L63.8881 37.4407C64.0838 37.4186 64.282 37.4354 64.4713 37.4902C64.6605 37.545 64.8371 37.6367 64.9907 37.7599C65.1449 37.8074 65.2844 37.8931 65.3964 38.0092C65.5084 38.1252 65.5891 38.2678 65.631 38.4235C65.6729 38.5792 65.6747 38.743 65.6361 38.8996C65.5975 39.0562 65.5198 39.2004 65.4104 39.3188C65.3107 39.5412 65.1445 39.7273 64.9347 39.8513C64.5663 40.0021 64.1863 40.123 63.7985 40.2126L62.5188 40.5461L62.5873 41.2974C62.7233 41.9619 62.9098 42.6151 63.1451 43.2513C63.5089 44.3439 63.8857 45.4669 64.2753 46.6204C64.6692 47.7642 64.8704 48.3844 64.8868 48.4753C64.8904 48.5088 64.8964 48.5421 64.9047 48.5748C64.9153 48.6069 64.9213 48.6404 64.9227 48.6742C64.9848 49.0184 64.9076 49.3731 64.7081 49.6604C64.5086 49.9476 64.2032 50.1439 63.8591 50.2059C63.1886 50.3269 62.6607 49.9755 62.2892 49.2028C62.1297 48.8386 61.7902 47.8725 61.2628 46.3107C60.7355 44.7488 60.3515 43.5363 60.1031 42.6789L59.7202 41.3233L58.6777 41.5113C57.9637 41.6905 57.2193 41.712 56.4961 41.5743C56.2727 41.4964 56.0768 41.3552 55.932 41.1681C55.7872 40.9809 55.6999 40.7557 55.6807 40.5199C55.6266 40.3498 55.6207 40.1681 55.6635 39.9948C55.7064 39.8216 55.7963 39.6635 55.9235 39.5382C56.4118 39.2422 56.9603 39.0593 57.5286 39.0031L58.9776 38.7417L58.5283 36.2502C58.1019 33.7546 57.9684 31.8254 58.1275 30.4628C58.1829 29.2779 58.7042 28.1629 59.5778 27.3607Z" fill="#F522ED"/>
<path d="M72.6165 34.6023C72.856 34.5203 73.1006 34.4538 73.3488 34.4032C74.2245 34.2629 75.1188 34.2895 75.9846 34.4816C76.8233 34.617 77.6173 34.9516 78.2999 35.4575C78.9343 35.9238 79.4497 36.5332 79.8043 37.2361C80.2191 38.2947 80.5109 39.3975 80.674 40.5227C80.8755 41.7637 80.9852 42.5702 81.009 42.95C81.0168 43.4441 80.9663 43.9374 80.8588 44.4197C80.7137 45.1152 80.5225 45.8002 80.2862 46.4702C80.1555 46.7291 80.0877 47.0153 80.0885 47.3054C80.1124 47.438 79.876 47.7784 79.3794 48.3265C78.9825 48.7835 78.5373 49.1962 78.0516 49.5575C77.4958 49.9591 76.855 50.2275 76.1788 50.3419C75.286 50.506 74.3649 50.4135 73.5225 50.0751C72.6515 49.7361 71.8958 49.1548 71.3445 48.4001C70.4532 47.1873 69.8653 45.7788 69.63 44.2922C69.5028 43.5353 69.4216 42.7714 69.3871 42.0046C69.3559 40.6545 69.5365 39.3078 69.9223 38.0136C70.1033 37.2145 70.4462 36.4611 70.9298 35.7997C71.3821 35.2647 71.9623 34.8528 72.6165 34.6023ZM75.5679 37.2722C75.0897 37.1031 74.5799 37.0425 74.0754 37.0948C73.8029 37.138 73.5475 37.2551 73.337 37.4334C73.0873 37.6435 72.8861 37.9053 72.7474 38.2008C72.597 38.4201 72.5103 38.6769 72.4971 38.9426C72.4879 39.4005 72.4418 39.8569 72.3592 40.3074C72.2621 41.277 72.2751 42.2546 72.3979 43.2213C72.42 43.483 72.4565 43.7434 72.5073 44.0011C72.7827 45.528 73.3477 46.6051 74.2038 47.2412C74.4188 47.3816 74.6601 47.4767 74.913 47.5209C75.1658 47.5651 75.4251 47.5575 75.6749 47.4985C75.9723 47.461 76.2586 47.3621 76.5159 47.2083C76.792 46.9546 77.0326 46.6648 77.2314 46.3468C77.4103 46.0957 77.5655 45.8285 77.6948 45.5486C77.7819 45.3728 77.8474 45.187 77.8898 44.9954C77.9148 44.8613 77.9414 44.6377 77.9776 44.3185C78.0139 43.9993 78.0548 43.7061 78.0968 43.444C78.1877 42.8339 78.1709 42.2126 78.0471 41.6084C78.0315 41.5219 78.005 41.3748 77.9691 41.1758C77.9332 40.9768 77.902 40.8039 77.8778 40.6698C77.7381 39.8073 77.4639 38.9721 77.0652 38.1947C76.6928 37.7099 76.1525 37.3819 75.5506 37.2753L75.5679 37.2722Z" fill="#F522ED"/>
<path d="M82.4937 27.9527C82.7386 27.7451 83.0508 27.634 83.3718 27.6403C83.6928 27.6465 84.0005 27.7696 84.2371 27.9865C84.3927 28.0755 84.529 28.1945 84.6382 28.3366C84.7474 28.4787 84.8273 28.641 84.8732 28.8142C84.931 29.4364 84.9394 30.0621 84.8981 30.6855C84.8807 32.636 85.274 35.8403 86.0781 40.2984C86.1109 40.4801 86.1546 40.7224 86.2092 41.0251C86.2638 41.3279 86.3036 41.5485 86.3278 41.6826C86.943 44.5819 87.5846 46.2735 88.2525 46.7574C88.4297 46.8659 88.5832 47.0092 88.7036 47.1786C88.8239 47.3481 88.9087 47.5401 88.9528 47.7432C88.977 48.0866 88.8867 48.4283 88.6959 48.7149C88.5051 49.0015 88.2247 49.2167 87.8986 49.3268C87.5179 49.3955 87.0213 49.2171 86.4137 48.7952C85.592 48.1663 84.9721 47.311 84.63 46.3345C84.0245 44.6407 83.5807 42.8932 83.3046 41.1157C83.1096 40.0344 82.9582 39.1952 82.8836 38.5834C82.4318 35.9789 82.1147 33.3528 81.9335 30.7156C81.9187 29.222 82.093 28.3063 82.4937 27.9527Z" fill="#F522ED"/>
<path d="M88.9533 28.1096C89.1554 27.8272 89.4518 27.6264 89.789 27.5435C90.1612 27.4978 90.5371 27.5907 90.8451 27.8046C91.1531 28.0184 91.3715 28.3382 91.4586 28.7029C91.521 29.0837 91.4309 29.4738 91.2078 29.7888C91.1078 29.9846 90.9654 30.1558 90.7911 30.2899C90.6168 30.4241 90.4149 30.5179 90.1999 30.5645C89.9496 30.6109 89.6911 30.5824 89.4569 30.4824C89.2228 30.3824 89.0234 30.2154 88.8837 30.0025C88.7332 29.8162 88.6332 29.5943 88.5934 29.3581C88.563 29.1364 88.5793 28.9108 88.6412 28.6958C88.7032 28.4808 88.8095 28.2811 88.9533 28.1096ZM90.2351 32.1214C90.3199 31.9956 90.4316 31.8901 90.562 31.8126C90.6924 31.735 90.8383 31.6872 90.9894 31.6727C91.2175 31.6209 91.4546 31.623 91.6818 31.6789C91.909 31.7349 92.12 31.8431 92.298 31.995C92.5877 32.3924 92.7833 32.8503 92.8701 33.3344C93.0518 34.0281 93.4246 35.7399 93.9884 38.4698L95.2688 44.6032L94.9026 45.0489C94.7143 45.3209 94.4285 45.51 94.1046 45.577C93.8628 45.614 93.6154 45.5793 93.393 45.4774C93.1707 45.3754 92.983 45.2106 92.8533 45.0032C92.6801 44.8022 92.1559 42.6636 91.2808 38.5875C90.8027 36.3334 90.4904 34.7997 90.3453 33.9952C90.1353 32.9299 90.1031 32.306 90.2351 32.1214Z" fill="#F522ED"/>
<path d="M99.9106 29.6797C100.15 29.5977 100.395 29.5312 100.643 29.4806C101.519 29.3403 102.413 29.3669 103.279 29.559C104.117 29.6944 104.911 30.029 105.594 30.5349C106.228 31.0012 106.744 31.6106 107.098 32.3135C107.513 33.3721 107.805 34.4749 107.968 35.6001C108.17 36.8411 108.279 37.6476 108.303 38.0274C108.311 38.522 108.259 39.0158 108.149 39.4979C108.006 40.1934 107.817 40.8782 107.58 41.5476C107.45 41.8065 107.382 42.0927 107.383 42.3828C107.407 42.5154 107.17 42.8558 106.674 43.4039C106.276 43.8601 105.831 44.2727 105.346 44.6349C104.79 45.0365 104.149 45.3049 103.473 45.4193C102.58 45.5834 101.659 45.4908 100.817 45.1525C99.9452 44.8125 99.1884 44.2318 98.6343 43.4782C97.7447 42.2645 97.157 40.8564 96.9198 39.3704C96.7943 38.6131 96.7146 37.8489 96.6812 37.082C96.65 35.7319 96.8306 34.3852 97.2164 33.091C97.3974 32.2919 97.7404 31.5385 98.224 30.8771C98.6762 30.3421 99.2564 29.9302 99.9106 29.6797ZM102.862 32.3496C102.384 32.1805 101.874 32.1199 101.37 32.1722C101.097 32.2154 100.842 32.3325 100.631 32.5108C100.381 32.7209 100.18 32.9827 100.042 33.2782C99.8911 33.4975 99.8044 33.7543 99.7912 34.02C99.782 34.4779 99.7359 34.9343 99.6533 35.3848C99.5562 36.3544 99.5692 37.332 99.6921 38.2987C99.7122 38.5607 99.7473 38.8213 99.7971 39.0792C100.072 40.6061 100.637 41.6833 101.498 42.3186C101.713 42.4594 101.954 42.5549 102.207 42.5991C102.46 42.6433 102.719 42.6354 102.969 42.5759C103.266 42.5383 103.553 42.4395 103.81 42.2857C104.086 42.032 104.327 41.7422 104.525 41.4242C104.704 41.1731 104.86 40.9059 104.989 40.626C105.076 40.4501 105.141 40.2644 105.184 40.0727C105.209 39.9387 105.236 39.7151 105.272 39.3959C105.308 39.0767 105.345 38.7843 105.391 38.5214C105.482 37.9113 105.465 37.29 105.341 36.6858C105.326 36.5992 105.299 36.4522 105.263 36.2532C105.227 36.0542 105.196 35.8812 105.172 35.7472C105.032 34.8847 104.758 34.0495 104.359 33.272C103.992 32.7897 103.458 32.461 102.862 32.3496Z" fill="#F522ED"/>
<path d="M122.205 25.6587C122.444 25.5767 122.689 25.5102 122.937 25.4596C123.813 25.3193 124.707 25.3459 125.573 25.538C126.411 25.6734 127.205 26.008 127.888 26.5139C128.522 26.9802 129.038 27.5896 129.392 28.2925C129.807 29.3511 130.099 30.4539 130.262 31.5791C130.464 32.8201 130.573 33.6266 130.597 34.0064C130.605 34.501 130.553 34.9948 130.442 35.4769C130.3 36.1724 130.111 36.8572 129.874 37.5266C129.744 37.7855 129.676 38.0717 129.677 38.3618C129.7 38.4944 129.464 38.8348 128.967 39.3829C128.57 39.8391 128.125 40.2517 127.64 40.6139C127.084 41.0155 126.443 41.2839 125.767 41.3983C124.874 41.5628 123.953 41.4703 123.111 41.1315C122.239 40.7915 121.482 40.2108 120.928 39.4572C120.039 38.2435 119.451 36.8354 119.214 35.3494C119.088 34.5921 119.009 33.8279 118.975 33.061C118.944 31.7109 119.125 30.3642 119.51 29.07C119.691 28.2709 120.034 27.5175 120.518 26.8561C120.97 26.3211 121.55 25.9092 122.205 25.6587ZM125.156 28.3286C124.678 28.1595 124.168 28.0989 123.663 28.1512C123.391 28.1944 123.136 28.3115 122.925 28.4898C122.675 28.7008 122.472 28.9627 122.331 29.2579C122.183 29.478 122.098 29.7342 122.085 29.999C122.076 30.4569 122.03 30.9133 121.947 31.3638C121.85 32.3334 121.863 33.311 121.986 34.2777C122.006 34.5397 122.041 34.8003 122.091 35.0582C122.366 36.5851 122.931 37.6623 123.792 38.2976C124.007 38.4384 124.248 38.5339 124.501 38.5781C124.754 38.6223 125.013 38.6144 125.263 38.5549C125.56 38.5174 125.847 38.4185 126.104 38.2647C126.38 38.011 126.621 37.7212 126.819 37.4032C126.998 37.1521 127.154 36.8849 127.283 36.605C127.37 36.4291 127.435 36.2434 127.478 36.0518C127.503 35.9177 127.529 35.6941 127.566 35.3749C127.602 35.0557 127.639 34.7633 127.685 34.5004C127.776 33.8903 127.759 33.269 127.635 32.6648C127.62 32.5783 127.593 32.4312 127.557 32.2322C127.521 32.0332 127.49 31.8602 127.466 31.7262C127.326 30.8637 127.052 30.0285 126.653 29.2511C126.286 28.7687 125.752 28.44 125.156 28.3286Z" fill="#F522ED"/>
<path d="M135.953 13.5854C136.13 13.4681 136.327 13.3855 136.535 13.3421C137.143 13.2258 137.773 13.3201 138.32 13.6096C138.918 14.0183 139.414 14.5582 139.771 15.1881C140.271 15.9373 140.649 16.7618 140.89 17.6302C140.934 17.8768 141.018 18.1431 141.07 18.4329C141.107 18.5797 141.113 18.7327 141.086 18.8816C141.059 19.0306 141 19.172 140.913 19.2964C140.721 19.5608 140.432 19.7382 140.109 19.7898C139.919 19.8233 139.723 19.8164 139.535 19.7695C139.348 19.7225 139.172 19.6366 139.019 19.5174C138.665 19.2558 138.422 18.871 138.338 18.4389C138.229 17.9741 138.06 17.5256 137.834 17.105C137.606 16.6817 137.414 16.4841 137.258 16.5122C137.055 16.5489 136.966 16.873 136.986 17.4812C137.066 18.6534 137.206 19.8207 137.407 20.9783L137.897 24.2664L139.293 23.9075L140.224 23.6725C140.42 23.6506 140.617 23.6676 140.806 23.7225C140.994 23.7774 141.17 23.8692 141.323 23.9925C141.477 24.04 141.616 24.1257 141.728 24.2418C141.84 24.3578 141.921 24.5004 141.963 24.6561C142.005 24.8118 142.007 24.9756 141.968 25.1322C141.93 25.2888 141.852 25.433 141.742 25.5514C141.643 25.7738 141.477 25.9598 141.267 26.0838C140.898 26.2347 140.518 26.3555 140.131 26.4451L138.872 26.7747L138.937 27.5269C139.075 28.1909 139.263 28.8438 139.499 29.4799C139.857 30.5736 140.232 31.6969 140.625 32.8499C141.019 33.9936 141.224 34.6131 141.24 34.7039C141.242 34.7378 141.248 34.7712 141.258 34.8034C141.267 34.8361 141.273 34.8694 141.276 34.9029C141.331 35.2462 141.251 35.5975 141.053 35.883C140.855 36.1686 140.554 36.3663 140.213 36.4346C139.538 36.5563 139.013 36.2222 138.639 35.4323C138.479 35.068 138.14 34.102 137.612 32.5401C137.085 30.9783 136.701 29.7657 136.452 28.9084L136.07 27.5527L134.992 27.747C134.28 27.926 133.537 27.9472 132.815 27.8092C132.591 27.7322 132.395 27.5914 132.25 27.404C132.105 27.2167 132.018 26.991 132 26.7548C131.946 26.5851 131.94 26.404 131.982 26.2311C132.024 26.0583 132.113 25.9001 132.238 25.7739C132.727 25.4779 133.275 25.295 133.843 25.2387L135.292 24.9774L134.843 22.4859C134.417 19.9903 134.283 18.0611 134.442 16.6985C134.476 16.1055 134.627 15.5251 134.886 14.9908C135.146 14.4565 135.508 13.9788 135.953 13.5854Z" fill="#F522ED"/>
<path d="M170.959 16.7982C171.033 16.7552 171.105 16.708 171.174 16.6566L171.302 16.5978L171.337 16.5916C171.557 16.5833 171.775 16.6332 171.97 16.7364C172.207 16.8262 172.426 16.9576 172.616 17.1245C172.769 17.2395 172.874 17.4066 172.911 17.5939C172.916 18.1148 172.869 18.635 172.771 19.1466C172.581 20.6696 172.426 22.286 172.306 23.9959C172.116 27.4156 171.772 29.553 171.274 30.408C171.129 30.6563 170.933 30.8712 170.699 31.0388C170.466 31.2064 170.199 31.3229 169.917 31.3807C169.565 31.4351 169.205 31.4114 168.862 31.311C168.52 31.2107 168.204 31.0362 167.937 30.8C166.768 29.8496 165.58 28.1507 164.374 25.7035C164.083 25.1083 163.883 24.8407 163.785 24.9164C163.485 25.6882 163.257 26.4859 163.103 27.2994C162.395 29.9788 161.751 31.682 161.17 32.409C161.076 32.5543 160.953 32.6795 160.81 32.7774C160.666 32.8753 160.505 32.9439 160.335 32.9794L160.167 33.0098C160.076 33.0262 159.998 33.0402 159.933 33.0519C159.562 33.1133 159.182 33.074 158.832 32.938C158.248 32.6502 157.598 31.8205 156.889 30.4389C156.61 29.9309 156.323 29.3797 156.033 28.7845C155.621 27.9691 155.26 27.1286 154.953 26.2682C154.383 24.9107 153.951 23.93 153.661 23.3348C153.424 22.8814 153.253 22.3961 153.155 21.894C152.965 20.8415 153.319 20.2343 154.216 20.0726C154.4 20.0264 154.592 20.0206 154.779 20.0556C154.965 20.0905 155.142 20.1654 155.297 20.275C155.666 20.6499 155.94 21.1073 156.096 21.6093C156.909 23.803 157.862 26.0652 158.955 28.3959C159.267 28.9872 159.476 29.2533 159.582 29.176C159.689 29.0987 160.081 27.7776 160.703 25.1865C161.319 22.6934 161.722 21.1945 161.911 20.69C162.051 20.2324 162.329 19.8296 162.708 19.5369C162.939 19.3445 163.214 19.2121 163.509 19.1512C163.729 19.125 163.951 19.1621 164.151 19.2583C164.35 19.3545 164.518 19.5057 164.634 19.6941C165.131 20.4205 165.535 21.2058 165.837 22.0318C166.364 23.3309 166.964 24.599 167.634 25.83C168.367 27.194 168.846 27.8446 169.067 27.8048L169.102 27.7985C169.226 27.7313 169.353 26.6308 169.48 24.4968C169.67 21.5639 169.857 19.6276 170.029 18.6765C170.201 17.7253 170.524 17.0866 170.959 16.7982Z" fill="#F522ED"/>
<path d="M179.928 15.2473C180.167 15.1654 180.41 15.0992 180.656 15.049C181.534 14.9088 182.429 14.9352 183.297 15.1266C184.135 15.2631 184.929 15.5977 185.612 16.1025C186.245 16.5692 186.759 17.1789 187.112 17.8819C187.529 18.9398 187.821 20.0428 187.982 21.1685C188.183 22.4095 188.297 23.2152 188.317 23.5958C188.329 24.0901 188.278 24.5839 188.166 25.0655C188.02 25.76 187.831 26.4446 187.598 27.1152C187.467 27.3742 187.4 27.6603 187.4 27.9504C187.425 28.0845 187.189 28.4352 186.691 28.9715C186.295 29.4273 185.851 29.8396 185.368 30.2017C184.811 30.6037 184.168 30.8723 183.491 30.9869C182.598 31.151 181.677 31.0585 180.834 30.7201C179.963 30.3811 179.208 29.7998 178.657 29.0451C177.765 27.8324 177.177 26.4238 176.942 24.9373C176.816 24.18 176.737 23.4158 176.703 22.6489C176.671 21.2992 176.85 19.9527 177.234 18.6586C177.417 17.8601 177.76 17.107 178.242 16.4448C178.694 15.9095 179.274 15.4975 179.928 15.2473ZM182.876 17.918C182.397 17.7489 181.888 17.6883 181.383 17.7406C181.111 17.7838 180.855 17.9009 180.645 18.0792C180.395 18.2893 180.194 18.5511 180.055 18.8466C179.907 19.0669 179.82 19.3232 179.805 19.5884C179.798 20.046 179.754 20.5022 179.671 20.9524C179.572 21.922 179.585 22.8998 179.71 23.8663C179.728 24.1285 179.763 24.3893 179.815 24.6469C180.09 26.1738 180.655 27.2509 181.512 27.887C181.726 28.0274 181.968 28.1225 182.221 28.1667C182.474 28.2109 182.733 28.2033 182.983 28.1443C183.28 28.1059 183.566 28.0071 183.824 27.8541C184.097 27.5992 184.336 27.3099 184.535 26.9934C184.715 26.7432 184.87 26.4759 184.998 26.1952C185.084 26.0183 185.151 25.8325 185.197 25.6412C185.218 25.5079 185.249 25.2835 185.281 24.9651C185.313 24.6467 185.358 24.3527 185.405 24.0898C185.492 23.4796 185.473 22.859 185.35 22.2549C185.335 22.1684 185.308 22.0214 185.272 21.8224C185.237 21.6234 185.205 21.4504 185.181 21.3163C185.044 20.4533 184.77 19.6177 184.369 18.8412C184.002 18.3595 183.47 18.0306 182.876 17.918Z" fill="#F522ED"/>
<path d="M190.024 14.369C190.243 14.0698 190.566 13.8621 190.929 13.786C191.105 13.7542 191.286 13.7588 191.461 13.7995C191.636 13.8402 191.8 13.9161 191.945 14.0226C192.076 14.104 192.19 14.2114 192.279 14.3382C192.368 14.465 192.43 14.6085 192.462 14.76C192.47 14.8076 192.493 15.0805 192.539 15.5814L192.652 16.7802L193.587 15.4279C193.985 14.816 194.465 14.2619 195.014 13.7816C195.483 13.4275 196.032 13.1964 196.613 13.1092C196.826 13.068 197.042 13.0409 197.259 13.0283C198.836 12.9047 199.91 13.1889 200.471 13.8738C200.587 14.0051 200.664 14.1656 200.696 14.3379C200.727 14.5103 200.71 14.6879 200.647 14.8513C200.573 15.1163 200.426 15.3549 200.222 15.5394C200.018 15.724 199.766 15.8471 199.495 15.8943C199.202 15.9441 198.902 15.9515 198.606 15.9162C198.145 15.8416 197.676 15.8315 197.212 15.8863C196.489 16.0166 195.911 16.7729 195.463 18.149C195.2 19.1993 195.05 20.2744 195.014 21.3563C194.913 22.3949 194.922 23.4412 195.041 24.4778C195.046 24.5289 195.055 24.5796 195.068 24.6293C195.079 24.6674 195.086 24.7065 195.089 24.746C195.18 24.9474 195.214 25.17 195.187 25.3894C195.159 25.6087 195.072 25.8162 194.934 25.9889C194.84 26.1796 194.702 26.3454 194.532 26.473C194.361 26.6007 194.164 26.6866 193.954 26.7239C193.656 26.7642 193.352 26.7161 193.081 26.5856C192.81 26.4551 192.583 26.2479 192.428 25.9897C191.734 25.0966 191.007 22.8636 190.247 19.2908C189.995 18.1452 189.844 17.4282 189.792 17.1398C189.66 16.5446 189.602 15.9354 189.621 15.326C189.66 14.9747 189.8 14.6423 190.024 14.369Z" fill="#F522ED"/>
<path d="M202.079 4.26693C202.179 4.10963 202.31 3.97443 202.464 3.86982C202.618 3.76522 202.791 3.69343 202.974 3.65884C203.136 3.62789 203.303 3.63111 203.463 3.6683C203.624 3.7055 203.775 3.77583 203.907 3.8748C204.145 4.04313 204.416 4.96785 204.72 6.64904L205.89 13.1373L206.266 12.8953C207.591 12.0153 208.829 11.0114 209.964 9.897C210.841 9.09114 211.489 8.64824 211.917 8.57101C212.061 8.54017 212.21 8.54584 212.351 8.58752C212.492 8.6292 212.62 8.70555 212.724 8.80959C212.989 9.0018 213.166 9.29102 213.218 9.61384C213.307 10.1069 213.018 10.7084 212.342 11.4198C211.27 12.468 210.111 13.424 208.878 14.2777C208.123 14.7913 207.413 15.3677 206.755 16.0005C206.736 16.034 206.73 16.0732 206.739 16.1106C206.763 16.2447 207.167 16.48 207.956 16.8648C210.074 17.8972 212.091 19.1276 213.978 20.5396C214.999 21.2487 215.664 21.7555 215.972 22.0603C216.233 22.2608 216.424 22.5391 216.517 22.8551C216.552 23.0195 216.552 23.1893 216.519 23.354C216.485 23.5186 216.418 23.6746 216.322 23.8124C216.226 23.9503 216.103 24.067 215.96 24.1554C215.817 24.2438 215.658 24.3019 215.492 24.3264C215.11 24.3346 214.737 24.2185 214.427 23.9958C213.961 23.7375 212.988 23.1015 211.51 22.0878C209.289 20.568 207.917 19.7152 207.396 19.5294L206.77 19.3296L207.475 22.4717L208.145 25.6157L207.79 26.1263C207.685 26.3179 207.529 26.477 207.339 26.5866C207.15 26.6963 206.934 26.7523 206.716 26.7486C206.497 26.7449 206.283 26.6816 206.098 26.5656C205.912 26.4496 205.762 26.2853 205.662 26.0902C205.481 25.846 205.088 24.0516 204.482 20.707C204.027 18.1896 203.38 14.3999 202.538 9.33813C202.177 7.08538 201.976 5.75043 201.935 5.32461C201.86 4.96596 201.911 4.59238 202.079 4.26693Z" fill="#F522ED"/>
<path d="M221.826 7.34652C222.4 6.97834 223.039 6.72081 223.708 6.58726C224.08 6.50184 224.466 6.49205 224.842 6.55842C225.219 6.62479 225.578 6.76596 225.899 6.97365C226.212 7.1999 226.476 7.48817 226.673 7.82057C226.871 8.15296 226.998 8.5224 227.047 8.90594C227.27 10.143 227.064 10.9306 226.429 11.2772C226.288 11.3577 226.132 11.41 225.97 11.4315C225.791 11.4697 225.606 11.4659 225.429 11.4203C225.252 11.3748 225.088 11.2887 224.949 11.169C224.634 10.8823 224.43 10.4939 224.372 10.0717C224.352 9.88184 224.295 9.69779 224.203 9.53055C224.145 9.45616 224.025 9.43751 223.844 9.47027C223.411 9.54829 222.761 10.0541 221.884 10.9893C221.008 11.9245 220.531 12.5733 220.491 12.9959L220.504 13.0651L220.481 13.1362C220.502 13.253 220.665 13.3173 220.965 13.348C221.266 13.3787 222.181 13.4012 223.695 13.4273C224.695 13.4102 225.694 13.5104 226.67 13.726C227.315 13.9103 227.928 14.1929 228.487 14.5639C229.04 14.9067 229.53 15.3407 229.938 15.8476C230.295 16.3738 230.523 16.9769 230.604 17.6078C230.712 18.0754 230.716 18.5613 230.615 19.0305C230.158 20.4795 228.73 21.6407 226.33 22.5143C225.878 22.6828 225.415 22.8243 224.946 22.9381C224.475 23.003 223.999 23.0185 223.525 22.9844C221.713 22.9392 220.495 22.2893 219.873 21.0349C219.808 20.887 219.756 20.7334 219.719 20.5759C219.682 20.3995 219.684 20.2171 219.725 20.0416C219.766 19.8661 219.844 19.7016 219.955 19.5596C220.166 19.2727 220.481 19.0797 220.832 19.0218C221.1 18.9751 221.375 19.0046 221.626 19.1069C221.878 19.2093 222.095 19.3804 222.254 19.6006C222.608 19.9467 223.08 20.147 223.575 20.1618C223.896 20.176 224.219 20.1524 224.535 20.0913C225.353 19.9482 226.132 19.6358 226.822 19.1742C227.516 18.7155 227.825 18.2713 227.747 17.8416C227.638 17.236 227.08 16.7814 226.072 16.4778C225.164 16.1979 223.446 16.1134 220.917 16.2241C220.453 16.2534 219.989 16.1855 219.553 16.025C219.117 15.8644 218.72 15.6145 218.386 15.2915C218.029 14.8846 217.803 14.3785 217.74 13.8404C217.607 13.203 217.631 12.5428 217.809 11.9165C218.129 11.038 218.623 10.2333 219.262 9.55068C220.001 8.69112 220.865 7.94806 221.826 7.34652Z" fill="#F522ED"/>
<path d="M231.198 0.890636C231.257 0.853256 231.325 0.828984 231.395 0.819381C231.663 0.766549 231.941 0.784564 232.2 0.871725C232.459 0.958886 232.691 1.11217 232.873 1.3164C233.082 1.56004 233.376 2.74415 233.762 4.88096L234.478 8.85181L235.731 15.9995L235.365 16.4452C235.176 16.7205 234.896 16.9199 234.573 17.0078C234.227 17.0567 233.875 16.9697 233.592 16.765L233.008 16.4238L231.69 9.11795C231.042 5.52488 230.674 3.38782 230.587 2.70679C230.5 2.02577 230.52 1.59341 230.648 1.40961C230.799 1.20534 230.985 1.02958 231.198 0.890636ZM233.795 20.2433C233.765 20.0376 233.777 19.8279 233.83 19.6271C233.884 19.4262 233.978 19.2383 234.107 19.075C234.229 18.8874 234.388 18.7268 234.575 18.6032C234.761 18.4797 234.971 18.3958 235.192 18.3567C235.385 18.3189 235.585 18.3211 235.777 18.3631C235.97 18.4052 236.152 18.4862 236.312 18.6012C236.486 18.7264 236.632 18.8858 236.742 19.0694C236.852 19.2531 236.923 19.4573 236.952 19.6695C236.998 19.8821 237 20.102 236.958 20.3155C236.916 20.529 236.83 20.7315 236.707 20.9107C236.588 21.0789 236.438 21.2214 236.263 21.3297C236.088 21.438 235.893 21.5097 235.69 21.5406C235.463 21.584 235.229 21.5743 235.006 21.5122C234.784 21.4501 234.578 21.3372 234.406 21.1826C234.088 20.9598 233.867 20.6247 233.786 20.2449L233.795 20.2433Z" fill="#F522ED"/>
</svg>
