<svg width="1375" height="855" viewBox="0 0 1375 855" fill="none" xmlns="http://www.w3.org/2000/svg">
<path d="M713.606 626.715C686.467 624.225 659.634 626.274 632.929 631.274C586.557 639.956 540.077 648.148 493.763 657.168C467.973 662.185 442.481 668.789 416.712 673.994C397.082 677.959 377.21 680.064 357.177 676.755C349.101 675.425 341.294 673.059 334.688 668.122C320.13 657.282 316.149 641.323 323.366 624.192C328.697 611.462 338.002 601.902 348.943 593.844C365.044 581.983 383.422 574.882 402.011 568.055C417.994 562.23 433.846 556.139 449.738 549.919C453.168 548.405 456.42 546.519 459.438 544.296C472.68 535.35 478.29 522.875 476.358 507.026C475.536 499.675 473.56 492.5 470.503 485.765C458.934 460.698 454.286 434.419 459.65 407.137C468.226 363.63 500.226 329.094 545.546 319.676C593.978 309.603 646.095 331.422 674.309 373.132C690.837 397.1 699.673 425.532 699.643 454.643C699.75 466.233 698.314 477.832 697.308 489.397C697.176 491.501 696.322 493.496 694.891 495.044C694.105 495.653 693.199 496.089 692.232 496.324C691.266 496.559 690.261 496.587 689.283 496.407C687.986 496.097 686.433 493.926 686.195 492.399C676.091 426.97 642.199 380.088 579.433 356.003C561.106 349.039 541.393 346.504 521.901 348.607C514.504 349.373 507.525 352.407 501.919 357.293C487.673 369.084 479.011 384.534 474.002 402.03C468.628 420.182 468.525 439.487 473.702 457.695C477.276 470.209 481.104 482.695 485.838 494.786C492.322 511.341 504.366 524.096 517.046 536.107C536.094 554.174 557.491 568.619 582.604 576.957C595.796 581.339 609.286 583.652 623.206 581.385C641.076 578.47 655.091 568.995 665.775 554.795C671.479 547.235 676.111 538.857 681.187 530.818C683.133 527.74 684.865 524.56 686.876 521.502C695.835 508.024 707.908 503.103 723.74 506.78C735.055 509.422 746.244 512.622 757.538 515.342C774.6 519.454 791.278 519.272 806.213 508.644C818.415 499.974 826.265 488.32 827.783 473.034C828.371 466.437 827.048 459.81 823.973 453.943C821.891 449.735 816.855 447.064 812.411 448.736C807.196 450.658 801.744 452.928 797.541 456.353C790.784 461.928 784.873 468.562 778.767 474.897C771.301 482.657 763.608 490.048 753.36 494.058C742.263 498.431 731.068 499.577 719.952 493.911C719.225 493.53 718.519 493.109 717.838 492.652C706.013 484.758 704.441 476.218 712.8 464.777C714.935 461.822 717.335 459.067 719.97 456.547C730.507 446.639 741.163 436.743 754.377 430.453C771.747 422.196 789.673 420.523 808.07 427.236C837.886 438.129 850.453 471.384 835.14 499.212C824.317 518.888 806.574 527.664 785.176 530.366C769.006 532.409 753.756 528.382 738.604 523.168C731.937 520.99 725.042 519.58 718.054 518.968C711.48 518.274 705.894 521.567 701.782 526.65C698.464 530.753 695.456 535.097 692.78 539.644C683.059 556.179 671.143 570.595 655.383 581.734C633.917 596.937 610.575 599.792 585.887 591.207C576.085 587.931 566.505 584.026 557.206 579.516C548.118 575.078 538.055 573.01 527.952 573.507C486.431 574.525 446.64 582.957 409.003 600.842C391.161 609.289 374.281 619.206 360.288 633.389C357.166 636.577 354.256 639.965 351.574 643.53C350.612 644.764 349.927 646.19 349.566 647.712C349.204 649.234 349.175 650.816 349.48 652.351C349.785 653.885 350.417 655.336 351.333 656.604C352.249 657.872 353.427 658.928 354.788 659.701C362.379 664.369 370.647 666.398 379.441 664.706C400.25 660.697 421.073 656.544 441.913 652.246C498.836 640.582 555.673 628.471 612.7 617.337C636.578 612.673 660.818 610.11 685.143 609.676C711.199 609.194 736.18 613.104 759.316 625.819C767.874 630.523 774.979 636.643 778.947 645.794C784.947 659.627 781.402 675.59 770.089 686.932C759.685 697.333 747.385 704.796 734.07 710.65C708.543 721.875 681.935 730.116 655.213 737.919C624.114 747.015 592.8 755.371 561.671 764.371C554.382 766.599 547.296 769.44 540.487 772.864C537.201 774.626 534.386 777.151 532.279 780.227C527.917 786.413 529.4 791.886 536.336 795.077C541.145 797.245 546.145 798.961 551.272 800.201C555.803 801.357 560.573 801.514 565.151 802.476C566.594 802.787 568.943 804.338 568.851 805.219C568.771 806.858 567.599 809.393 566.273 809.865C549.808 815.719 533.483 822.266 515.81 823.685C504.749 824.566 494.353 822.911 485.199 815.792C477.339 809.646 477.158 797.862 481.963 791.005C489.322 780.482 499.744 773.685 510.815 767.794C535.686 754.466 562.141 745.039 589.072 737.019C620.463 727.674 652.113 719.155 683.531 709.933C704.302 703.842 724.699 696.635 743.215 685.082C750.541 680.537 757.307 675.256 762.289 668.098C769.986 657.145 768.226 647.229 757.14 639.64C749.703 634.522 741.121 631.81 732.357 629.942C726.175 628.559 719.864 627.76 713.606 626.715Z" fill="#F522ED"/>
<path d="M907.573 358.944C895.947 389.382 887.428 420.327 886.426 453.059C885.315 486.707 894.156 517.167 915.838 543.402C925.752 555.386 935.995 567.132 945.179 579.659C955.649 593.958 961.79 610.057 960.406 628.246C959.195 644.092 953.479 658.03 941.787 669.071C933.578 676.957 922.878 681.735 911.528 682.583C900.177 683.432 888.885 680.298 879.596 673.721C855.155 656.537 845.168 632.266 848.639 603.122C850.946 583.48 869.911 571.882 888.877 576.809C901.177 580.046 911.051 592.056 912.145 605.1C912.91 614.041 910.434 622.591 908.183 631.15C906.708 636.476 905.528 641.879 904.647 647.334C904.226 649.429 904.266 651.591 904.767 653.669C905.267 655.747 906.215 657.69 907.544 659.363C912.969 665.852 918.76 666.918 925.918 662.232C939.612 653.177 945.077 639.738 945.458 623.918C945.759 611.801 941.501 600.899 934.783 591.141C929.165 583.048 922.934 575.289 916.562 567.73C905.875 555.122 895.286 542.483 887.488 527.805C875.775 505.673 871.136 481.982 871.32 457.2C871.572 421.928 880.138 388.46 893.439 356.005C908.738 318.592 929.222 284.35 956.778 254.684C1006.71 200.935 1067.53 170.147 1141.87 168.858C1169.71 168.381 1196.87 172.688 1222.74 183.271C1247.54 193.435 1269.08 208.088 1283.55 231.34C1297.32 253.438 1300.59 277.247 1293.86 302.345C1285.75 332.597 1267.36 355.829 1243.25 374.965C1216.03 396.555 1184.77 409.73 1151.39 418.045C1127.7 423.962 1103.77 428.672 1079.98 434.221C1065.36 437.616 1051.02 441.979 1038.13 450.005C1031.31 454.029 1025.53 459.61 1021.28 466.291C1013.02 479.784 1018.59 492.183 1034.17 494.88C1045.36 496.82 1055.99 494.518 1066.4 490.715C1084.2 484.191 1100.55 474.792 1117.14 465.765C1142.24 452.143 1167.37 438.637 1194.47 429.283C1215.14 422.104 1236.24 417.636 1258.28 419.232C1268.74 419.991 1278.82 422.286 1287.73 428.145C1300.01 436.233 1306.14 448 1307.64 462.323C1308.93 474.843 1306.84 487.004 1303.05 498.872C1292.93 530.7 1274.89 558.088 1254.55 584.087C1230.74 614.568 1203.22 641.176 1170.32 661.787C1148.39 675.525 1125.24 686.524 1099.4 690.739C1079.68 694.007 1060.53 692.606 1041.75 685.158C1028.08 679.738 1014.88 673.787 1003.58 664.098C989.044 651.622 980.773 635.669 979.522 616.84C978.409 600.296 986.077 590.392 1002.15 589.055C1026.55 587.007 1059.02 599.225 1073.86 627.474C1077.63 634.652 1080.6 642.302 1083.84 649.718C1085.03 652.413 1085.98 655.225 1087.25 657.879C1093.55 671.172 1103.11 675.447 1117.08 670.818C1139.47 663.421 1159.74 651.954 1178.59 637.951C1205.32 618.309 1228.72 594.503 1247.89 567.441C1254.58 557.918 1259.29 546.837 1263.78 535.992C1269.5 522.286 1273.5 507.936 1274.37 492.993C1274.66 488.66 1274.6 484.311 1274.19 479.987C1271.82 456.926 1256.18 441.678 1233.05 439.824C1217.56 438.547 1202.86 441.768 1188.53 447.539C1164.73 457.12 1142.25 469.32 1119.74 481.535C1103.47 490.393 1087.29 499.404 1069.73 505.539C1056.41 510.194 1042.84 512.465 1028.76 509.189C1008.12 504.383 997.925 486.677 1003.89 466.404C1006.95 456.348 1012.09 447.043 1018.95 439.083C1037.4 417.053 1061.01 403.224 1088.25 394.793C1111.44 387.602 1134.73 380.571 1157.45 372.046C1191.08 359.415 1219.89 338.877 1244.49 312.948C1263.35 293.06 1268.88 268.525 1263.84 241.806C1261.87 231.372 1256.21 222.729 1247.97 215.714C1234.58 204.416 1218.78 196.345 1201.78 192.123C1119.77 170.945 1048.34 192.127 985.815 247.117C962.995 267.193 944.513 290.991 929.468 317.33C921.655 330.953 914.828 345.073 907.573 358.944Z" fill="#F522ED"/>
<path d="M166.736 112.662C165.807 113.498 164.864 114.32 163.934 115.169C150.653 127.463 137.172 139.438 121.434 148.576C110.171 155.1 98.4043 160.034 85.03 159.769C70.062 159.477 58.4675 152.872 51.2425 140.022C40.6174 121.137 43.0878 102.199 53.7925 84.3216C64.4972 66.4445 81.4043 57.8773 101.605 55.1454C113.941 53.3774 126.525 54.8162 138.142 59.3229C149.595 63.7142 159.322 71.6823 165.873 82.0405C166.896 83.6187 167.879 85.2101 169.127 87.1862C170.548 85.86 171.783 84.6929 173.018 83.4596C197.775 57.559 225.865 36.0747 258.019 20.0543C277.058 10.5716 297.466 4.11919 318.502 0.930628C332.195 -1.19128 345.781 0.599082 359.262 3.4504C370.963 5.93038 381.946 10.0814 391.376 17.4948C408.854 31.327 414.977 50.066 413.263 71.4708C410.833 101.973 396.33 127.078 376.66 149.491C344.613 185.961 303.998 208.745 257.647 221.728C245.083 225.243 232.067 227.166 219.251 229.818C218.148 230.057 217.046 230.322 215.266 230.733C216.727 231.423 217.537 231.847 218.374 232.192C230.208 237.152 235.706 246.289 235.64 258.849C235.64 269.458 232.426 279.484 228.999 289.444C225.387 300.053 220.738 310.424 218.733 321.272C215.412 339.256 214.403 357.637 218.852 375.646C220.403 381.18 223.025 386.357 226.569 390.884C231.297 397.17 237.539 397.674 244.113 393.285C251.537 388.338 256.89 381.349 261.485 373.922C272.659 356.019 283.523 337.934 294.077 319.668C308.395 294.788 323.641 270.599 342.195 248.571C351.492 237.576 362.024 228.068 374.721 221.079C379.635 218.227 385.145 216.554 390.817 216.191C396.489 215.827 402.167 216.783 407.406 218.983C428.949 227.444 433.969 247.43 429.506 264.578C425.363 280.585 417.553 294.908 407.566 307.825C389.915 330.874 371.268 353.141 353.405 375.965C342.288 390.168 331.889 404.915 321.131 419.411C313.255 430.02 304.822 440.258 297.544 451.239C287.291 466.716 280.663 483.665 281.327 502.642C281.46 506.276 282.841 509.923 283.983 513.451C284.422 514.962 285.419 516.25 286.773 517.055C288.126 517.86 289.735 518.122 291.275 517.788C296.654 516.833 302.205 515.878 307.212 513.729C317.585 509.247 327.52 503.743 337.839 499.141C352.448 492.603 366.62 493.478 379.662 503.12C391.23 511.714 393.102 524.724 384.709 536.381C376.009 548.462 363.95 555.067 349.38 557.056C332.58 559.415 315.453 557.334 299.709 551.022C290.357 547.213 282.214 540.943 276.148 532.88C269.148 523.915 267.807 513.385 268.245 502.457C269.268 477.485 279.348 455.828 292.523 435.139C310.254 407.289 330.68 381.548 351.784 356.284C367.974 336.908 384.589 317.824 398.149 296.473C404.856 285.863 411.006 274.975 413.476 262.509C414.352 258.725 414.626 254.827 414.286 250.958C412.613 237.563 402.399 230.68 389.184 233.585C380.419 235.508 373.021 240.03 366.288 245.759C351.931 258 340.894 273.026 331.172 288.98C314.916 315.649 299.111 342.611 283.027 369.387C276.267 380.646 268.816 391.441 259.187 400.446C255.615 403.871 251.626 406.834 247.314 409.265C238.641 413.986 229.344 412.475 222.079 405.724C213.579 397.767 209.98 387.317 207.749 376.336C205.19 363.594 204.849 350.508 206.74 337.651C208.572 324.866 211.003 312.108 211.879 299.191C213.208 279.431 204.907 266.832 186.778 258.769C183.976 257.522 181.067 256.488 178.358 255.082C175.816 253.846 173.415 252.339 171.199 250.586C168.413 248.262 166.41 245.139 165.459 241.641C164.509 238.142 164.658 234.436 165.886 231.025C167.64 226.41 170.827 222.922 175.741 222.299C196.022 219.646 214.257 211.689 231.788 201.716C265.456 182.5 295.538 159.026 319.444 128.338C336.484 106.482 349.088 82.4384 353.976 54.8669C355.836 45.7249 355.786 36.2979 353.83 27.176C350.762 14.0865 344.533 9.07345 329.206 10.7312C298.885 13.9804 272.097 26.2079 247.008 42.9444C224.125 58.2354 204.269 77.0938 184.268 95.8064C180.283 99.5595 179.261 102.437 180.894 108.047C186.196 126.014 186.604 145.067 182.076 163.243C176.286 186.783 169.14 209.925 155.155 230.057C143.268 247.152 128.725 262.031 113 275.757C98.8691 288.091 84.7379 300.451 71.1379 313.368C64.1722 320.246 57.7181 327.621 51.8268 335.436C41.9854 347.982 42.53 362.026 46.9393 376.442C50.8286 388.369 57.2579 399.313 65.7855 408.523C74.2722 418.018 83.2105 427.089 91.591 436.717C101.709 447.898 108.309 461.803 110.57 476.702C113.89 499.327 101.605 517.509 78.934 521.793C59.0917 525.586 42.3042 518.875 28.7839 504.34C15.7522 490.326 6.99769 472.889 3.54944 454.077C-3.47635 417.342 -0.634169 381.574 17.1495 347.916C24.055 334.703 33.1684 322.763 44.0971 312.612C58.8261 299.006 73.9933 285.876 89.2534 272.946C108.246 256.926 126.6 240.348 141.05 219.898C160.547 192.38 171.597 162.09 170.681 128.059C170.535 122.927 168.928 117.821 168.025 112.702L166.736 112.662ZM156.284 98.4853C155.033 97.4517 153.701 96.5203 152.3 95.7003C129.376 83.9105 106.041 81.5233 82.3473 93.2867C71.3902 98.7904 62.7308 106.747 57.6573 118.073C56.7025 119.834 56.1877 121.8 56.1565 123.802C57.4847 138.39 68.7206 150.538 85.5613 148.231C93.2958 147.154 100.724 144.495 107.382 140.42C119.994 132.739 131.752 123.741 142.458 113.577C147.279 109.002 151.503 103.724 156.284 98.4853Z" fill="#F522ED"/>
</svg>
