<svg className="z-0" width="292" height="280" viewBox="0 0 292 280" fill="none" xmlns="http://www.w3.org/2000/svg">
<path d="M291.982 139.499C291.982 153.61 259.484 162.386 255.363 175.109C251.08 188.282 272.08 214.484 264.108 225.459C256.136 236.434 224.628 224.594 213.561 232.668C202.494 240.741 204.276 274.314 191.122 278.603C178.417 282.73 160.063 254.635 145.991 254.635C131.919 254.635 113.601 282.73 100.86 278.603C87.7061 274.314 89.3796 240.651 78.4208 232.668C67.4621 224.684 35.9354 236.542 27.8738 225.459C19.8121 214.376 40.9019 188.282 36.6192 175.109C32.4984 162.386 0 153.61 0 139.499C0 125.389 32.4984 116.631 36.6192 103.908C40.9019 90.7347 19.9021 64.5323 27.8738 53.5576C35.8454 42.5828 67.3541 54.4046 78.4208 46.3492C89.4876 38.2939 87.7061 4.70285 100.86 0.41387C113.565 -3.71292 131.919 24.3817 145.991 24.3817C160.063 24.3817 178.381 -3.71292 191.122 0.41387C204.276 4.70285 202.602 38.3659 213.561 46.3492C224.52 54.3325 256.047 42.4747 264.108 53.5576C272.17 64.6404 251.08 90.7347 255.363 103.908C259.484 116.631 291.982 125.407 291.982 139.499Z" fill="#FBF45C"/>
</svg>
