<svg width="75" height="16" viewBox="0 0 75 16" fill="none" xmlns="http://www.w3.org/2000/svg">
<g clip-path="url(#clip0_8_445)">
<path d="M12.6301 0.469971H12.73C13.0207 0.478795 13.3039 0.563793 13.5513 0.716476C13.7988 0.869159 14.0018 1.08417 14.1401 1.33997C14.2441 1.56625 14.3019 1.81104 14.3101 2.05997V2.15996C14.3101 2.29996 13.9401 4.26996 13.2001 8.06996C12.4201 12.15 12.0101 14.27 11.9501 14.44C11.8068 14.8377 11.5219 15.1688 11.15 15.37C10.9331 15.492 10.6889 15.5573 10.4401 15.56H10.3701C10.0887 15.5538 9.81352 15.4763 9.57037 15.3346C9.32722 15.1929 9.12408 14.9917 8.98004 14.75C8.74671 14.27 8.03336 12.7066 6.84003 10.06H6.79004C5.36004 13.06 4.58006 14.75 4.44006 14.96C4.29655 15.175 4.10366 15.3526 3.8775 15.4778C3.65134 15.6031 3.39849 15.6724 3.14008 15.68H3.11005C2.82019 15.6735 2.53739 15.5894 2.29114 15.4363C2.04488 15.2833 1.84418 15.067 1.71002 14.81C1.49375 14.2937 1.38165 13.7397 1.38007 13.18C0.526733 6.35996 0.0833822 2.72663 0.0500488 2.27997V2.11996C0.0589813 1.81923 0.150485 1.52675 0.314514 1.27454C0.478544 1.02232 0.70877 0.820076 0.980042 0.689957C1.17762 0.597536 1.39202 0.546496 1.61005 0.539963H1.73004C1.98638 0.54553 2.2376 0.613005 2.46222 0.736633C2.68684 0.860262 2.87818 1.03638 3.02002 1.24997C3.22207 1.54489 3.33333 1.89254 3.34003 2.24997C3.34003 2.40997 3.61002 4.38997 4.08002 8.16997L5.46002 5.29996C5.59923 5.06052 5.79714 4.86052 6.0351 4.7188C6.27305 4.57707 6.54323 4.49831 6.82007 4.48996H6.93005C7.19405 4.49481 7.45272 4.56493 7.68304 4.69405C7.91336 4.82317 8.10818 5.00728 8.25006 5.22997C8.36006 5.39997 8.80002 6.35996 9.58002 8.09996C9.6376 8.24264 9.70791 8.37986 9.79004 8.50996C10.63 4.19663 11.0834 1.88329 11.15 1.56996C11.2941 1.1695 11.5831 0.83765 11.96 0.639969C12.1677 0.533591 12.3968 0.475482 12.6301 0.469971Z" fill="white"/>
<path d="M19.3701 3.79007H19.6301C20.5802 3.72957 21.5303 3.90843 22.3934 4.31025C23.2564 4.71208 24.0049 5.32404 24.5701 6.09007C25.1485 6.9834 25.4543 8.02583 25.4501 9.09007C25.4807 9.49147 25.3678 9.89067 25.1315 10.2166C24.8953 10.5426 24.5511 10.7741 24.1601 10.8701C24.1601 10.8701 22.1601 10.9901 18.0301 11.1001C18.2453 11.5136 18.5706 11.8597 18.9701 12.1001C19.2715 12.281 19.6187 12.3713 19.9701 12.3601H20.1101C20.8962 12.4008 21.6706 12.1557 22.2901 11.6701C22.5325 11.5259 22.8081 11.4466 23.0901 11.4401H23.1901C23.5025 11.4491 23.8056 11.5483 24.0629 11.7258C24.3201 11.9032 24.5207 12.1513 24.6401 12.4401C24.7203 12.6338 24.7643 12.8405 24.7701 13.0501V13.1601C24.7701 14.0801 23.9301 14.8201 22.2401 15.3701C21.5316 15.575 20.7977 15.6794 20.0601 15.6801C19.3616 15.6991 18.6662 15.5779 18.0153 15.3237C17.3643 15.0695 16.7709 14.6875 16.2701 14.2001C15.8872 13.8367 15.5512 13.4268 15.2701 12.9801C14.638 12.0007 14.241 10.8883 14.1101 9.73007C14.1101 9.51007 14.1101 9.33007 14.1101 9.20007V8.78007C14.1114 7.60199 14.5134 6.45938 15.2501 5.54007C15.7595 4.95543 16.395 4.49413 17.1087 4.19098C17.8224 3.88782 18.5957 3.75073 19.3701 3.79007V3.79007ZM17.6101 7.88006L21.6101 7.76007C20.9985 7.26204 20.2153 7.02493 19.4301 7.10006C18.4301 7.10006 17.8301 7.34007 17.5801 7.82007C17.5801 7.82007 17.5901 7.84006 17.6101 7.88006Z" fill="white"/>
<path d="M28.3201 0.48999C28.6249 0.492504 28.923 0.579923 29.1809 0.742432C29.4388 0.90494 29.6463 1.13611 29.7801 1.40999C29.8981 1.64239 29.9598 1.89932 29.9601 2.15999V3.84C32.7801 3.84 34.8001 4.7 35.9601 6.42C36.5517 7.33007 36.8613 8.3946 36.8501 9.48V9.64C36.8532 10.9259 36.3834 12.168 35.5301 13.13C35.1475 13.5432 34.7141 13.9061 34.2401 14.21C32.4351 15.2333 30.384 15.7417 28.3101 15.68V15.68C27.9815 15.6866 27.6585 15.595 27.3823 15.4168C27.1062 15.2387 26.8895 14.9821 26.7601 14.68C26.6871 14.5085 26.6432 14.326 26.6301 14.14C26.6301 7.72 26.6301 3.72 26.6301 2.14C26.6435 1.72049 26.8192 1.32255 27.1201 1.03C27.2728 0.86295 27.4579 0.728879 27.6643 0.636017C27.8707 0.543155 28.0939 0.493454 28.3201 0.48999V0.48999ZM29.9401 7.12999C29.9401 8.75999 29.9401 9.99999 29.9401 10.88V12.26C30.481 12.1945 31.0137 12.0738 31.5301 11.9C32.2819 11.7007 32.9357 11.2352 33.3701 10.59C33.5519 10.2565 33.6384 9.87939 33.6201 9.5C33.6622 9.07534 33.5623 8.64872 33.3361 8.28685C33.11 7.92498 32.7703 7.64827 32.3701 7.5C31.6252 7.20874 30.8296 7.06934 30.0301 7.09L29.9401 7.12999Z" fill="white"/>
<path d="M41.5699 3.8501H42.1099C43.4272 3.89299 44.7311 4.12882 45.9799 4.55009C46.2667 4.67801 46.5122 4.88332 46.6888 5.14297C46.8655 5.40263 46.9663 5.70636 46.9799 6.0201V6.11011C46.9734 6.39628 46.8925 6.67582 46.7452 6.92128C46.598 7.16674 46.3894 7.36965 46.14 7.5101C45.9041 7.62336 45.6503 7.69444 45.39 7.72011C44.8862 7.65322 44.3903 7.53596 43.9099 7.3701C43.2973 7.22141 42.6702 7.14092 42.0399 7.1301H41.7999C41.2699 7.1301 40.9299 7.26009 40.7999 7.44009C41.7625 7.87676 42.7679 8.2119 43.7999 8.44009C46.0133 9.10676 47.1532 10.1934 47.2199 11.7001V11.8801C47.1971 12.598 46.9642 13.2934 46.5499 13.8801C46.0895 14.4478 45.5045 14.9019 44.8403 15.2071C44.1761 15.5124 43.4506 15.6605 42.7199 15.6401H42.5199H42.0899C40.8613 15.6135 39.6412 15.4286 38.4599 15.0901C38.1275 14.9497 37.8476 14.7083 37.6599 14.4001C37.5273 14.1672 37.4487 13.9075 37.4299 13.6401V13.5601C37.4323 13.1381 37.5983 12.7334 37.893 12.4312C38.1877 12.1291 38.5881 11.953 39.0099 11.9401V11.9401C39.4313 11.9835 39.8491 12.057 40.2599 12.1601C40.8722 12.2857 41.495 12.3527 42.1199 12.3601H42.4899C42.9576 12.3893 43.4218 12.2627 43.8099 12.0001V12.0001C42.9683 11.6122 42.0908 11.3074 41.1899 11.0901C38.7766 10.3768 37.5366 9.2501 37.4699 7.7101V7.5101C37.4904 6.69754 37.7906 5.91693 38.3199 5.30009C38.7312 4.84588 39.2326 4.48237 39.7922 4.23271C40.3517 3.98306 40.9572 3.85275 41.5699 3.8501V3.8501Z" fill="white"/>
<path d="M49.87 0H50.01C50.299 0.00864521 50.5816 0.0867605 50.834 0.227753C51.0864 0.368745 51.3011 0.568463 51.46 0.809998C51.6579 1.10628 51.7656 1.45368 51.77 1.81V2.00999C51.7575 2.43567 51.5945 2.84314 51.31 3.15999C51.1337 3.3685 50.9149 3.53702 50.6683 3.65428C50.4217 3.77154 50.153 3.83485 49.88 3.84H49.75C49.2975 3.8278 48.8664 3.6446 48.5436 3.32732C48.2207 3.01003 48.0301 2.58221 48.01 2.12999V1.92999C48.0332 1.46078 48.2208 1.01472 48.54 0.669998C48.7015 0.470374 48.9036 0.307381 49.1329 0.191864C49.3622 0.0763474 49.6135 0.0109535 49.87 0V0ZM50.05 4.23H50.16C50.4599 4.23689 50.7521 4.32643 51.0045 4.48875C51.2568 4.65108 51.4594 4.87989 51.59 5.14999C51.7282 5.46408 51.7833 5.80845 51.75 6.14999C51.87 10.69 51.9333 13.3567 51.94 14.15C51.9132 14.5591 51.7359 14.9438 51.4423 15.23C51.1488 15.5162 50.7596 15.6836 50.35 15.7H50.27C49.9952 15.6928 49.7267 15.6167 49.4891 15.4787C49.2514 15.3406 49.0523 15.1451 48.91 14.91C48.6973 14.5261 48.6066 14.0867 48.65 13.65C48.53 8.64999 48.47 6.05999 48.47 5.76999C48.4857 5.5336 48.5518 5.30333 48.6639 5.09462C48.7761 4.88591 48.9316 4.70362 49.12 4.56C49.3937 4.3706 49.7172 4.26623 50.05 4.25999V4.23Z" fill="white"/>
<path d="M56.3901 1.84009H56.47C56.7835 1.84971 57.0877 1.94902 57.3465 2.12627C57.6053 2.30351 57.8078 2.55124 57.9301 2.84009C58.107 3.43295 58.1747 4.05301 58.1301 4.67009C58.1429 4.79643 58.1429 4.92374 58.1301 5.05008H58.2501C59.0192 5.01159 59.7902 5.05518 60.55 5.18008C60.9442 5.32963 61.2733 5.61275 61.48 5.98009C61.586 6.20217 61.6439 6.44409 61.65 6.69008V6.78009C61.6412 7.07072 61.5562 7.35393 61.4035 7.60138C61.2508 7.84883 61.0358 8.05184 60.78 8.19008C60.5736 8.2934 60.3499 8.35781 60.1201 8.38008L58.1201 8.33009V9.41008C58.1201 9.81008 58.1201 10.3101 58.1201 10.9001C58.0846 11.3832 58.1999 11.8653 58.4501 12.2801C58.5935 12.3703 58.7607 12.4156 58.9301 12.4101C59.6587 12.3421 60.3662 12.1279 61.0101 11.7801C61.1474 11.7446 61.2883 11.7244 61.4301 11.7201H61.5701C61.8825 11.7291 62.1855 11.8284 62.4428 12.0058C62.7001 12.1832 62.9005 12.4313 63.02 12.7201C63.1002 12.9138 63.1442 13.1205 63.15 13.3301V13.4301C63.1393 13.719 63.0546 14.0004 62.904 14.2473C62.7534 14.4942 62.542 14.6983 62.29 14.8401C61.2466 15.3923 60.0901 15.6968 58.91 15.7301C58.2788 15.754 57.6517 15.618 57.087 15.3348C56.5224 15.0516 56.0384 14.6303 55.6801 14.1101C55.1103 13.2148 54.818 12.1711 54.84 11.1101C54.84 10.2201 54.84 9.48008 54.84 8.91008V8.26009H54.6801C54.4225 8.25622 54.1693 8.19283 53.9403 8.07486C53.7113 7.95689 53.5127 7.78756 53.36 7.58009C53.1621 7.31388 53.0536 6.9918 53.05 6.66008V6.56009C53.0591 6.24769 53.1583 5.94458 53.3358 5.6873C53.5132 5.43002 53.7613 5.22957 54.05 5.11009C54.2434 5.02884 54.4503 4.98473 54.66 4.98009H54.83L54.7501 3.42009C54.7653 3.00341 54.9397 2.60842 55.2373 2.31639C55.5349 2.02436 55.9331 1.85748 56.35 1.85008L56.3901 1.84009Z" fill="white"/>
<path d="M68.3101 3.79003H68.5801C69.5286 3.73032 70.4771 3.90959 71.3384 4.31142C72.1997 4.71326 72.9464 5.3248 73.5101 6.09003C74.0929 6.98138 74.399 8.02514 74.3901 9.09003C74.4212 9.49007 74.3096 9.88819 74.0754 10.214C73.8411 10.5397 73.4992 10.7721 73.1101 10.87C73.1101 10.87 71.1101 10.99 66.9801 11.1C67.1953 11.5136 67.5206 11.8597 67.9201 12.1C68.2215 12.281 68.5687 12.3712 68.9201 12.36H69.1101C69.8962 12.4008 70.6706 12.1557 71.2901 11.67C71.5289 11.5258 71.8012 11.4465 72.0801 11.44H72.1901C72.5022 11.4503 72.8048 11.55 73.0618 11.7273C73.3189 11.9046 73.5196 12.152 73.6401 12.44C73.713 12.6355 73.7535 12.8415 73.7601 13.05V13.16C73.7601 14.08 72.9201 14.82 71.2401 15.37C70.5282 15.575 69.791 15.6794 69.0501 15.68C68.3516 15.6985 67.6565 15.5771 67.0056 15.3229C66.3547 15.0687 65.7613 14.687 65.2601 14.2C64.8763 13.8375 64.5402 13.4276 64.2601 12.98C63.6281 12.0006 63.231 10.8883 63.1001 9.73003C63.1001 9.51003 63.1001 9.33003 63.1001 9.20003V8.78004C63.1014 7.60195 63.5034 6.45934 64.2401 5.54003C64.7432 4.96104 65.3705 4.50301 66.0751 4.20002C66.7798 3.89703 67.5438 3.75688 68.3101 3.79003V3.79003ZM66.5601 7.88003L70.5601 7.76003C69.951 7.26453 69.172 7.02758 68.3901 7.10003C67.3901 7.10003 66.7801 7.34003 66.5401 7.82003C66.5401 7.82003 66.5468 7.84003 66.5601 7.88003Z" fill="white"/>
</g>
<defs>
<clipPath id="clip0_8_445">
<rect width="74.4" height="15.67" fill="white"/>
</clipPath>
</defs>
</svg>
