<svg width="30" height="29" viewBox="0 0 30 29" fill="none" xmlns="http://www.w3.org/2000/svg">
<path d="M13.8065 0H16.1061C16.2436 0.0476842 16.3847 0.0842513 16.528 0.109304C19.3059 0.401908 21.9366 1.50856 24.0925 3.29145C26.2483 5.07433 27.834 7.45459 28.6519 10.1357C28.9257 11.1658 29.1437 12.2101 29.305 13.2639V15.4495C29.305 15.5861 29.2234 15.7364 29.2098 15.8729C29.0587 17.4523 28.6302 18.9924 27.9443 20.4218C27.136 22.161 25.9899 23.7205 24.5731 25.009C23.1563 26.2975 21.4974 27.289 19.6938 27.9252C17.8902 28.5614 15.9782 28.8296 14.0699 28.7139C12.1617 28.5983 10.2957 28.1012 8.5814 27.2518C8.37119 27.1166 8.12265 27.0542 7.87381 27.0742C5.45174 27.6889 3.02967 28.3445 0.593994 29.0002C0.607767 28.7666 0.635065 28.534 0.675675 28.3035C1.23357 26.2682 1.79145 24.2056 2.36294 22.1976C2.4292 22.0099 2.45379 21.81 2.43499 21.6118C2.41619 21.4136 2.35441 21.2218 2.25406 21.0501C1.21736 19.1406 0.65271 17.009 0.607615 14.8348C0.507654 11.6426 1.47589 8.50889 3.35777 5.93383C5.23966 3.35877 7.92669 1.4909 10.9898 0.628391C11.8743 0.368851 12.8404 0.232221 13.8065 0ZM3.92775 25.5033C5.28847 25.1618 6.47227 24.8749 7.69691 24.5198C7.92186 24.4456 8.16031 24.4218 8.39541 24.4501C8.63051 24.4784 8.85655 24.5581 9.05762 24.6837C11.2913 25.9788 13.8902 26.4929 16.4463 26.1453C18.9949 25.8061 21.3654 24.647 23.2026 22.8415C25.0398 21.0361 26.2447 18.6816 26.6369 16.1309C27.029 13.5802 26.5872 10.9705 25.3776 8.6931C24.1681 6.41565 22.256 4.59303 19.9278 3.4983C17.5996 2.40357 14.9807 2.09572 12.4636 2.62087C9.94645 3.14601 7.66659 4.47591 5.96566 6.41123C4.26473 8.34654 3.2343 10.7831 3.02881 13.3557C2.82331 15.9284 3.45383 18.4986 4.82583 20.6813C4.97908 20.9651 5.0273 21.2941 4.96191 21.6102C4.66255 22.9079 4.29515 24.1646 3.92775 25.5306V25.5033Z" fill="#F522ED"/>
<path d="M10.2138 7.77231C10.9485 7.56741 11.2479 7.9909 11.4656 8.56462C11.7 9.25526 11.9772 9.93046 12.2957 10.5863C12.4675 10.8597 12.5373 11.1854 12.4924 11.5056C12.4476 11.8257 12.2911 12.1196 12.0507 12.3348C11.2071 13.373 11.2207 13.3729 12.0507 14.4794C13.1172 15.9932 14.5892 17.1726 16.2961 17.8808C16.4615 17.9794 16.6584 18.0103 16.8459 17.9671C17.0334 17.9238 17.1972 17.8097 17.3031 17.6485C17.5955 17.2252 17.9232 16.8276 18.2828 16.4601C18.3793 16.3674 18.4958 16.2982 18.6232 16.258C18.7506 16.2177 18.8856 16.2074 19.0176 16.2279C20.0109 16.6104 20.977 17.0475 21.9295 17.4982C22.0262 17.556 22.1084 17.6354 22.1698 17.7301C22.2311 17.8249 22.2699 17.9325 22.2833 18.0447C22.3091 18.4622 22.2391 18.88 22.0787 19.266C21.9183 19.6521 21.6717 19.996 21.358 20.2713C20.8404 20.7044 20.2242 21.0021 19.5641 21.138C18.9041 21.2738 18.2208 21.2435 17.5752 21.0498C15.6459 20.5095 13.8456 19.5821 12.2834 18.3237C10.7211 17.0652 9.42916 15.5019 8.48568 13.7281C8.08766 13.1533 7.83293 12.4911 7.74295 11.797C7.65297 11.1028 7.73037 10.3972 7.9686 9.73936C8.21243 9.14809 8.56824 8.6099 9.01633 8.15475C9.38408 7.89805 9.79405 7.7085 10.2274 7.59473L10.2138 7.77231Z" fill="#F522ED"/>
</svg>
