<svg width="55" height="45" viewBox="0 0 55 45" fill="none" xmlns="http://www.w3.org/2000/svg">
<path d="M12.4573 4.2329C15.1075 3.88814 17.7964 4.44971 20.0868 5.82631C21.6734 6.81545 23.0171 8.14854 24.0187 9.72698C25.0319 11.2584 25.6747 13.0045 25.8962 14.8272C26.1915 17.3653 25.5541 19.9241 24.1028 22.0274C22.8074 23.9503 20.986 25.4601 18.8559 26.3765C17.5153 26.9904 16.0868 27.3908 14.6224 27.5632C12.7499 27.7738 10.8541 27.5756 9.06575 26.9823C6.93336 26.3005 5.05918 24.9858 3.69244 23.2132C2.34393 21.4953 1.51075 19.43 1.28972 17.2574C0.976908 14.7851 1.48797 12.2786 2.7438 10.1257C3.88727 8.18094 5.57974 6.61699 7.60888 5.63003C9.12626 4.87257 10.7695 4.39906 12.4573 4.2329ZM11.4196 9.10744C10.9798 9.14906 10.559 9.30655 10.1999 9.56388C9.84091 9.8212 9.55659 10.1691 9.37598 10.5722C9.02573 11.2665 8.89633 12.0513 9.00515 12.8212C9.20423 14.2743 9.61864 15.6897 10.2347 17.0207C10.8548 18.4824 11.6535 19.8618 12.6126 21.1273C12.9861 21.6077 13.4634 21.9975 14.0088 22.2674C14.4949 22.5229 15.0453 22.63 15.5918 22.5754C15.9779 22.5456 16.3515 22.4251 16.6823 22.2239C17.0131 22.0227 17.2919 21.7463 17.4958 21.4172C17.9512 20.6569 18.1251 19.7608 17.9872 18.8854C17.8081 17.4375 17.4336 16.0205 16.8739 14.6731C16.3596 13.3354 15.6562 12.0783 14.7851 10.9401C14.3472 10.3643 13.7966 9.88357 13.1667 9.52738C12.6381 9.21942 12.0306 9.07341 11.4196 9.10744Z" fill="#1A20A0"/>
<path d="M38.593 1.34228C41.2433 0.997516 43.9322 1.55908 46.2225 2.93568C47.8091 3.92482 49.1529 5.25792 50.1544 6.83635C51.1677 8.36775 51.8105 10.1139 52.032 11.9366C52.3272 14.4746 51.6899 17.0335 50.2385 19.1368C48.9431 21.0597 47.1217 22.5694 44.9917 23.4859C43.651 24.0998 42.2226 24.5002 40.7581 24.6725C38.8857 24.8831 36.9898 24.685 35.2015 24.0917C33.0691 23.4099 31.1949 22.0952 29.8282 20.3226C28.4797 18.6047 27.6465 16.5394 27.4255 14.3668C27.1126 11.8945 27.6237 9.38794 28.8795 7.23512C30.0239 5.29414 31.7155 3.73363 33.7426 2.74889C35.2599 1.98789 36.9039 1.51117 38.593 1.34228ZM37.5554 6.21681C37.1156 6.25844 36.6947 6.41593 36.3357 6.67325C35.9766 6.93057 35.6923 7.27852 35.5117 7.68154C35.1615 8.37585 35.0321 9.16065 35.1409 9.93057C35.34 11.3837 35.7544 12.799 36.3705 14.1301C36.9883 15.595 37.7853 16.9777 38.7433 18.2466C39.1167 18.7269 39.594 19.1167 40.1394 19.3866C40.6255 19.6421 41.176 19.7493 41.7224 19.6946C42.1085 19.6648 42.4821 19.5444 42.813 19.3431C43.1438 19.1419 43.4225 18.8655 43.6265 18.5364C44.0818 17.7761 44.2557 16.88 44.1178 16.0047C43.9388 14.5567 43.5643 13.1397 43.0045 11.7923C42.4902 10.4546 41.7868 9.19753 40.9158 8.05939C40.4779 7.48351 39.9272 7.00281 39.2974 6.64661C38.7712 6.3362 38.1656 6.18677 37.5554 6.21681Z" fill="#1A20A0"/>
<path d="M38.6404 42.528C35.768 42.8273 32.8649 42.5466 30.1033 41.7024C27.3417 40.8582 24.778 39.4678 22.5645 37.6137C22.2562 37.352 22.0025 37.0322 21.8179 36.6724C21.6333 36.3126 21.5214 35.92 21.4886 35.517C21.4559 35.1139 21.5028 34.7084 21.6269 34.3236C21.7509 33.9387 21.9496 33.582 22.2116 33.2739C22.7408 32.6527 23.495 32.2669 24.3085 32.2013C25.122 32.1357 25.9283 32.3957 26.5501 32.9241C28.1223 34.2391 29.9427 35.2252 31.9032 35.8239C33.8638 36.4225 35.9247 36.6216 37.9637 36.4093L38.0769 36.3968C40.1289 36.1386 42.1073 35.4674 43.8926 34.4236C45.6779 33.3799 47.2332 31.9853 48.4644 30.3241C48.9456 29.6643 49.6693 29.2226 50.4762 29.0962C51.2831 28.9698 52.1071 29.169 52.7671 29.65C53.427 30.131 53.8687 30.8544 53.9951 31.661C54.1215 32.4677 53.9222 33.2915 53.441 33.9512C51.7066 36.2932 49.5151 38.2592 46.9991 39.7303C44.483 41.2014 41.6946 42.1471 38.8026 42.5101L38.6404 42.528Z" fill="#1A20A0"/>
</svg>
